<svg width="96" height="31" viewBox="0 0 96 31" fill="none" xmlns="http://www.w3.org/2000/svg">
<g filter="url(#filter0_d_448_272)">
<path d="M17.6484 22.0439C17.8047 22.0439 17.8828 21.9658 17.8828 21.8096C17.8828 21.7314 17.8633 21.6338 17.8242 21.5166C17.707 21.1943 17.6484 20.8574 17.6484 20.5059C17.6484 19.7734 18.0049 18.6602 18.7178 17.166C19.2061 16.1406 19.748 15.1934 20.3438 14.3242C20.7051 13.8066 20.8857 13.416 20.8857 13.1523C20.8857 13.0938 20.876 13.0303 20.8564 12.9619C20.8467 12.8936 20.7832 12.7764 20.666 12.6104C20.4414 12.249 20.1875 11.9365 19.9043 11.6729L19.7432 11.5117C20.4268 11.5215 21.1152 11.5996 21.8086 11.7461C22.5117 11.8828 22.9658 12.0195 23.1709 12.1562L23.2295 12.1855C23.2686 12.1855 23.2979 12.1562 23.3174 12.0977C23.3467 12.0293 23.3613 11.9463 23.3613 11.8486L23.3467 11.6729C23.2197 10.833 22.7949 10.2031 22.0723 9.7832C21.0371 9.17773 19.6162 8.875 17.8096 8.875C17.3994 8.875 16.8525 8.90918 16.1689 8.97754C15.4951 9.03613 14.8701 9.15332 14.2939 9.3291C13.7666 9.49512 13.4541 9.7002 13.3564 9.94434C13.3174 10.042 13.2979 10.1299 13.2979 10.208C13.2979 10.2764 13.3174 10.4375 13.3564 10.6914C13.5127 11.5996 13.7422 12.2344 14.0449 12.5957C14.084 12.6445 14.123 12.6787 14.1621 12.6982C14.2109 12.708 14.2891 12.7178 14.3965 12.7275C14.4648 12.7275 14.5332 12.7275 14.6016 12.7275C14.6699 12.7178 14.8164 12.6641 15.041 12.5664C15.3828 12.4297 15.6514 12.332 15.8467 12.2734L15.9639 12.2441C15.876 12.7422 15.5928 13.3672 15.1143 14.1191C14.6357 14.8711 14.0596 15.6084 13.3857 16.3311C12.7217 17.0439 12.0625 17.5957 11.4082 17.9863C10.9883 18.2402 10.6074 18.3672 10.2656 18.3672C10.0801 18.3672 9.83594 18.2939 9.5332 18.1475C9.23047 17.9912 9.06445 17.3418 9.03516 16.1992C9.03516 14.8223 9.31348 13.582 9.87012 12.4785C10.4268 11.3652 11.1494 10.3203 12.0381 9.34375C12.7217 8.55273 13.5713 7.81543 14.5869 7.13184C15.6123 6.43848 16.7158 5.96484 17.8975 5.71094C18.2979 5.62305 18.6982 5.5791 19.0986 5.5791C19.8799 5.5791 20.6562 5.74512 21.4277 6.07715C21.5742 6.14551 21.7061 6.17969 21.8232 6.17969C21.96 6.17969 22.0625 6.13086 22.1309 6.0332C22.209 5.93555 22.248 5.82812 22.248 5.71094C22.248 5.58398 22.209 5.43262 22.1309 5.25684C21.7695 4.47559 21.2275 3.72363 20.5049 3.00098C19.0596 1.55566 17.4922 0.833008 15.8027 0.833008C15.334 0.833008 14.8506 0.886719 14.3525 0.994141C12.5459 1.36523 10.8906 2.22949 9.38672 3.58691C6.71094 6.04785 5.03125 8.58691 4.34766 11.2041C4.19141 11.9072 4.11328 12.5762 4.11328 13.2109C4.11328 14.4902 4.51367 15.7549 5.31445 17.0049C5.87109 17.8252 6.65234 18.6797 7.6582 19.5684C8.48828 20.291 9.20605 20.7256 9.81152 20.8721C10.0068 20.9111 10.1924 20.9307 10.3682 20.9307C10.749 20.9307 11.1543 20.8184 11.584 20.5938C12.0234 20.3691 12.458 20.0322 12.8877 19.583C13.3174 19.124 13.6934 18.6797 14.0156 18.25L14.2793 17.9277C14.2305 18.1816 14.2061 18.4307 14.2061 18.6748C14.2061 19.417 14.4844 20.125 15.041 20.7988C15.5977 21.4727 16.4326 21.8828 17.5459 22.0293L17.6484 22.0439ZM30.2754 22.2197C30.7148 22.2197 31.3203 22.1221 32.0918 21.9268C32.8633 21.7314 33.6299 21.2529 34.3916 20.4912C35.1533 19.7295 35.5635 18.8408 35.6221 17.8252C35.6221 17.6885 35.6123 17.5713 35.5928 17.4736C35.583 17.376 35.5488 17.2344 35.4902 17.0488C35.4121 16.7949 35.3389 16.6094 35.2705 16.4922C35.2021 16.375 35.1045 16.3164 34.9775 16.3164C34.8408 16.3164 34.7529 16.4092 34.7139 16.5947C34.665 16.8389 34.4404 17.1514 34.04 17.5322C33.8252 17.7373 33.6494 17.8887 33.5127 17.9863C33.3857 18.084 33.2148 18.1816 33 18.2793C31.9844 18.7773 30.8809 19.0264 29.6895 19.0264C29.543 19.0264 29.3379 19.0166 29.0742 18.9971C28.8203 18.9775 28.5859 18.8848 28.3711 18.7188C28.2051 18.6016 28.1221 18.4258 28.1221 18.1914C28.1221 18.0938 28.1367 17.9912 28.166 17.8838C28.1758 17.874 28.2002 17.8691 28.2393 17.8691L28.4004 17.8838C29.0254 17.8838 29.8164 17.6641 30.7734 17.2246C31.7305 16.7852 32.4727 16.375 33 15.9941C33.6738 15.5059 34.2256 14.9346 34.6553 14.2803C34.9775 13.8115 35.1387 13.3965 35.1387 13.0352C35.1387 12.5762 34.9287 12.0439 34.5088 11.4385C34.1279 10.9014 33.542 10.3252 32.751 9.70996C32.2139 9.2998 31.7256 8.9873 31.2861 8.77246C30.7588 8.53809 30.2266 8.4209 29.6895 8.4209C29.2012 8.4209 28.5811 8.57227 27.8291 8.875C27.0771 9.16797 26.291 9.76855 25.4707 10.6768C24.6602 11.5752 24.0498 12.5518 23.6396 13.6064C23.3564 14.3291 23.2148 15.0029 23.2148 15.6279C23.2148 15.9209 23.2441 16.2041 23.3027 16.4775C23.6055 17.6006 24.2207 18.6504 25.1484 19.627C26.0859 20.6035 27.1211 21.3359 28.2539 21.8242C28.9277 22.0879 29.6016 22.2197 30.2754 22.2197ZM28.3711 16.9902C28.3418 16.9902 28.3223 16.9805 28.3125 16.9609C28.4688 16.4043 28.791 15.8281 29.2793 15.2324C29.7676 14.627 30.1826 14.1973 30.5244 13.9434C31.5498 13.1719 32.2432 12.7861 32.6045 12.7861C32.8193 12.7861 32.9268 12.874 32.9268 13.0498C32.9268 13.1377 32.8584 13.333 32.7217 13.6357C32.5947 13.9287 32.1943 14.3877 31.5205 15.0127C31.042 15.4521 30.5586 15.8281 30.0703 16.1406C29.5918 16.4531 29.1865 16.6826 28.8545 16.8291C28.6201 16.9365 28.459 16.9902 28.3711 16.9902ZM41.8623 22C42.1162 22 42.2432 21.9023 42.2432 21.707C42.2432 21.668 42.2334 21.6045 42.2139 21.5166C42.1943 21.4287 42.1455 21.3018 42.0674 21.1357C41.999 20.96 41.9453 20.7939 41.9062 20.6377C41.8672 20.4326 41.8477 20.2129 41.8477 19.9785C41.8477 19.5 41.9502 18.9043 42.1553 18.1914C42.3604 17.4688 42.6924 16.5215 43.1514 15.3496C43.6201 14.1387 44.1279 12.6982 44.6748 11.0283C45.4268 11.0283 45.9541 11.165 46.2568 11.4385C46.3252 11.4971 46.3936 11.5264 46.4619 11.5264C46.5107 11.5264 46.5547 11.5166 46.5938 11.4971C46.7695 11.3799 46.8818 11.126 46.9307 10.7354C46.9502 10.6377 46.96 10.54 46.96 10.4424C46.96 9.54395 46.5254 8.97754 45.6562 8.74316C45.7637 8.35254 45.8174 8.08887 45.8174 7.95215C45.8174 7.62012 45.5 7.16602 44.8652 6.58984C44.4453 6.21875 43.9961 5.89648 43.5176 5.62305C43.0391 5.33984 42.6338 5.19824 42.3018 5.19824C42.0186 5.19824 41.7451 5.37891 41.4814 5.74023L40.251 8.24512L39.7969 8.23047C39.3574 8.23047 38.8887 8.28418 38.3906 8.3916C37.8926 8.48926 37.5215 8.64551 37.2773 8.86035C37.1699 8.94824 37.0967 9.06055 37.0576 9.19727C37.0186 9.33398 36.9893 9.54395 36.9697 9.82715C36.96 10.1104 36.9551 10.3643 36.9551 10.5889C36.9551 11.585 37.1016 12.127 37.3945 12.2148C37.4629 12.2441 37.5312 12.2588 37.5996 12.2588C37.707 12.2588 37.8145 12.2344 37.9219 12.1855C38.1855 12.1074 38.4053 12.0635 38.5811 12.0537C37.6826 14.3193 37.2334 16.1846 37.2334 17.6494C37.2334 18.1279 37.3555 18.8652 37.5996 19.8613C37.8438 20.8477 39.1523 21.5508 41.5254 21.9707C41.6523 21.9902 41.7646 22 41.8623 22ZM49.7432 8.21582C48.8936 8.33301 48.0732 8.54297 47.2822 8.8457C47.1553 8.89453 47.0723 8.99219 47.0332 9.13867C46.9941 9.27539 46.9697 9.48535 46.96 9.76855V9.82715C46.9111 10.6475 46.9307 11.2383 47.0186 11.5996C47.1064 11.9512 47.2383 12.1562 47.4141 12.2148C47.5898 12.2637 47.7803 12.249 47.9854 12.1709L48.4102 12.0391C47.7852 13.7383 47.375 15.2178 47.1797 16.4775C46.9648 17.874 47.0625 18.9775 47.4727 19.7881C47.8047 20.4131 48.2734 20.9111 48.8789 21.2822C49.4844 21.6533 50.2461 21.8682 51.1641 21.9268C51.3203 21.9365 51.4668 21.9316 51.6035 21.9121C51.75 21.8828 51.8477 21.8193 51.8965 21.7217C51.9453 21.624 51.9111 21.4727 51.7939 21.2676C51.5498 20.8574 51.4375 20.4229 51.457 19.9639C51.4766 19.5049 51.5498 19.0312 51.6768 18.543C52.1846 16.5117 52.9561 14.1875 53.9912 11.5703C54.0205 11.4824 54.0498 11.3994 54.0791 11.3213C54.9678 11.3115 55.9688 11.3457 57.082 11.4238C57.1406 11.4336 57.1895 11.4482 57.2285 11.4678C57.2676 11.4775 57.3018 11.4873 57.3311 11.4971C57.3701 11.5068 57.4043 11.502 57.4336 11.4824C57.6289 11.3652 57.7559 11.1162 57.8145 10.7354C57.8828 10.3447 57.8145 9.94922 57.6094 9.54883C57.4141 9.14844 57.0186 8.875 56.4229 8.72852C56.1396 8.61133 55.7441 8.49902 55.2363 8.3916C55.2852 8.31348 55.3291 8.23047 55.3682 8.14258C55.8174 7.3125 56.3496 6.67773 56.9648 6.23828C57.5898 5.78906 58.2295 5.57422 58.8838 5.59375C59.2158 5.7207 59.4844 5.7207 59.6895 5.59375C59.8945 5.4668 60.002 5.2373 60.0117 4.90527C59.9629 4.19238 59.6309 3.5625 59.0156 3.01562C58.4004 2.46875 57.6582 2.10254 56.7891 1.91699C55.9297 1.72168 55.0117 1.7998 54.0352 2.15137C53.0684 2.49316 52.2676 3.21582 51.6328 4.31934C50.998 5.41309 50.4463 6.48242 49.9775 7.52734H50.0068C49.9189 7.75195 49.8311 7.98145 49.7432 8.21582ZM61.5352 21.8828C61.9062 21.8828 62.3701 21.6826 62.9268 21.2822C63.4346 20.8623 63.9619 20.2959 64.5088 19.583C65.0557 18.8701 65.4902 18.2598 65.8125 17.752C65.8223 18.4551 65.9541 19.0361 66.208 19.4951C66.5498 20.0908 67.0283 20.6133 67.6436 21.0625C68.2588 21.502 68.9375 21.7559 69.6797 21.8242H69.7676C70.1387 21.8242 70.3682 21.7412 70.4561 21.5752C70.4658 21.5557 70.4707 21.5312 70.4707 21.502C70.4707 21.4238 70.417 21.3213 70.3096 21.1943C70.0264 20.8916 69.875 20.5303 69.8555 20.1104L69.8408 19.876C69.8408 19.5244 69.8945 19.1582 70.002 18.7773C70.4414 17.0586 71.0225 15.3105 71.7451 13.5332C71.8623 13.2305 71.9746 12.9326 72.082 12.6396C72.1992 12.3467 72.292 12.127 72.3604 11.9805C72.5459 11.5703 72.6387 11.2188 72.6387 10.9258C72.6387 10.6426 72.5264 10.3496 72.3018 10.0469C71.9502 9.58789 71.5059 9.19727 70.9688 8.875C70.4316 8.55273 69.9043 8.33789 69.3867 8.23047L69.2842 8.21582C69.1377 8.21582 68.9912 8.29883 68.8447 8.46484C68.6592 8.66992 68.415 9.0752 68.1123 9.68066C67.8096 10.2861 67.5215 10.8623 67.248 11.4092C66.6816 12.6299 66.0811 13.7822 65.4463 14.8662C64.8213 15.9404 63.9961 17.0391 62.9707 18.1621C62.4727 18.6895 62.1553 18.9531 62.0186 18.9531C61.9502 18.9531 61.916 18.8848 61.916 18.748C61.916 18.4844 62.0967 17.8936 62.458 16.9756C62.7412 16.2432 62.9951 15.6182 63.2197 15.1006C63.7275 13.958 64.1182 12.8838 64.3916 11.8779C64.4502 11.624 64.4795 11.3896 64.4795 11.1748C64.4795 10.5986 64.2207 10.0811 63.7031 9.62207C63.3613 9.3291 62.9561 9.02148 62.4873 8.69922L61.8281 8.23047C61.5352 7.99609 61.2471 7.87891 60.9639 7.87891C60.915 7.87891 60.7979 7.88867 60.6123 7.9082C60.4365 7.92773 60.207 8.22559 59.9238 8.80176C59.6504 9.36816 59.3818 9.99805 59.1182 10.6914C58.5811 11.8633 58.1514 13.1084 57.8291 14.4268C57.6729 15.0713 57.5947 15.7109 57.5947 16.3457C57.5947 17.0195 57.6826 17.6885 57.8584 18.3525C57.9756 18.8018 58.127 19.1777 58.3125 19.4805C58.5078 19.7832 58.7959 20.1104 59.1768 20.4619C60.1924 21.4092 60.9785 21.8828 61.5352 21.8828ZM76.8135 21.9268C76.9307 21.9268 77.0479 21.917 77.165 21.8975C77.292 21.8779 77.3799 21.8193 77.4287 21.7217L77.4434 21.6338C77.4434 21.5459 77.4043 21.4336 77.3262 21.2969C77.1016 20.9355 76.9893 20.5547 76.9893 20.1543C76.9893 20.1152 76.9941 19.9785 77.0039 19.7441C77.0137 19.5098 77.082 19.1582 77.209 18.6895C77.7168 16.7461 78.4834 14.5195 79.5088 12.0098C80.5439 9.5 81.5254 7.39551 82.4531 5.69629C82.8145 5.04199 82.9951 4.62695 82.9951 4.45117C82.9951 4.36328 82.9414 4.25098 82.834 4.11426C82.1309 3.23535 81.0957 2.51758 79.7285 1.96094C79.5039 1.85352 79.2988 1.7998 79.1133 1.7998C78.8789 1.7998 78.6348 1.91211 78.3809 2.13672C78.1367 2.35156 77.7656 3.02539 77.2676 4.1582C76.9551 4.7832 76.418 5.98926 75.6562 7.77637C74.1523 11.2627 73.2344 14.1436 72.9023 16.4189C72.834 16.8486 72.7998 17.249 72.7998 17.6201C72.7998 18.3916 72.9365 19.0312 73.21 19.5391C73.5518 20.1348 74.0303 20.667 74.6455 21.1357C75.2705 21.5947 75.9541 21.8584 76.6963 21.9268H76.8135ZM84.8408 21.9268C84.958 21.9268 85.0752 21.917 85.1924 21.8975C85.3193 21.8779 85.4072 21.8193 85.4561 21.7217L85.4707 21.6338C85.4707 21.5459 85.4316 21.4336 85.3535 21.2969C85.1289 20.9355 85.0166 20.5547 85.0166 20.1543C85.0166 20.1152 85.0215 19.9785 85.0312 19.7441C85.041 19.5098 85.1094 19.1582 85.2363 18.6895C85.7441 16.7461 86.5107 14.5195 87.5361 12.0098C88.5713 9.5 89.5527 7.39551 90.4805 5.69629C90.8418 5.04199 91.0225 4.62695 91.0225 4.45117C91.0225 4.36328 90.9688 4.25098 90.8613 4.11426C90.1582 3.23535 89.123 2.51758 87.7559 1.96094C87.5312 1.85352 87.3262 1.7998 87.1406 1.7998C86.9062 1.7998 86.6621 1.91211 86.4082 2.13672C86.1641 2.35156 85.793 3.02539 85.2949 4.1582C84.9824 4.7832 84.4453 5.98926 83.6836 7.77637C82.1797 11.2627 81.2617 14.1436 80.9297 16.4189C80.8613 16.8486 80.8271 17.249 80.8271 17.6201C80.8271 18.3916 80.9639 19.0312 81.2373 19.5391C81.5791 20.1348 82.0576 20.667 82.6729 21.1357C83.2979 21.5947 83.9814 21.8584 84.7236 21.9268H84.8408Z" fill="white"/>
</g>
<defs>
<filter id="filter0_d_448_272" x="0.113281" y="0.833008" width="94.9092" height="29.3867" filterUnits="userSpaceOnUse" color-interpolation-filters="sRGB">
<feFlood flood-opacity="0" result="BackgroundImageFix"/>
<feColorMatrix in="SourceAlpha" type="matrix" values="0 0 0 0 0 0 0 0 0 0 0 0 0 0 0 0 0 0 127 0" result="hardAlpha"/>
<feOffset dy="4"/>
<feGaussianBlur stdDeviation="2"/>
<feComposite in2="hardAlpha" operator="out"/>
<feColorMatrix type="matrix" values="0 0 0 0 0 0 0 0 0 0 0 0 0 0 0 0 0 0 0.25 0"/>
<feBlend mode="normal" in2="BackgroundImageFix" result="effect1_dropShadow_448_272"/>
<feBlend mode="normal" in="SourceGraphic" in2="effect1_dropShadow_448_272" result="shape"/>
</filter>
</defs>
</svg>
