<svg width="80" height="30" viewBox="0 0 80 30" fill="none" xmlns="http://www.w3.org/2000/svg">
<path d="M13.6484 22.0439C13.8047 22.0439 13.8828 21.9658 13.8828 21.8096C13.8828 21.7314 13.8633 21.6338 13.8242 21.5166C13.707 21.1943 13.6484 20.8574 13.6484 20.5059C13.6484 19.7734 14.0049 18.6602 14.7178 17.166C15.2061 16.1406 15.748 15.1934 16.3438 14.3242C16.7051 13.8066 16.8857 13.416 16.8857 13.1523C16.8857 13.0938 16.876 13.0303 16.8564 12.9619C16.8467 12.8936 16.7832 12.7764 16.666 12.6104C16.4414 12.249 16.1875 11.9365 15.9043 11.6729L15.7432 11.5117C16.4268 11.5215 17.1152 11.5996 17.8086 11.7461C18.5117 11.8828 18.9658 12.0195 19.1709 12.1562L19.2295 12.1855C19.2686 12.1855 19.2979 12.1562 19.3174 12.0977C19.3467 12.0293 19.3613 11.9463 19.3613 11.8486L19.3467 11.6729C19.2197 10.833 18.7949 10.2031 18.0723 9.7832C17.0371 9.17773 15.6162 8.875 13.8096 8.875C13.3994 8.875 12.8525 8.90918 12.1689 8.97754C11.4951 9.03613 10.8701 9.15332 10.2939 9.3291C9.7666 9.49512 9.4541 9.7002 9.35645 9.94434C9.31738 10.042 9.29785 10.1299 9.29785 10.208C9.29785 10.2764 9.31738 10.4375 9.35645 10.6914C9.5127 11.5996 9.74219 12.2344 10.0449 12.5957C10.084 12.6445 10.123 12.6787 10.1621 12.6982C10.2109 12.708 10.2891 12.7178 10.3965 12.7275C10.4648 12.7275 10.5332 12.7275 10.6016 12.7275C10.6699 12.7178 10.8164 12.6641 11.041 12.5664C11.3828 12.4297 11.6514 12.332 11.8467 12.2734L11.9639 12.2441C11.876 12.7422 11.5928 13.3672 11.1143 14.1191C10.6357 14.8711 10.0596 15.6084 9.38574 16.3311C8.72168 17.0439 8.0625 17.5957 7.4082 17.9863C6.98828 18.2402 6.60742 18.3672 6.26562 18.3672C6.08008 18.3672 5.83594 18.2939 5.5332 18.1475C5.23047 17.9912 5.06445 17.3418 5.03516 16.1992C5.03516 14.8223 5.31348 13.582 5.87012 12.4785C6.42676 11.3652 7.14941 10.3203 8.03809 9.34375C8.72168 8.55273 9.57129 7.81543 10.5869 7.13184C11.6123 6.43848 12.7158 5.96484 13.8975 5.71094C14.2979 5.62305 14.6982 5.5791 15.0986 5.5791C15.8799 5.5791 16.6562 5.74512 17.4277 6.07715C17.5742 6.14551 17.7061 6.17969 17.8232 6.17969C17.96 6.17969 18.0625 6.13086 18.1309 6.0332C18.209 5.93555 18.248 5.82812 18.248 5.71094C18.248 5.58398 18.209 5.43262 18.1309 5.25684C17.7695 4.47559 17.2275 3.72363 16.5049 3.00098C15.0596 1.55566 13.4922 0.833008 11.8027 0.833008C11.334 0.833008 10.8506 0.886719 10.3525 0.994141C8.5459 1.36523 6.89062 2.22949 5.38672 3.58691C2.71094 6.04785 1.03125 8.58691 0.347656 11.2041C0.191406 11.9072 0.113281 12.5762 0.113281 13.2109C0.113281 14.4902 0.513672 15.7549 1.31445 17.0049C1.87109 17.8252 2.65234 18.6797 3.6582 19.5684C4.48828 20.291 5.20605 20.7256 5.81152 20.8721C6.00684 20.9111 6.19238 20.9307 6.36816 20.9307C6.74902 20.9307 7.1543 20.8184 7.58398 20.5938C8.02344 20.3691 8.45801 20.0322 8.8877 19.583C9.31738 19.124 9.69336 18.6797 10.0156 18.25L10.2793 17.9277C10.2305 18.1816 10.2061 18.4307 10.2061 18.6748C10.2061 19.417 10.4844 20.125 11.041 20.7988C11.5977 21.4727 12.4326 21.8828 13.5459 22.0293L13.6484 22.0439ZM26.2754 22.2197C26.7148 22.2197 27.3203 22.1221 28.0918 21.9268C28.8633 21.7314 29.6299 21.2529 30.3916 20.4912C31.1533 19.7295 31.5635 18.8408 31.6221 17.8252C31.6221 17.6885 31.6123 17.5713 31.5928 17.4736C31.583 17.376 31.5488 17.2344 31.4902 17.0488C31.4121 16.7949 31.3389 16.6094 31.2705 16.4922C31.2021 16.375 31.1045 16.3164 30.9775 16.3164C30.8408 16.3164 30.7529 16.4092 30.7139 16.5947C30.665 16.8389 30.4404 17.1514 30.04 17.5322C29.8252 17.7373 29.6494 17.8887 29.5127 17.9863C29.3857 18.084 29.2148 18.1816 29 18.2793C27.9844 18.7773 26.8809 19.0264 25.6895 19.0264C25.543 19.0264 25.3379 19.0166 25.0742 18.9971C24.8203 18.9775 24.5859 18.8848 24.3711 18.7188C24.2051 18.6016 24.1221 18.4258 24.1221 18.1914C24.1221 18.0938 24.1367 17.9912 24.166 17.8838C24.1758 17.874 24.2002 17.8691 24.2393 17.8691L24.4004 17.8838C25.0254 17.8838 25.8164 17.6641 26.7734 17.2246C27.7305 16.7852 28.4727 16.375 29 15.9941C29.6738 15.5059 30.2256 14.9346 30.6553 14.2803C30.9775 13.8115 31.1387 13.3965 31.1387 13.0352C31.1387 12.5762 30.9287 12.0439 30.5088 11.4385C30.1279 10.9014 29.542 10.3252 28.751 9.70996C28.2139 9.2998 27.7256 8.9873 27.2861 8.77246C26.7588 8.53809 26.2266 8.4209 25.6895 8.4209C25.2012 8.4209 24.5811 8.57227 23.8291 8.875C23.0771 9.16797 22.291 9.76855 21.4707 10.6768C20.6602 11.5752 20.0498 12.5518 19.6396 13.6064C19.3564 14.3291 19.2148 15.0029 19.2148 15.6279C19.2148 15.9209 19.2441 16.2041 19.3027 16.4775C19.6055 17.6006 20.2207 18.6504 21.1484 19.627C22.0859 20.6035 23.1211 21.3359 24.2539 21.8242C24.9277 22.0879 25.6016 22.2197 26.2754 22.2197ZM24.3711 16.9902C24.3418 16.9902 24.3223 16.9805 24.3125 16.9609C24.4688 16.4043 24.791 15.8281 25.2793 15.2324C25.7676 14.627 26.1826 14.1973 26.5244 13.9434C27.5498 13.1719 28.2432 12.7861 28.6045 12.7861C28.8193 12.7861 28.9268 12.874 28.9268 13.0498C28.9268 13.1377 28.8584 13.333 28.7217 13.6357C28.5947 13.9287 28.1943 14.3877 27.5205 15.0127C27.042 15.4521 26.5586 15.8281 26.0703 16.1406C25.5918 16.4531 25.1865 16.6826 24.8545 16.8291C24.6201 16.9365 24.459 16.9902 24.3711 16.9902ZM37.8623 22C38.1162 22 38.2432 21.9023 38.2432 21.707C38.2432 21.668 38.2334 21.6045 38.2139 21.5166C38.1943 21.4287 38.1455 21.3018 38.0674 21.1357C37.999 20.96 37.9453 20.7939 37.9062 20.6377C37.8672 20.4326 37.8477 20.2129 37.8477 19.9785C37.8477 19.5 37.9502 18.9043 38.1553 18.1914C38.3604 17.4688 38.6924 16.5215 39.1514 15.3496C39.6201 14.1387 40.1279 12.6982 40.6748 11.0283C41.4268 11.0283 41.9541 11.165 42.2568 11.4385C42.3252 11.4971 42.3936 11.5264 42.4619 11.5264C42.5107 11.5264 42.5547 11.5166 42.5938 11.4971C42.7695 11.3799 42.8818 11.126 42.9307 10.7354C42.9502 10.6377 42.96 10.54 42.96 10.4424C42.96 9.54395 42.5254 8.97754 41.6562 8.74316C41.7637 8.35254 41.8174 8.08887 41.8174 7.95215C41.8174 7.62012 41.5 7.16602 40.8652 6.58984C40.4453 6.21875 39.9961 5.89648 39.5176 5.62305C39.0391 5.33984 38.6338 5.19824 38.3018 5.19824C38.0186 5.19824 37.7451 5.37891 37.4814 5.74023L36.251 8.24512L35.7969 8.23047C35.3574 8.23047 34.8887 8.28418 34.3906 8.3916C33.8926 8.48926 33.5215 8.64551 33.2773 8.86035C33.1699 8.94824 33.0967 9.06055 33.0576 9.19727C33.0186 9.33398 32.9893 9.54395 32.9697 9.82715C32.96 10.1104 32.9551 10.3643 32.9551 10.5889C32.9551 11.585 33.1016 12.127 33.3945 12.2148C33.4629 12.2441 33.5312 12.2588 33.5996 12.2588C33.707 12.2588 33.8145 12.2344 33.9219 12.1855C34.1855 12.1074 34.4053 12.0635 34.5811 12.0537C33.6826 14.3193 33.2334 16.1846 33.2334 17.6494C33.2334 18.1279 33.3555 18.8652 33.5996 19.8613C33.8438 20.8477 35.1523 21.5508 37.5254 21.9707C37.6523 21.9902 37.7646 22 37.8623 22ZM39.2686 29.2363C39.9619 29.2363 40.7188 29.1094 41.5391 28.8555C42.9551 28.3965 44.1562 27.2246 45.1426 25.3398C45.6895 24.2852 46.1729 23.0693 46.5928 21.6924C47.0225 20.3154 47.418 18.9238 47.7793 17.5176C48.502 14.8223 49.0488 13.0156 49.4199 12.0977C49.5566 11.7461 49.625 11.4141 49.625 11.1016C49.625 10.8086 49.4688 10.4912 49.1562 10.1494C48.7266 9.7002 48.1992 9.31445 47.5742 8.99219C46.9492 8.66992 46.3438 8.45508 45.7578 8.34766L45.6406 8.33301C45.4746 8.33301 45.3184 8.41602 45.1719 8.58203C44.7129 9.01172 44.2881 10.0518 43.8975 11.7021C43.6533 12.708 43.4141 13.8115 43.1797 15.0127C42.9258 16.3604 42.6377 17.7031 42.3154 19.041C41.9932 20.3789 41.6074 21.5752 41.1582 22.6299C40.9336 23.167 40.5918 23.7773 40.1328 24.4609C39.6348 25.252 38.9805 25.877 38.1699 26.3359C37.7891 26.5508 37.374 26.6582 36.9248 26.6582C36.4268 26.6582 35.8896 26.5264 35.3135 26.2627C35.0498 26.1553 34.8496 26.1016 34.7129 26.1016C34.5469 26.1016 34.4639 26.1797 34.4639 26.3359C34.4639 26.3555 34.4785 26.4629 34.5078 26.6582C34.5371 26.8633 34.8545 27.2393 35.46 27.7861C36.0557 28.3428 36.876 28.7676 37.9209 29.0605C38.3408 29.1777 38.79 29.2363 39.2686 29.2363ZM49.6104 8.23047C49.8447 8.23047 50.0498 8.18164 50.2256 8.08398C50.3721 7.9668 50.5674 7.74219 50.8115 7.41016C51.0654 7.06836 51.3047 6.72656 51.5293 6.38477C51.7539 6.04297 51.9004 5.79883 51.9688 5.65234C52.0957 5.41797 52.1592 5.20312 52.1592 5.00781C52.1592 4.54883 51.5928 4.05078 50.46 3.51367C49.8057 3.20117 49.2051 2.97656 48.6582 2.83984C48.248 2.73242 47.9307 2.67871 47.7061 2.67871C47.6865 2.67871 47.6133 2.68359 47.4863 2.69336C47.3691 2.69336 47.2373 2.7666 47.0908 2.91309C46.8857 3.12793 46.6758 3.49902 46.4609 4.02637C46.2461 4.55371 46.0752 5.13477 45.9482 5.76953C45.9092 5.93555 45.8896 6.08203 45.8896 6.20898C45.8896 6.32617 45.9141 6.45313 45.9629 6.58984C46.0117 6.7168 46.207 6.87793 46.5488 7.07324C46.9492 7.30762 47.4082 7.53223 47.9258 7.74707C48.6777 8.06934 49.2393 8.23047 49.6104 8.23047ZM56.3047 22.1318C57.252 22.1318 58.1699 21.7949 59.0586 21.1211C59.9473 20.4375 60.7383 19.5537 61.4316 18.4697C62.1348 17.376 62.6768 16.2188 63.0576 14.998C63.3506 14.1094 63.4971 13.25 63.4971 12.4199C63.4971 12.1367 63.4531 11.6533 63.3652 10.9697C63.2773 10.2764 62.7354 9.55371 61.7393 8.80176C61.2607 8.45996 60.6943 8.16699 60.04 7.92285C59.5713 7.74707 59.1123 7.65918 58.6631 7.65918C58.2822 7.65918 57.999 7.69824 57.8135 7.77637C57.7354 7.80566 57.6426 7.85938 57.5352 7.9375C57.4375 8.00586 57.3594 8.06934 57.3008 8.12793C57.252 8.18652 57.1934 8.30859 57.125 8.49414L56.9785 8.4209C55.7285 7.8252 54.835 7.52734 54.2979 7.52734C54.1416 7.52734 53.9951 7.57129 53.8584 7.65918C53.7314 7.7373 53.5703 7.9375 53.375 8.25977C52.4863 9.54883 51.7148 10.9648 51.0605 12.5078C50.3477 14.168 49.9912 15.7207 49.9912 17.166C49.9912 20.2617 52.0811 21.917 56.2607 22.1318H56.3047ZM56.085 19.8027C55.6553 19.8027 55.4404 19.3438 55.4404 18.4258C55.4404 17.5469 55.6162 16.5947 55.9678 15.5693L56.0264 15.4082C56.4365 13.9824 56.998 12.6787 57.7109 11.4971C58.0918 10.9014 58.4971 10.457 58.9268 10.1641C59.1514 10.0078 59.3516 9.92969 59.5273 9.92969C59.7031 9.92969 59.8594 10.0078 59.9961 10.1641C60.2793 10.5645 60.4209 11.0869 60.4209 11.7314C60.4209 11.9268 60.3867 12.3125 60.3184 12.8887C60.25 13.4648 60.001 14.2705 59.5713 15.3057C59.1514 16.3408 58.6582 17.2686 58.0918 18.0889C57.5254 18.9092 56.9688 19.4561 56.4219 19.7295C56.2949 19.7783 56.1826 19.8027 56.085 19.8027ZM72.3887 21.9414C72.7988 21.9414 73.3652 21.8242 74.0879 21.5898C74.8105 21.3555 75.5918 20.8086 76.4316 19.9492C77.2812 19.0898 77.9551 18.123 78.4531 17.0488C78.9609 15.9746 79.2246 14.9541 79.2441 13.9873V13.4893C79.2344 13.3232 79.1904 13.0986 79.1123 12.8154C78.8975 12.0537 78.6094 11.3799 78.248 10.7939C78.0039 10.4033 77.6963 10.0078 77.3252 9.60742C76.9541 9.19727 76.6367 8.89941 76.373 8.71387C76.1777 8.57715 75.9727 8.50879 75.7578 8.50879C75.6309 8.50879 75.4746 8.52832 75.2891 8.56738C74.6836 8.7041 74.0684 9.03125 73.4434 9.54883C72.8184 10.0566 72.2227 10.6377 71.6562 11.292C71.0996 11.9365 70.6113 12.5322 70.1914 13.0791C69.9277 13.4111 69.7031 13.6846 69.5176 13.8994L69.8398 13.1816C70.123 12.5273 70.4404 11.8486 70.792 11.1455C71.4561 9.77832 71.9785 8.7627 72.3594 8.09863C72.6426 7.59082 73.1016 6.81934 73.7363 5.78418C73.9707 5.39355 74.1367 5.0957 74.2344 4.89062C74.3125 4.72461 74.3516 4.58301 74.3516 4.46582C74.3516 4.43652 74.3467 4.38281 74.3369 4.30469C74.3369 4.22656 74.2881 4.09473 74.1904 3.90918C73.8682 3.3623 73.3799 2.80566 72.7256 2.23926L72.3008 1.8291C71.998 1.5459 71.6611 1.4043 71.29 1.4043C71.2217 1.4043 71.0557 1.42383 70.792 1.46289C70.5381 1.50195 70.2451 1.74609 69.9131 2.19531C68.0186 4.88086 66.627 7.54688 65.7383 10.1934C64.9961 12.3711 64.625 14.2266 64.625 15.7598C64.625 16.707 64.791 17.5029 65.123 18.1475C65.5332 18.9775 66.0459 19.6416 66.6611 20.1396C67.1982 20.5693 67.6035 20.7842 67.877 20.7842C68.1113 20.7842 68.2285 20.7109 68.2285 20.5645C68.2285 20.5059 68.2139 20.4424 68.1846 20.374C68.1357 20.2471 68.1113 20.0615 68.1113 19.8174C68.1113 19.6514 68.1309 19.4902 68.1699 19.334C68.4238 18.5234 68.9658 17.5078 69.7959 16.2871C70.626 15.0664 71.5049 13.9336 72.4326 12.8887C73.3701 11.834 74.127 11.1602 74.7031 10.8672C74.8301 10.8086 74.9375 10.7793 75.0254 10.7793C75.2988 10.7793 75.4355 11.0088 75.4355 11.4678C75.4355 11.8975 75.3232 12.4932 75.0986 13.2549C74.8057 14.2314 74.3857 15.2617 73.8389 16.3457C73.3018 17.4297 72.6865 18.3623 71.9932 19.1436C71.3096 19.915 70.6162 20.3203 69.9131 20.3594C69.8154 20.3594 69.7373 20.3887 69.6787 20.4473C69.6299 20.4961 69.6055 20.5449 69.6055 20.5938C69.6055 20.6914 69.6982 20.8379 69.8838 21.0332C70.0693 21.2285 70.2598 21.3799 70.4551 21.4873C71.1094 21.79 71.7539 21.9414 72.3887 21.9414Z" fill="#3C6046"/>
</svg>
