<svg width="10" height="10" viewBox="0 0 10 10" fill="none" xmlns="http://www.w3.org/2000/svg">
<path d="M7.08333 2.91668V7.29168C7.08333 7.89946 6.84189 8.48236 6.41212 8.91213C5.98235 9.3419 5.39945 9.58334 4.79167 9.58334C4.18388 9.58334 3.60098 9.3419 3.17121 8.91213C2.74144 8.48236 2.5 7.89946 2.5 7.29168V2.50001C2.5 2.05798 2.67559 1.63406 2.98816 1.3215C3.30072 1.00894 3.72464 0.833344 4.16667 0.833344C4.60869 0.833344 5.03262 1.00894 5.34518 1.3215C5.65774 1.63406 5.83333 2.05798 5.83333 2.50001V6.87501C5.83333 7.15128 5.72359 7.41623 5.52824 7.61158C5.33289 7.80693 5.06793 7.91668 4.79167 7.91668C4.5154 7.91668 4.25045 7.80693 4.0551 7.61158C3.85975 7.41623 3.75 7.15128 3.75 6.87501V2.91668H4.16667V6.87501C4.16667 7.04077 4.23251 7.19974 4.34972 7.31695C4.46694 7.43416 4.62591 7.50001 4.79167 7.50001C4.95743 7.50001 5.1164 7.43416 5.23361 7.31695C5.35082 7.19974 5.41667 7.04077 5.41667 6.87501V2.50001C5.41667 2.16849 5.28497 1.85055 5.05055 1.61613C4.81613 1.38171 4.49819 1.25001 4.16667 1.25001C3.83515 1.25001 3.5172 1.38171 3.28278 1.61613C3.04836 1.85055 2.91667 2.16849 2.91667 2.50001V7.29168C2.91667 8.33334 3.75 9.16668 4.79167 9.16668C5.83333 9.16668 6.66667 8.33334 6.66667 7.29168V2.91668H7.08333Z" fill="#101010"/>
</svg>
