<svg width="48" height="18" viewBox="0 0 48 18" fill="none" xmlns="http://www.w3.org/2000/svg">
<rect width="48" height="18" rx="9" fill="#3C6046"/>
<path d="M14.179 13H13.2557L15.9261 5.72727H16.8352L19.5057 13H18.5824L16.4091 6.87784H16.3523L14.179 13ZM14.5199 10.1591H18.2415V10.9403H14.5199V10.1591ZM21.3061 11.0114L21.2919 9.97443H21.4624L23.8487 7.54545H24.8857L22.343 10.1165H22.272L21.3061 11.0114ZM20.5249 13V5.72727H21.3629V13H20.5249ZM23.9908 13L21.8601 10.3011L22.4567 9.71875L25.0561 13H23.9908ZM28.3365 7.54545V8.25568H25.5098V7.54545H28.3365ZM26.3336 6.23864H27.1717V11.4375C27.1717 11.6742 27.206 11.8518 27.2747 11.9702C27.3457 12.0862 27.4357 12.1643 27.5446 12.2045C27.6558 12.2424 27.773 12.2614 27.8961 12.2614C27.9885 12.2614 28.0642 12.2566 28.1234 12.2472C28.1826 12.2353 28.2299 12.2259 28.2654 12.2188L28.4359 12.9716C28.3791 12.9929 28.2998 13.0142 28.198 13.0355C28.0962 13.0592 27.9672 13.071 27.8109 13.071C27.5742 13.071 27.3422 13.0201 27.1149 12.9183C26.89 12.8165 26.7029 12.6615 26.5538 12.4531C26.407 12.2448 26.3336 11.982 26.3336 11.6648V6.23864ZM29.5971 13V7.54545H30.4352V13H29.5971ZM30.0233 6.63636C29.8599 6.63636 29.719 6.58073 29.6007 6.46946C29.4847 6.35819 29.4267 6.22443 29.4267 6.06818C29.4267 5.91193 29.4847 5.77817 29.6007 5.6669C29.719 5.55563 29.8599 5.5 30.0233 5.5C30.1866 5.5 30.3263 5.55563 30.4423 5.6669C30.5607 5.77817 30.6199 5.91193 30.6199 6.06818C30.6199 6.22443 30.5607 6.35819 30.4423 6.46946C30.3263 6.58073 30.1866 6.63636 30.0233 6.63636ZM34.3991 7.54545V8.25568H31.4588V7.54545H34.3991ZM32.3395 13V6.79261C32.3395 6.48011 32.4129 6.2197 32.5597 6.01136C32.7064 5.80303 32.897 5.64678 33.1314 5.54261C33.3658 5.43845 33.6132 5.38636 33.8736 5.38636C34.0795 5.38636 34.2476 5.40294 34.3778 5.43608C34.508 5.46922 34.6051 5.5 34.669 5.52841L34.4276 6.25284C34.3849 6.23864 34.3258 6.22088 34.25 6.19957C34.1766 6.17827 34.0795 6.16761 33.9588 6.16761C33.6818 6.16761 33.4818 6.23745 33.3587 6.37713C33.2379 6.51681 33.1776 6.72159 33.1776 6.99148V13H32.3395Z" fill="#FCFDFE"/>
</svg>
