<svg width="59" height="18" viewBox="0 0 59 18" fill="none" xmlns="http://www.w3.org/2000/svg">
<rect x="0.5" y="0.5" width="58" height="17" rx="8.5" stroke="#3C6046"/>
<path d="M13.6477 5.72727V13H12.7955L8.83239 7.28977H8.76136V13H7.88068V5.72727H8.73295L12.7102 11.4517H12.7812V5.72727H13.6477ZM17.5123 13.1136C17.0198 13.1136 16.5878 12.9964 16.2161 12.7621C15.8468 12.5277 15.5579 12.1998 15.3496 11.7784C15.1436 11.357 15.0407 10.8646 15.0407 10.3011C15.0407 9.73295 15.1436 9.23698 15.3496 8.81321C15.5579 8.38944 15.8468 8.06037 16.2161 7.82599C16.5878 7.59162 17.0198 7.47443 17.5123 7.47443C18.0047 7.47443 18.4355 7.59162 18.8049 7.82599C19.1766 8.06037 19.4654 8.38944 19.6713 8.81321C19.8797 9.23698 19.9838 9.73295 19.9838 10.3011C19.9838 10.8646 19.8797 11.357 19.6713 11.7784C19.4654 12.1998 19.1766 12.5277 18.8049 12.7621C18.4355 12.9964 18.0047 13.1136 17.5123 13.1136ZM17.5123 12.3608C17.8863 12.3608 18.1941 12.2649 18.4355 12.0732C18.677 11.8814 18.8558 11.6293 18.9718 11.3168C19.0878 11.0043 19.1458 10.6657 19.1458 10.3011C19.1458 9.93655 19.0878 9.59683 18.9718 9.28196C18.8558 8.96709 18.677 8.71259 18.4355 8.51847C18.1941 8.32434 17.8863 8.22727 17.5123 8.22727C17.1382 8.22727 16.8304 8.32434 16.589 8.51847C16.3475 8.71259 16.1687 8.96709 16.0527 9.28196C15.9367 9.59683 15.8787 9.93655 15.8787 10.3011C15.8787 10.6657 15.9367 11.0043 16.0527 11.3168C16.1687 11.6293 16.3475 11.8814 16.589 12.0732C16.8304 12.2649 17.1382 12.3608 17.5123 12.3608ZM22.1012 9.71875V13H21.2631V7.54545H22.0728V8.39773H22.1438C22.2717 8.12074 22.4658 7.8982 22.7262 7.73011C22.9866 7.55966 23.3228 7.47443 23.7347 7.47443C24.104 7.47443 24.4272 7.55019 24.7042 7.7017C24.9812 7.85085 25.1966 8.07812 25.3505 8.38352C25.5044 8.68655 25.5813 9.07008 25.5813 9.53409V13H24.7433V9.59091C24.7433 9.16241 24.632 8.8286 24.4094 8.58949C24.1869 8.34801 23.8815 8.22727 23.4933 8.22727C23.2257 8.22727 22.9866 8.28527 22.7759 8.40128C22.5676 8.51728 22.4031 8.68655 22.2823 8.90909C22.1616 9.13163 22.1012 9.40152 22.1012 9.71875ZM30.2377 9.49148V10.2727H27.0559V9.49148H30.2377ZM33.3175 13.1278C32.9718 13.1278 32.6581 13.0627 32.3764 12.9325C32.0947 12.8 31.871 12.6094 31.7053 12.3608C31.5395 12.1098 31.4567 11.8068 31.4567 11.4517C31.4567 11.1392 31.5182 10.8859 31.6413 10.6918C31.7644 10.4953 31.929 10.3414 32.1349 10.2301C32.3409 10.1188 32.5682 10.036 32.8168 9.98153C33.0677 9.92472 33.3198 9.87973 33.5732 9.84659C33.9046 9.80398 34.1733 9.77202 34.3793 9.75071C34.5876 9.72704 34.7391 9.68797 34.8338 9.63352C34.9309 9.57907 34.9794 9.48437 34.9794 9.34943V9.32102C34.9794 8.97064 34.8835 8.69839 34.6918 8.50426C34.5024 8.31013 34.2147 8.21307 33.8288 8.21307C33.4287 8.21307 33.1151 8.30066 32.8878 8.47585C32.6605 8.65104 32.5007 8.83807 32.4084 9.03693L31.6129 8.75284C31.755 8.4214 31.9444 8.16335 32.1811 7.97869C32.4202 7.79167 32.6806 7.66146 32.9624 7.58807C33.2464 7.51231 33.5258 7.47443 33.8004 7.47443C33.9756 7.47443 34.1768 7.49574 34.4041 7.53835C34.6338 7.5786 34.8551 7.66264 35.0682 7.79048C35.2836 7.91832 35.4624 8.11127 35.6044 8.36932C35.7464 8.62737 35.8175 8.97301 35.8175 9.40625V13H34.9794V12.2614H34.9368C34.88 12.3797 34.7853 12.5064 34.6527 12.6413C34.5201 12.7763 34.3438 12.8911 34.1236 12.9858C33.9034 13.0805 33.6347 13.1278 33.3175 13.1278ZM33.4453 12.375C33.7768 12.375 34.0561 12.3099 34.2834 12.1797C34.513 12.0495 34.6858 11.8814 34.8018 11.6754C34.9202 11.4695 34.9794 11.2528 34.9794 11.0256V10.2585C34.9439 10.3011 34.8658 10.3402 34.745 10.3757C34.6267 10.4089 34.4893 10.4384 34.3331 10.4645C34.1792 10.4882 34.0289 10.5095 33.8821 10.5284C33.7377 10.545 33.6205 10.5592 33.5305 10.571C33.3127 10.5994 33.1091 10.6456 32.9197 10.7095C32.7327 10.7711 32.5812 10.8646 32.4652 10.9901C32.3516 11.1132 32.2947 11.2812 32.2947 11.4943C32.2947 11.7855 32.4025 12.0057 32.6179 12.1548C32.8357 12.3016 33.1115 12.375 33.4453 12.375ZM38.1284 11.0114L38.1142 9.97443H38.2846L40.671 7.54545H41.7079L39.1653 10.1165H39.0943L38.1284 11.0114ZM37.3471 13V5.72727H38.1852V13H37.3471ZM40.813 13L38.6824 10.3011L39.2789 9.71875L41.8784 13H40.813ZM45.1587 7.54545V8.25568H42.332V7.54545H45.1587ZM43.1559 6.23864H43.994V11.4375C43.994 11.6742 44.0283 11.8518 44.0969 11.9702C44.168 12.0862 44.2579 12.1643 44.3668 12.2045C44.4781 12.2424 44.5953 12.2614 44.7184 12.2614C44.8107 12.2614 44.8865 12.2566 44.9457 12.2472C45.0049 12.2353 45.0522 12.2259 45.0877 12.2188L45.2582 12.9716C45.2013 12.9929 45.122 13.0142 45.0202 13.0355C44.9184 13.0592 44.7894 13.071 44.6332 13.071C44.3964 13.071 44.1644 13.0201 43.9371 12.9183C43.7122 12.8165 43.5252 12.6615 43.3761 12.4531C43.2293 12.2448 43.1559 11.982 43.1559 11.6648V6.23864ZM46.4194 13V7.54545H47.2575V13H46.4194ZM46.8455 6.63636C46.6822 6.63636 46.5413 6.58073 46.4229 6.46946C46.3069 6.35819 46.2489 6.22443 46.2489 6.06818C46.2489 5.91193 46.3069 5.77817 46.4229 5.6669C46.5413 5.55563 46.6822 5.5 46.8455 5.5C47.0089 5.5 47.1486 5.55563 47.2646 5.6669C47.3829 5.77817 47.4421 5.91193 47.4421 6.06818C47.4421 6.22443 47.3829 6.35819 47.2646 6.46946C47.1486 6.58073 47.0089 6.63636 46.8455 6.63636ZM51.2214 7.54545V8.25568H48.2811V7.54545H51.2214ZM49.1618 13V6.79261C49.1618 6.48011 49.2351 6.2197 49.3819 6.01136C49.5287 5.80303 49.7193 5.64678 49.9537 5.54261C50.188 5.43845 50.4354 5.38636 50.6958 5.38636C50.9018 5.38636 51.0699 5.40294 51.2001 5.43608C51.3303 5.46922 51.4274 5.5 51.4913 5.52841L51.2498 6.25284C51.2072 6.23864 51.148 6.22088 51.0723 6.19957C50.9989 6.17827 50.9018 6.16761 50.7811 6.16761C50.5041 6.16761 50.304 6.23745 50.1809 6.37713C50.0602 6.51681 49.9998 6.72159 49.9998 6.99148V13H49.1618Z" fill="#3C6046"/>
</svg>
