<svg width="12" height="12" viewBox="0 0 12 12" fill="none" xmlns="http://www.w3.org/2000/svg">
<path fill-rule="evenodd" clip-rule="evenodd" d="M10.8456 0.723094C10.6123 0.489681 10.4098 0.336542 10.4098 0.336542L10.1428 0.174693C9.47658 -0.143699 8.65445 -0.0268701 8.10263 0.525179L1.76575 6.86465L5.14542 10.2457L11.4823 3.90623C12.0341 3.35418 12.1344 2.6687 11.8326 1.86522L10.8456 0.723094ZM8.95901 4.74003L5.14542 8.55518L3.45558 6.86465L7.26918 3.0495L8.95901 4.74003ZM10.0453 3.65326L10.6374 3.06097C10.8707 2.82756 10.8707 2.44912 10.6374 2.21571L9.79246 1.37044C9.55915 1.13703 9.18086 1.13703 8.94755 1.37044L8.3555 1.96273L10.0453 3.65326Z" fill="black"/>
<path d="M0 12L1.26761 7.35082L4.64705 10.7321L0 12Z" fill="black"/>
</svg>
