<svg width="36" height="36" viewBox="0 0 36 36" fill="none" xmlns="http://www.w3.org/2000/svg">
<path d="M10.5 21H19.5375C19.9625 21 20.3125 20.856 20.5875 20.568C20.8625 20.28 21 19.924 21 19.5C21 19.075 20.856 18.7185 20.568 18.4305C20.28 18.1425 19.924 17.999 19.5 18H10.4625C10.0375 18 9.6875 18.144 9.4125 18.432C9.1375 18.72 9 19.076 9 19.5C9 19.925 9.144 20.2815 9.432 20.5695C9.72 20.8575 10.076 21.001 10.5 21ZM10.5 16.5H25.5375C25.9625 16.5 26.3125 16.356 26.5875 16.068C26.8625 15.78 27 15.424 27 15C27 14.575 26.856 14.2185 26.568 13.9305C26.28 13.6425 25.924 13.499 25.5 13.5H10.4625C10.0375 13.5 9.6875 13.644 9.4125 13.932C9.1375 14.22 9 14.576 9 15C9 15.425 9.144 15.7815 9.432 16.0695C9.72 16.3575 10.076 16.501 10.5 16.5ZM10.5 12H25.5375C25.9625 12 26.3125 11.856 26.5875 11.568C26.8625 11.28 27 10.924 27 10.5C27 10.075 26.856 9.7185 26.568 9.4305C26.28 9.1425 25.924 8.999 25.5 9H10.4625C10.0375 9 9.6875 9.144 9.4125 9.432C9.1375 9.72 9 10.076 9 10.5C9 10.925 9.144 11.2815 9.432 11.5695C9.72 11.8575 10.076 12.001 10.5 12ZM3 29.3625V6C3 5.175 3.294 4.4685 3.882 3.8805C4.47 3.2925 5.176 2.999 6 3H30C30.825 3 31.5315 3.294 32.1195 3.882C32.7075 4.47 33.001 5.176 33 6V24C33 24.825 32.706 25.5315 32.118 26.1195C31.53 26.7075 30.824 27.001 30 27H9L5.55 30.45C5.075 30.925 4.531 31.0315 3.918 30.7695C3.305 30.5075 2.999 30.0385 3 29.3625ZM6 25.7625L7.7625 24H30V6H6V25.7625Z" fill="#3C6046"/>
</svg>
