<svg width="28" height="28" viewBox="0 0 28 28" fill="none" xmlns="http://www.w3.org/2000/svg">
<path d="M3.76923 28H1.61538C1.18696 28 0.776079 27.8525 0.473135 27.5899C0.170192 27.3274 0 26.9713 0 26.6V18.2C0 17.8287 0.170192 17.4726 0.473135 17.2101C0.776079 16.9475 1.18696 16.8 1.61538 16.8H3.76923C4.19766 16.8 4.60854 16.9475 4.91148 17.2101C5.21442 17.4726 5.38462 17.8287 5.38462 18.2V26.6C5.38462 26.9713 5.21442 27.3274 4.91148 27.5899C4.60854 27.8525 4.19766 28 3.76923 28ZM18.8462 28H16.6923C16.2639 28 15.853 27.8525 15.5501 27.5899C15.2471 27.3274 15.0769 26.9713 15.0769 26.6V12.6C15.0769 12.2287 15.2471 11.8726 15.5501 11.6101C15.853 11.3475 16.2639 11.2 16.6923 11.2H18.8462C19.2746 11.2 19.6855 11.3475 19.9884 11.6101C20.2913 11.8726 20.4615 12.2287 20.4615 12.6V26.6C20.4615 26.9713 20.2913 27.3274 19.9884 27.5899C19.6855 27.8525 19.2746 28 18.8462 28ZM26.3846 28H24.2308C23.8023 28 23.3915 27.8525 23.0885 27.5899C22.7856 27.3274 22.6154 26.9713 22.6154 26.6V6.06667C22.6154 5.69536 22.7856 5.33927 23.0885 5.07672C23.3915 4.81417 23.8023 4.66667 24.2308 4.66667H26.3846C26.813 4.66667 27.2239 4.81417 27.5269 5.07672C27.8298 5.33927 28 5.69536 28 6.06667V26.6C28 26.9713 27.8298 27.3274 27.5269 27.5899C27.2239 27.8525 26.813 28 26.3846 28ZM11.3077 28H9.15385C8.72542 28 8.31454 27.8525 8.0116 27.5899C7.70865 27.3274 7.53846 26.9713 7.53846 26.6V1.4C7.53846 1.0287 7.70865 0.672601 8.0116 0.410051C8.31454 0.1475 8.72542 0 9.15385 0H11.3077C11.7361 0 12.147 0.1475 12.4499 0.410051C12.7529 0.672601 12.9231 1.0287 12.9231 1.4V26.6C12.9231 26.9713 12.7529 27.3274 12.4499 27.5899C12.147 27.8525 11.7361 28 11.3077 28Z" fill="#3C6046"/>
</svg>
