<svg width="28" height="28" viewBox="0 0 28 28" fill="none" xmlns="http://www.w3.org/2000/svg">
<path d="M3.11111 28C2.25556 28 1.52289 27.6951 0.913113 27.0853C0.303336 26.4756 -0.0010344 25.7434 2.64101e-06 24.8889V3.11111C2.64101e-06 2.25556 0.304892 1.52289 0.914669 0.913113C1.52445 0.303336 2.25659 -0.0010344 3.11111 2.64101e-06H24.8889C25.7444 2.64101e-06 26.4771 0.304892 27.0869 0.914669C27.6967 1.52445 28.001 2.25659 28 3.11111V24.8889C28 25.7444 27.6951 26.4771 27.0853 27.0869C26.4756 27.6967 25.7434 28.001 24.8889 28H3.11111ZM3.11111 24.8889H24.8889V3.11111H3.11111V24.8889ZM7.77778 21.7778C8.21852 21.7778 8.58822 21.6284 8.88689 21.3298C9.18556 21.0311 9.33437 20.6619 9.33333 20.2222C9.33333 19.7815 9.184 19.4118 8.88533 19.1131C8.58667 18.8144 8.21748 18.6656 7.77778 18.6667C7.33704 18.6667 6.96734 18.816 6.66867 19.1147C6.37 19.4133 6.22119 19.7825 6.22222 20.2222C6.22222 20.663 6.37156 21.0327 6.67022 21.3313C6.96889 21.63 7.33808 21.7788 7.77778 21.7778ZM7.77778 15.5556C8.21852 15.5556 8.58822 15.4062 8.88689 15.1076C9.18556 14.8089 9.33437 14.4397 9.33333 14C9.33333 13.5593 9.184 13.1896 8.88533 12.8909C8.58667 12.5922 8.21748 12.4434 7.77778 12.4444C7.33704 12.4444 6.96734 12.5938 6.66867 12.8924C6.37 13.1911 6.22119 13.5603 6.22222 14C6.22222 14.4407 6.37156 14.8104 6.67022 15.1091C6.96889 15.4078 7.33808 15.5566 7.77778 15.5556ZM7.77778 9.33333C8.21852 9.33333 8.58822 9.184 8.88689 8.88533C9.18556 8.58667 9.33437 8.21748 9.33333 7.77778C9.33333 7.33704 9.184 6.96734 8.88533 6.66867C8.58667 6.37 8.21748 6.22119 7.77778 6.22222C7.33704 6.22222 6.96734 6.37156 6.66867 6.67022C6.37 6.96889 6.22119 7.33808 6.22222 7.77778C6.22222 8.21852 6.37156 8.58822 6.67022 8.88689C6.96889 9.18556 7.33808 9.33437 7.77778 9.33333ZM14 21.7778H20.2222C20.663 21.7778 21.0327 21.6284 21.3313 21.3298C21.63 21.0311 21.7788 20.6619 21.7778 20.2222C21.7778 19.7815 21.6284 19.4118 21.3298 19.1131C21.0311 18.8144 20.6619 18.6656 20.2222 18.6667H14C13.5593 18.6667 13.1896 18.816 12.8909 19.1147C12.5922 19.4133 12.4434 19.7825 12.4444 20.2222C12.4444 20.663 12.5938 21.0327 12.8924 21.3313C13.1911 21.63 13.5603 21.7788 14 21.7778ZM14 15.5556H20.2222C20.663 15.5556 21.0327 15.4062 21.3313 15.1076C21.63 14.8089 21.7788 14.4397 21.7778 14C21.7778 13.5593 21.6284 13.1896 21.3298 12.8909C21.0311 12.5922 20.6619 12.4434 20.2222 12.4444H14C13.5593 12.4444 13.1896 12.5938 12.8909 12.8924C12.5922 13.1911 12.4434 13.5603 12.4444 14C12.4444 14.4407 12.5938 14.8104 12.8924 15.1091C13.1911 15.4078 13.5603 15.5566 14 15.5556ZM14 9.33333H20.2222C20.663 9.33333 21.0327 9.184 21.3313 8.88533C21.63 8.58667 21.7788 8.21748 21.7778 7.77778C21.7778 7.33704 21.6284 6.96734 21.3298 6.66867C21.0311 6.37 20.6619 6.22119 20.2222 6.22222H14C13.5593 6.22222 13.1896 6.37156 12.8909 6.67022C12.5922 6.96889 12.4434 7.33808 12.4444 7.77778C12.4444 8.21852 12.5938 8.58822 12.8924 8.88689C13.1911 9.18556 13.5603 9.33437 14 9.33333Z" fill="#3C6046"/>
</svg>
