<svg width="344" height="154" viewBox="0 0 344 154" fill="none" xmlns="http://www.w3.org/2000/svg">
<g filter="url(#filter0_d_1083_1218)">
<rect x="4" width="336" height="146" rx="20" fill="#FCFDFE"/>
</g>
<path d="M27.0078 23.9609C27.0078 24.638 26.8385 25.2161 26.5 25.6953C26.1667 26.1693 25.6979 26.5312 25.0938 26.7812C24.4896 27.0312 23.7786 27.1562 22.9609 27.1562C22.5286 27.1562 22.1198 27.1354 21.7344 27.0938C21.349 27.0521 20.9948 26.9922 20.6719 26.9141C20.349 26.8359 20.0651 26.7396 19.8203 26.625V25.3516C20.2109 25.513 20.6875 25.6641 21.25 25.8047C21.8125 25.9401 22.401 26.0078 23.0156 26.0078C23.5885 26.0078 24.0729 25.9323 24.4688 25.7812C24.8646 25.625 25.1641 25.4036 25.3672 25.1172C25.5755 24.8255 25.6797 24.4766 25.6797 24.0703C25.6797 23.6797 25.5938 23.3542 25.4219 23.0938C25.25 22.8281 24.9635 22.5885 24.5625 22.375C24.1667 22.1562 23.625 21.9245 22.9375 21.6797C22.4531 21.5078 22.026 21.3203 21.6562 21.1172C21.2865 20.9089 20.9766 20.6745 20.7266 20.4141C20.4766 20.1536 20.2865 19.8516 20.1562 19.5078C20.0312 19.1641 19.9688 18.7708 19.9688 18.3281C19.9688 17.7188 20.1224 17.1979 20.4297 16.7656C20.7422 16.3281 21.1719 15.9948 21.7188 15.7656C22.2708 15.5312 22.9036 15.4141 23.6172 15.4141C24.2266 15.4141 24.7891 15.4714 25.3047 15.5859C25.8255 15.7005 26.3021 15.8542 26.7344 16.0469L26.3203 17.1875C25.9089 17.0156 25.4714 16.8724 25.0078 16.7578C24.5495 16.6432 24.0755 16.5859 23.5859 16.5859C23.0964 16.5859 22.6823 16.6589 22.3438 16.8047C22.0104 16.9453 21.7552 17.1458 21.5781 17.4062C21.401 17.6667 21.3125 17.9766 21.3125 18.3359C21.3125 18.737 21.3958 19.0703 21.5625 19.3359C21.7344 19.6016 22.0052 19.8385 22.375 20.0469C22.75 20.25 23.2448 20.4635 23.8594 20.6875C24.5312 20.9323 25.1016 21.1927 25.5703 21.4688C26.0391 21.7396 26.3958 22.0729 26.6406 22.4688C26.8854 22.8594 27.0078 23.3568 27.0078 23.9609ZM31.9141 26.0938C32.1276 26.0938 32.3464 26.0755 32.5703 26.0391C32.7943 26.0026 32.9766 25.9583 33.1172 25.9062V26.9141C32.9661 26.9818 32.7552 27.0391 32.4844 27.0859C32.2188 27.1328 31.9583 27.1562 31.7031 27.1562C31.25 27.1562 30.8385 27.0781 30.4688 26.9219C30.099 26.7604 29.8021 26.4896 29.5781 26.1094C29.3594 25.7292 29.25 25.2031 29.25 24.5312V19.4531H28.0312V18.8203L29.2578 18.3125L29.7734 16.4531H30.5547V18.4375H33.0625V19.4531H30.5547V24.4922C30.5547 25.0286 30.6771 25.4297 30.9219 25.6953C31.1719 25.9609 31.5026 26.0938 31.9141 26.0938ZM38.0547 18.2969C39.0755 18.2969 39.8333 18.526 40.3281 18.9844C40.8229 19.4427 41.0703 20.1745 41.0703 21.1797V27H40.125L39.875 25.7344H39.8125C39.5729 26.0469 39.3229 26.3099 39.0625 26.5234C38.8021 26.7318 38.5 26.8906 38.1562 27C37.8177 27.1042 37.401 27.1562 36.9062 27.1562C36.3854 27.1562 35.9219 27.0651 35.5156 26.8828C35.1146 26.7005 34.7969 26.4245 34.5625 26.0547C34.3333 25.6849 34.2188 25.2161 34.2188 24.6484C34.2188 23.7943 34.5573 23.138 35.2344 22.6797C35.9115 22.2214 36.9427 21.9714 38.3281 21.9297L39.8047 21.8672V21.3438C39.8047 20.6042 39.6458 20.0859 39.3281 19.7891C39.0104 19.4922 38.5625 19.3438 37.9844 19.3438C37.5365 19.3438 37.1094 19.4089 36.7031 19.5391C36.2969 19.6693 35.9115 19.8229 35.5469 20L35.1484 19.0156C35.5339 18.8177 35.9766 18.6484 36.4766 18.5078C36.9766 18.3672 37.5026 18.2969 38.0547 18.2969ZM39.7891 22.7812L38.4844 22.8359C37.4167 22.8776 36.6641 23.0521 36.2266 23.3594C35.7891 23.6667 35.5703 24.1016 35.5703 24.6641C35.5703 25.1536 35.7188 25.5156 36.0156 25.75C36.3125 25.9844 36.7057 26.1016 37.1953 26.1016C37.9557 26.1016 38.5781 25.8906 39.0625 25.4688C39.5469 25.0469 39.7891 24.4141 39.7891 23.5703V22.7812ZM46.5078 26.0938C46.7214 26.0938 46.9401 26.0755 47.1641 26.0391C47.388 26.0026 47.5703 25.9583 47.7109 25.9062V26.9141C47.5599 26.9818 47.349 27.0391 47.0781 27.0859C46.8125 27.1328 46.5521 27.1562 46.2969 27.1562C45.8438 27.1562 45.4323 27.0781 45.0625 26.9219C44.6927 26.7604 44.3958 26.4896 44.1719 26.1094C43.9531 25.7292 43.8438 25.2031 43.8438 24.5312V19.4531H42.625V18.8203L43.8516 18.3125L44.3672 16.4531H45.1484V18.4375H47.6562V19.4531H45.1484V24.4922C45.1484 25.0286 45.2708 25.4297 45.5156 25.6953C45.7656 25.9609 46.0964 26.0938 46.5078 26.0938ZM50.7422 18.4375V27H49.4453V18.4375H50.7422ZM50.1094 15.2344C50.3229 15.2344 50.5052 15.3047 50.6562 15.4453C50.8125 15.5807 50.8906 15.7943 50.8906 16.0859C50.8906 16.3724 50.8125 16.5859 50.6562 16.7266C50.5052 16.8672 50.3229 16.9375 50.1094 16.9375C49.8854 16.9375 49.6979 16.8672 49.5469 16.7266C49.401 16.5859 49.3281 16.3724 49.3281 16.0859C49.3281 15.7943 49.401 15.5807 49.5469 15.4453C49.6979 15.3047 49.8854 15.2344 50.1094 15.2344ZM59.0312 24.6562C59.0312 25.2031 58.8932 25.6641 58.6172 26.0391C58.3464 26.4089 57.9557 26.6875 57.4453 26.875C56.9401 27.0625 56.3359 27.1562 55.6328 27.1562C55.0339 27.1562 54.5156 27.1094 54.0781 27.0156C53.6406 26.9219 53.2578 26.7891 52.9297 26.6172V25.4219C53.2786 25.5938 53.6953 25.75 54.1797 25.8906C54.6641 26.0312 55.1589 26.1016 55.6641 26.1016C56.4036 26.1016 56.9401 25.9818 57.2734 25.7422C57.6068 25.5026 57.7734 25.1771 57.7734 24.7656C57.7734 24.5312 57.7057 24.3255 57.5703 24.1484C57.4401 23.9661 57.2188 23.7917 56.9062 23.625C56.5938 23.4531 56.1615 23.2656 55.6094 23.0625C55.0625 22.8542 54.5885 22.6484 54.1875 22.4453C53.7917 22.237 53.4844 21.9844 53.2656 21.6875C53.0521 21.3906 52.9453 21.0052 52.9453 20.5312C52.9453 19.8073 53.237 19.2526 53.8203 18.8672C54.4089 18.4766 55.1797 18.2812 56.1328 18.2812C56.6484 18.2812 57.1302 18.3333 57.5781 18.4375C58.0312 18.5365 58.4531 18.6719 58.8438 18.8438L58.4062 19.8828C58.0521 19.7318 57.6745 19.6042 57.2734 19.5C56.8724 19.3958 56.4635 19.3438 56.0469 19.3438C55.4479 19.3438 54.987 19.4427 54.6641 19.6406C54.3464 19.8385 54.1875 20.1094 54.1875 20.4531C54.1875 20.7188 54.2604 20.9375 54.4062 21.1094C54.5573 21.2812 54.7969 21.4427 55.125 21.5938C55.4531 21.7448 55.8854 21.9219 56.4219 22.125C56.9583 22.3229 57.4219 22.5286 57.8125 22.7422C58.2031 22.9505 58.5026 23.2057 58.7109 23.5078C58.9245 23.8047 59.0312 24.1875 59.0312 24.6562ZM63.8828 26.0938C64.0964 26.0938 64.3151 26.0755 64.5391 26.0391C64.763 26.0026 64.9453 25.9583 65.0859 25.9062V26.9141C64.9349 26.9818 64.724 27.0391 64.4531 27.0859C64.1875 27.1328 63.9271 27.1562 63.6719 27.1562C63.2188 27.1562 62.8073 27.0781 62.4375 26.9219C62.0677 26.7604 61.7708 26.4896 61.5469 26.1094C61.3281 25.7292 61.2188 25.2031 61.2188 24.5312V19.4531H60V18.8203L61.2266 18.3125L61.7422 16.4531H62.5234V18.4375H65.0312V19.4531H62.5234V24.4922C62.5234 25.0286 62.6458 25.4297 62.8906 25.6953C63.1406 25.9609 63.4714 26.0938 63.8828 26.0938ZM68.1172 18.4375V27H66.8203V18.4375H68.1172ZM67.4844 15.2344C67.6979 15.2344 67.8802 15.3047 68.0312 15.4453C68.1875 15.5807 68.2656 15.7943 68.2656 16.0859C68.2656 16.3724 68.1875 16.5859 68.0312 16.7266C67.8802 16.8672 67.6979 16.9375 67.4844 16.9375C67.2604 16.9375 67.0729 16.8672 66.9219 16.7266C66.776 16.5859 66.7031 16.3724 66.7031 16.0859C66.7031 15.7943 66.776 15.5807 66.9219 15.4453C67.0729 15.3047 67.2604 15.2344 67.4844 15.2344ZM72.1562 14.8438V21.1562C72.1562 21.3646 72.1484 21.6198 72.1328 21.9219C72.1172 22.2188 72.1042 22.4818 72.0938 22.7109H72.1484C72.2578 22.5755 72.4167 22.375 72.625 22.1094C72.8385 21.8438 73.0182 21.6302 73.1641 21.4688L76.0078 18.4375H77.5312L74.0859 22.0938L77.7812 27H76.2188L73.1953 22.9453L72.1562 23.8984V27H70.8672V14.8438H72.1562ZM84.7266 14.8438V18.4766C84.7266 18.6849 84.7214 18.8958 84.7109 19.1094C84.7005 19.3177 84.6823 19.5104 84.6562 19.6875H84.7422C84.9193 19.3854 85.1432 19.1328 85.4141 18.9297C85.6901 18.7214 86.0026 18.5651 86.3516 18.4609C86.7005 18.3516 87.0703 18.2969 87.4609 18.2969C88.1484 18.2969 88.7214 18.4062 89.1797 18.625C89.6432 18.8438 89.9896 19.1823 90.2188 19.6406C90.4531 20.099 90.5703 20.6927 90.5703 21.4219V27H89.2891V21.5078C89.2891 20.7943 89.125 20.2604 88.7969 19.9062C88.474 19.5521 87.9766 19.375 87.3047 19.375C86.6693 19.375 86.1615 19.4974 85.7812 19.7422C85.4062 19.9818 85.1354 20.3359 84.9688 20.8047C84.8073 21.2734 84.7266 21.8464 84.7266 22.5234V27H83.4297V14.8438H84.7266ZM96.4453 18.2969C97.4661 18.2969 98.224 18.526 98.7188 18.9844C99.2135 19.4427 99.4609 20.1745 99.4609 21.1797V27H98.5156L98.2656 25.7344H98.2031C97.9635 26.0469 97.7135 26.3099 97.4531 26.5234C97.1927 26.7318 96.8906 26.8906 96.5469 27C96.2083 27.1042 95.7917 27.1562 95.2969 27.1562C94.776 27.1562 94.3125 27.0651 93.9062 26.8828C93.5052 26.7005 93.1875 26.4245 92.9531 26.0547C92.724 25.6849 92.6094 25.2161 92.6094 24.6484C92.6094 23.7943 92.9479 23.138 93.625 22.6797C94.3021 22.2214 95.3333 21.9714 96.7188 21.9297L98.1953 21.8672V21.3438C98.1953 20.6042 98.0365 20.0859 97.7188 19.7891C97.401 19.4922 96.9531 19.3438 96.375 19.3438C95.9271 19.3438 95.5 19.4089 95.0938 19.5391C94.6875 19.6693 94.3021 19.8229 93.9375 20L93.5391 19.0156C93.9245 18.8177 94.3672 18.6484 94.8672 18.5078C95.3672 18.3672 95.8932 18.2969 96.4453 18.2969ZM98.1797 22.7812L96.875 22.8359C95.8073 22.8776 95.0547 23.0521 94.6172 23.3594C94.1797 23.6667 93.9609 24.1016 93.9609 24.6641C93.9609 25.1536 94.1094 25.5156 94.4062 25.75C94.7031 25.9844 95.0964 26.1016 95.5859 26.1016C96.3464 26.1016 96.9688 25.8906 97.4531 25.4688C97.9375 25.0469 98.1797 24.4141 98.1797 23.5703V22.7812ZM106.023 18.2812C106.195 18.2812 106.375 18.2917 106.562 18.3125C106.75 18.3281 106.917 18.3516 107.062 18.3828L106.898 19.5859C106.758 19.5495 106.602 19.5208 106.43 19.5C106.258 19.4792 106.096 19.4688 105.945 19.4688C105.602 19.4688 105.276 19.5391 104.969 19.6797C104.667 19.8151 104.401 20.013 104.172 20.2734C103.943 20.5286 103.763 20.8385 103.633 21.2031C103.503 21.5625 103.438 21.9635 103.438 22.4062V27H102.133V18.4375H103.211L103.352 20.0156H103.406C103.583 19.6979 103.797 19.4089 104.047 19.1484C104.297 18.8828 104.586 18.6719 104.914 18.5156C105.247 18.3594 105.617 18.2812 106.023 18.2812ZM109.977 18.4375V27H108.68V18.4375H109.977ZM109.344 15.2344C109.557 15.2344 109.74 15.3047 109.891 15.4453C110.047 15.5807 110.125 15.7943 110.125 16.0859C110.125 16.3724 110.047 16.5859 109.891 16.7266C109.74 16.8672 109.557 16.9375 109.344 16.9375C109.12 16.9375 108.932 16.8672 108.781 16.7266C108.635 16.5859 108.562 16.3724 108.562 16.0859C108.562 15.7943 108.635 15.5807 108.781 15.4453C108.932 15.3047 109.12 15.2344 109.344 15.2344ZM118.18 18.4375V27H116.883V18.4375H118.18ZM117.547 15.2344C117.76 15.2344 117.943 15.3047 118.094 15.4453C118.25 15.5807 118.328 15.7943 118.328 16.0859C118.328 16.3724 118.25 16.5859 118.094 16.7266C117.943 16.8672 117.76 16.9375 117.547 16.9375C117.323 16.9375 117.135 16.8672 116.984 16.7266C116.839 16.5859 116.766 16.3724 116.766 16.0859C116.766 15.7943 116.839 15.5807 116.984 15.4453C117.135 15.3047 117.323 15.2344 117.547 15.2344ZM124.984 18.2812C126 18.2812 126.768 18.5312 127.289 19.0312C127.81 19.526 128.07 20.3229 128.07 21.4219V27H126.789V21.5078C126.789 20.7943 126.625 20.2604 126.297 19.9062C125.974 19.5521 125.477 19.375 124.805 19.375C123.857 19.375 123.19 19.6432 122.805 20.1797C122.419 20.7161 122.227 21.4948 122.227 22.5156V27H120.93V18.4375H121.977L122.172 19.6719H122.242C122.424 19.3698 122.656 19.1172 122.938 18.9141C123.219 18.7057 123.534 18.5495 123.883 18.4453C124.232 18.3359 124.599 18.2812 124.984 18.2812ZM132.039 18.4375V27H130.742V18.4375H132.039ZM131.406 15.2344C131.62 15.2344 131.802 15.3047 131.953 15.4453C132.109 15.5807 132.188 15.7943 132.188 16.0859C132.188 16.3724 132.109 16.5859 131.953 16.7266C131.802 16.8672 131.62 16.9375 131.406 16.9375C131.182 16.9375 130.995 16.8672 130.844 16.7266C130.698 16.5859 130.625 16.3724 130.625 16.0859C130.625 15.7943 130.698 15.5807 130.844 15.4453C130.995 15.3047 131.182 15.2344 131.406 15.2344Z" fill="#2B4535"/>
<path d="M138.602 43.7051C138.602 44.3652 138.518 44.9668 138.35 45.5098C138.182 46.0488 137.932 46.5137 137.6 46.9043C137.271 47.291 136.863 47.5898 136.375 47.8008C135.887 48.0117 135.32 48.1172 134.676 48.1172C134.012 48.1172 133.432 48.0117 132.936 47.8008C132.443 47.5898 132.033 47.2891 131.705 46.8984C131.381 46.5078 131.137 46.041 130.973 45.498C130.812 44.9551 130.732 44.3535 130.732 43.6934C130.732 42.8184 130.877 42.0508 131.166 41.3906C131.455 40.7305 131.893 40.2168 132.479 39.8496C133.068 39.4824 133.807 39.2988 134.693 39.2988C135.541 39.2988 136.254 39.4805 136.832 39.8438C137.414 40.207 137.854 40.7188 138.15 41.3789C138.451 42.0352 138.602 42.8105 138.602 43.7051ZM131.781 43.7051C131.781 44.4316 131.885 45.0605 132.092 45.5918C132.299 46.123 132.615 46.5332 133.041 46.8223C133.471 47.1113 134.016 47.2559 134.676 47.2559C135.34 47.2559 135.883 47.1113 136.305 46.8223C136.73 46.5332 137.045 46.123 137.248 45.5918C137.451 45.0605 137.553 44.4316 137.553 43.7051C137.553 42.5996 137.32 41.7363 136.855 41.1152C136.395 40.4902 135.674 40.1777 134.693 40.1777C134.029 40.1777 133.482 40.3203 133.053 40.6055C132.623 40.8906 132.303 41.2969 132.092 41.8242C131.885 42.3477 131.781 42.9746 131.781 43.7051ZM143.283 41.4609C143.412 41.4609 143.547 41.4688 143.688 41.4844C143.828 41.4961 143.953 41.5137 144.062 41.5371L143.939 42.4395C143.834 42.4121 143.717 42.3906 143.588 42.375C143.459 42.3594 143.338 42.3516 143.225 42.3516C142.967 42.3516 142.723 42.4043 142.492 42.5098C142.266 42.6113 142.066 42.7598 141.895 42.9551C141.723 43.1465 141.588 43.3789 141.49 43.6523C141.393 43.9219 141.344 44.2227 141.344 44.5547V48H140.365V41.5781H141.174L141.279 42.7617H141.32C141.453 42.5234 141.613 42.3066 141.801 42.1113C141.988 41.9121 142.205 41.7539 142.451 41.6367C142.701 41.5195 142.979 41.4609 143.283 41.4609ZM147.561 48.1172C146.748 48.1172 146.104 47.8398 145.627 47.2852C145.154 46.7305 144.918 45.9062 144.918 44.8125C144.918 43.707 145.16 42.873 145.645 42.3105C146.129 41.7441 146.773 41.4609 147.578 41.4609C147.918 41.4609 148.215 41.5059 148.469 41.5957C148.723 41.6855 148.941 41.8066 149.125 41.959C149.309 42.1074 149.463 42.2773 149.588 42.4688H149.658C149.643 42.3477 149.627 42.1816 149.611 41.9707C149.596 41.7598 149.588 41.5879 149.588 41.4551V38.8828H150.561V48H149.775L149.629 47.0859H149.588C149.467 47.2773 149.312 47.4512 149.125 47.6074C148.941 47.7637 148.721 47.8887 148.463 47.9824C148.209 48.0723 147.908 48.1172 147.561 48.1172ZM147.713 47.3086C148.4 47.3086 148.887 47.1133 149.172 46.7227C149.457 46.332 149.6 45.752 149.6 44.9824V44.8066C149.6 43.9902 149.463 43.3633 149.189 42.9258C148.92 42.4883 148.428 42.2695 147.713 42.2695C147.115 42.2695 146.668 42.5 146.371 42.9609C146.074 43.418 145.926 44.043 145.926 44.8359C145.926 45.625 146.072 46.2344 146.365 46.6641C146.662 47.0938 147.111 47.3086 147.713 47.3086ZM155.096 41.4609C155.643 41.4609 156.111 41.582 156.502 41.8242C156.893 42.0664 157.191 42.4062 157.398 42.8438C157.605 43.2773 157.709 43.7852 157.709 44.3672V44.9707H153.273C153.285 45.7246 153.473 46.2988 153.836 46.6934C154.199 47.0879 154.711 47.2852 155.371 47.2852C155.777 47.2852 156.137 47.248 156.449 47.1738C156.762 47.0996 157.086 46.9902 157.422 46.8457V47.7012C157.098 47.8457 156.775 47.9512 156.455 48.0176C156.139 48.084 155.764 48.1172 155.33 48.1172C154.713 48.1172 154.174 47.9922 153.713 47.7422C153.256 47.4883 152.9 47.1172 152.646 46.6289C152.393 46.1406 152.266 45.543 152.266 44.8359C152.266 44.1445 152.381 43.5469 152.611 43.043C152.846 42.5352 153.174 42.1445 153.596 41.8711C154.021 41.5977 154.521 41.4609 155.096 41.4609ZM155.084 42.2578C154.564 42.2578 154.15 42.4277 153.842 42.7676C153.533 43.1074 153.35 43.582 153.291 44.1914H156.689C156.686 43.8086 156.625 43.4727 156.508 43.1836C156.395 42.8906 156.221 42.6641 155.986 42.5039C155.752 42.3398 155.451 42.2578 155.084 42.2578ZM162.279 41.4609C162.408 41.4609 162.543 41.4688 162.684 41.4844C162.824 41.4961 162.949 41.5137 163.059 41.5371L162.936 42.4395C162.83 42.4121 162.713 42.3906 162.584 42.375C162.455 42.3594 162.334 42.3516 162.221 42.3516C161.963 42.3516 161.719 42.4043 161.488 42.5098C161.262 42.6113 161.062 42.7598 160.891 42.9551C160.719 43.1465 160.584 43.3789 160.486 43.6523C160.389 43.9219 160.34 44.2227 160.34 44.5547V48H159.361V41.5781H160.17L160.275 42.7617H160.316C160.449 42.5234 160.609 42.3066 160.797 42.1113C160.984 41.9121 161.201 41.7539 161.447 41.6367C161.697 41.5195 161.975 41.4609 162.279 41.4609ZM169.674 48.1172C168.861 48.1172 168.217 47.8398 167.74 47.2852C167.268 46.7305 167.031 45.9062 167.031 44.8125C167.031 43.707 167.273 42.873 167.758 42.3105C168.242 41.7441 168.887 41.4609 169.691 41.4609C170.031 41.4609 170.328 41.5059 170.582 41.5957C170.836 41.6855 171.055 41.8066 171.238 41.959C171.422 42.1074 171.576 42.2773 171.701 42.4688H171.771C171.756 42.3477 171.74 42.1816 171.725 41.9707C171.709 41.7598 171.701 41.5879 171.701 41.4551V38.8828H172.674V48H171.889L171.742 47.0859H171.701C171.58 47.2773 171.426 47.4512 171.238 47.6074C171.055 47.7637 170.834 47.8887 170.576 47.9824C170.322 48.0723 170.021 48.1172 169.674 48.1172ZM169.826 47.3086C170.514 47.3086 171 47.1133 171.285 46.7227C171.57 46.332 171.713 45.752 171.713 44.9824V44.8066C171.713 43.9902 171.576 43.3633 171.303 42.9258C171.033 42.4883 170.541 42.2695 169.826 42.2695C169.229 42.2695 168.781 42.5 168.484 42.9609C168.188 43.418 168.039 44.043 168.039 44.8359C168.039 45.625 168.186 46.2344 168.479 46.6641C168.775 47.0938 169.225 47.3086 169.826 47.3086ZM175.709 41.5781V48H174.736V41.5781H175.709ZM175.234 39.1758C175.395 39.1758 175.531 39.2285 175.645 39.334C175.762 39.4355 175.82 39.5957 175.82 39.8145C175.82 40.0293 175.762 40.1895 175.645 40.2949C175.531 40.4004 175.395 40.4531 175.234 40.4531C175.066 40.4531 174.926 40.4004 174.812 40.2949C174.703 40.1895 174.648 40.0293 174.648 39.8145C174.648 39.5957 174.703 39.4355 174.812 39.334C174.926 39.2285 175.066 39.1758 175.234 39.1758ZM179.846 47.3203C180.006 47.3203 180.17 47.3066 180.338 47.2793C180.506 47.252 180.643 47.2188 180.748 47.1797V47.9355C180.635 47.9863 180.477 48.0293 180.273 48.0645C180.074 48.0996 179.879 48.1172 179.688 48.1172C179.348 48.1172 179.039 48.0586 178.762 47.9414C178.484 47.8203 178.262 47.6172 178.094 47.332C177.93 47.0469 177.848 46.6523 177.848 46.1484V42.3398H176.934V41.8652L177.854 41.4844L178.24 40.0898H178.826V41.5781H180.707V42.3398H178.826V46.1191C178.826 46.5215 178.918 46.8223 179.102 47.0215C179.289 47.2207 179.537 47.3203 179.846 47.3203ZM184.521 41.4609C185.068 41.4609 185.537 41.582 185.928 41.8242C186.318 42.0664 186.617 42.4062 186.824 42.8438C187.031 43.2773 187.135 43.7852 187.135 44.3672V44.9707H182.699C182.711 45.7246 182.898 46.2988 183.262 46.6934C183.625 47.0879 184.137 47.2852 184.797 47.2852C185.203 47.2852 185.562 47.248 185.875 47.1738C186.188 47.0996 186.512 46.9902 186.848 46.8457V47.7012C186.523 47.8457 186.201 47.9512 185.881 48.0176C185.564 48.084 185.189 48.1172 184.756 48.1172C184.139 48.1172 183.6 47.9922 183.139 47.7422C182.682 47.4883 182.326 47.1172 182.072 46.6289C181.818 46.1406 181.691 45.543 181.691 44.8359C181.691 44.1445 181.807 43.5469 182.037 43.043C182.271 42.5352 182.6 42.1445 183.021 41.8711C183.447 41.5977 183.947 41.4609 184.521 41.4609ZM184.51 42.2578C183.99 42.2578 183.576 42.4277 183.268 42.7676C182.959 43.1074 182.775 43.582 182.717 44.1914H186.115C186.111 43.8086 186.051 43.4727 185.934 43.1836C185.82 42.8906 185.646 42.6641 185.412 42.5039C185.178 42.3398 184.877 42.2578 184.51 42.2578ZM191.705 41.4609C191.834 41.4609 191.969 41.4688 192.109 41.4844C192.25 41.4961 192.375 41.5137 192.484 41.5371L192.361 42.4395C192.256 42.4121 192.139 42.3906 192.01 42.375C191.881 42.3594 191.76 42.3516 191.646 42.3516C191.389 42.3516 191.145 42.4043 190.914 42.5098C190.688 42.6113 190.488 42.7598 190.316 42.9551C190.145 43.1465 190.01 43.3789 189.912 43.6523C189.814 43.9219 189.766 44.2227 189.766 44.5547V48H188.787V41.5781H189.596L189.701 42.7617H189.742C189.875 42.5234 190.035 42.3066 190.223 42.1113C190.41 41.9121 190.627 41.7539 190.873 41.6367C191.123 41.5195 191.4 41.4609 191.705 41.4609ZM194.67 41.5781V48H193.697V41.5781H194.67ZM194.195 39.1758C194.355 39.1758 194.492 39.2285 194.605 39.334C194.723 39.4355 194.781 39.5957 194.781 39.8145C194.781 40.0293 194.723 40.1895 194.605 40.2949C194.492 40.4004 194.355 40.4531 194.195 40.4531C194.027 40.4531 193.887 40.4004 193.773 40.2949C193.664 40.1895 193.609 40.0293 193.609 39.8145C193.609 39.5957 193.664 39.4355 193.773 39.334C193.887 39.2285 194.027 39.1758 194.195 39.1758ZM203.705 41.4609C204.412 41.4609 204.945 41.6465 205.305 42.0176C205.664 42.3848 205.844 42.9766 205.844 43.793V48H204.883V43.8398C204.883 43.3203 204.77 42.9316 204.543 42.6738C204.32 42.4121 203.988 42.2812 203.547 42.2812C202.926 42.2812 202.475 42.4609 202.193 42.8203C201.912 43.1797 201.771 43.709 201.771 44.4082V48H200.805V43.8398C200.805 43.4922 200.754 43.2031 200.652 42.9727C200.555 42.7422 200.406 42.5703 200.207 42.457C200.012 42.3398 199.764 42.2812 199.463 42.2812C199.037 42.2812 198.695 42.3691 198.438 42.5449C198.18 42.7207 197.992 42.9824 197.875 43.3301C197.762 43.6738 197.705 44.0977 197.705 44.6016V48H196.732V41.5781H197.518L197.664 42.4863H197.717C197.846 42.2637 198.008 42.0762 198.203 41.9238C198.398 41.7715 198.617 41.6562 198.859 41.5781C199.102 41.5 199.359 41.4609 199.633 41.4609C200.121 41.4609 200.529 41.5527 200.857 41.7363C201.189 41.916 201.43 42.1914 201.578 42.5625H201.631C201.842 42.1914 202.131 41.916 202.498 41.7363C202.865 41.5527 203.268 41.4609 203.705 41.4609ZM210.244 41.4727C211.01 41.4727 211.578 41.6445 211.949 41.9883C212.32 42.332 212.506 42.8809 212.506 43.6348V48H211.797L211.609 47.0508H211.562C211.383 47.2852 211.195 47.4824 211 47.6426C210.805 47.7988 210.578 47.918 210.32 48C210.066 48.0781 209.754 48.1172 209.383 48.1172C208.992 48.1172 208.645 48.0488 208.34 47.9121C208.039 47.7754 207.801 47.5684 207.625 47.291C207.453 47.0137 207.367 46.6621 207.367 46.2363C207.367 45.5957 207.621 45.1035 208.129 44.7598C208.637 44.416 209.41 44.2285 210.449 44.1973L211.557 44.1504V43.7578C211.557 43.2031 211.438 42.8145 211.199 42.5918C210.961 42.3691 210.625 42.2578 210.191 42.2578C209.855 42.2578 209.535 42.3066 209.23 42.4043C208.926 42.502 208.637 42.6172 208.363 42.75L208.064 42.0117C208.354 41.8633 208.686 41.7363 209.061 41.6309C209.436 41.5254 209.83 41.4727 210.244 41.4727ZM211.545 44.8359L210.566 44.877C209.766 44.9082 209.201 45.0391 208.873 45.2695C208.545 45.5 208.381 45.8262 208.381 46.248C208.381 46.6152 208.492 46.8867 208.715 47.0625C208.938 47.2383 209.232 47.3262 209.6 47.3262C210.17 47.3262 210.637 47.168 211 46.8516C211.363 46.5352 211.545 46.0605 211.545 45.4277V44.8359Z" fill="#3C6046"/>
<path d="M155.486 98.4336C156.189 98.4336 156.77 98.5215 157.227 98.6973C157.688 98.8691 158.031 99.1328 158.258 99.4883C158.484 99.8438 158.598 100.297 158.598 100.848C158.598 101.301 158.516 101.68 158.352 101.984C158.188 102.285 157.973 102.529 157.707 102.717C157.441 102.904 157.158 103.049 156.857 103.15L159.207 107H158.047L155.949 103.426H154.168V107H153.172V98.4336H155.486ZM155.428 99.2949H154.168V102.582H155.527C156.227 102.582 156.74 102.439 157.068 102.154C157.4 101.869 157.566 101.449 157.566 100.895C157.566 100.312 157.391 99.9004 157.039 99.6582C156.691 99.416 156.154 99.2949 155.428 99.2949ZM162.904 100.461C163.451 100.461 163.92 100.582 164.311 100.824C164.701 101.066 165 101.406 165.207 101.844C165.414 102.277 165.518 102.785 165.518 103.367V103.971H161.082C161.094 104.725 161.281 105.299 161.645 105.693C162.008 106.088 162.52 106.285 163.18 106.285C163.586 106.285 163.945 106.248 164.258 106.174C164.57 106.1 164.895 105.99 165.23 105.846V106.701C164.906 106.846 164.584 106.951 164.264 107.018C163.947 107.084 163.572 107.117 163.139 107.117C162.521 107.117 161.982 106.992 161.521 106.742C161.064 106.488 160.709 106.117 160.455 105.629C160.201 105.141 160.074 104.543 160.074 103.836C160.074 103.145 160.189 102.547 160.42 102.043C160.654 101.535 160.982 101.145 161.404 100.871C161.83 100.598 162.33 100.461 162.904 100.461ZM162.893 101.258C162.373 101.258 161.959 101.428 161.65 101.768C161.342 102.107 161.158 102.582 161.1 103.191H164.498C164.494 102.809 164.434 102.473 164.316 102.184C164.203 101.891 164.029 101.664 163.795 101.504C163.561 101.34 163.26 101.258 162.893 101.258ZM168.582 107L166.145 100.578H167.188L168.6 104.463C168.697 104.729 168.797 105.021 168.898 105.342C169 105.662 169.07 105.92 169.109 106.115H169.15C169.197 105.92 169.275 105.662 169.385 105.342C169.494 105.018 169.594 104.725 169.684 104.463L171.096 100.578H172.139L169.695 107H168.582ZM174.143 100.578V107H173.17V100.578H174.143ZM173.668 98.1758C173.828 98.1758 173.965 98.2285 174.078 98.334C174.195 98.4355 174.254 98.5957 174.254 98.8145C174.254 99.0293 174.195 99.1895 174.078 99.2949C173.965 99.4004 173.828 99.4531 173.668 99.4531C173.5 99.4531 173.359 99.4004 173.246 99.2949C173.137 99.1895 173.082 99.0293 173.082 98.8145C173.082 98.5957 173.137 98.4355 173.246 98.334C173.359 98.2285 173.5 98.1758 173.668 98.1758ZM178.678 100.461C179.225 100.461 179.693 100.582 180.084 100.824C180.475 101.066 180.773 101.406 180.98 101.844C181.188 102.277 181.291 102.785 181.291 103.367V103.971H176.855C176.867 104.725 177.055 105.299 177.418 105.693C177.781 106.088 178.293 106.285 178.953 106.285C179.359 106.285 179.719 106.248 180.031 106.174C180.344 106.1 180.668 105.99 181.004 105.846V106.701C180.68 106.846 180.357 106.951 180.037 107.018C179.721 107.084 179.346 107.117 178.912 107.117C178.295 107.117 177.756 106.992 177.295 106.742C176.838 106.488 176.482 106.117 176.229 105.629C175.975 105.141 175.848 104.543 175.848 103.836C175.848 103.145 175.963 102.547 176.193 102.043C176.428 101.535 176.756 101.145 177.178 100.871C177.604 100.598 178.104 100.461 178.678 100.461ZM178.666 101.258C178.146 101.258 177.732 101.428 177.424 101.768C177.115 102.107 176.932 102.582 176.873 103.191H180.271C180.268 102.809 180.207 102.473 180.09 102.184C179.977 101.891 179.803 101.664 179.568 101.504C179.334 101.34 179.033 101.258 178.666 101.258ZM188.17 106.988L187.027 103.25C186.977 103.09 186.928 102.934 186.881 102.781C186.838 102.625 186.797 102.477 186.758 102.336C186.723 102.191 186.689 102.059 186.658 101.938C186.631 101.812 186.607 101.705 186.588 101.615H186.547C186.531 101.705 186.51 101.812 186.482 101.938C186.455 102.059 186.422 102.191 186.383 102.336C186.348 102.48 186.309 102.633 186.266 102.793C186.223 102.949 186.174 103.107 186.119 103.268L184.924 106.988H183.828L182.059 100.566H183.066L183.992 104.111C184.055 104.346 184.113 104.578 184.168 104.809C184.227 105.035 184.275 105.25 184.314 105.453C184.357 105.652 184.389 105.826 184.408 105.975H184.455C184.479 105.877 184.504 105.76 184.531 105.623C184.562 105.486 184.596 105.342 184.631 105.189C184.67 105.033 184.711 104.879 184.754 104.727C184.797 104.57 184.84 104.424 184.883 104.287L186.066 100.566H187.115L188.258 104.281C188.316 104.469 188.373 104.664 188.428 104.867C188.486 105.07 188.539 105.268 188.586 105.459C188.633 105.646 188.666 105.814 188.686 105.963H188.732C188.748 105.83 188.777 105.666 188.82 105.471C188.863 105.275 188.912 105.061 188.967 104.826C189.025 104.592 189.086 104.354 189.148 104.111L190.086 100.566H191.076L189.301 106.988H188.17Z" fill="#3C6046"/>
<path d="M38.4863 98.4336C39.1895 98.4336 39.7695 98.5215 40.2266 98.6973C40.6875 98.8691 41.0312 99.1328 41.2578 99.4883C41.4844 99.8438 41.5977 100.297 41.5977 100.848C41.5977 101.301 41.5156 101.68 41.3516 101.984C41.1875 102.285 40.9727 102.529 40.707 102.717C40.4414 102.904 40.1582 103.049 39.8574 103.15L42.207 107H41.0469L38.9492 103.426H37.168V107H36.1719V98.4336H38.4863ZM38.4277 99.2949H37.168V102.582H38.5273C39.2266 102.582 39.7402 102.439 40.0684 102.154C40.4004 101.869 40.5664 101.449 40.5664 100.895C40.5664 100.312 40.3906 99.9004 40.0391 99.6582C39.6914 99.416 39.1543 99.2949 38.4277 99.2949ZM45.834 100.473C46.5996 100.473 47.168 100.645 47.5391 100.988C47.9102 101.332 48.0957 101.881 48.0957 102.635V107H47.3867L47.1992 106.051H47.1523C46.9727 106.285 46.7852 106.482 46.5898 106.643C46.3945 106.799 46.168 106.918 45.9102 107C45.6562 107.078 45.3438 107.117 44.9727 107.117C44.582 107.117 44.2344 107.049 43.9297 106.912C43.6289 106.775 43.3906 106.568 43.2148 106.291C43.043 106.014 42.957 105.662 42.957 105.236C42.957 104.596 43.2109 104.104 43.7188 103.76C44.2266 103.416 45 103.229 46.0391 103.197L47.1465 103.15V102.758C47.1465 102.203 47.0273 101.814 46.7891 101.592C46.5508 101.369 46.2148 101.258 45.7812 101.258C45.4453 101.258 45.125 101.307 44.8203 101.404C44.5156 101.502 44.2266 101.617 43.9531 101.75L43.6543 101.012C43.9434 100.863 44.2754 100.736 44.6504 100.631C45.0254 100.525 45.4199 100.473 45.834 100.473ZM47.1348 103.836L46.1562 103.877C45.3555 103.908 44.791 104.039 44.4629 104.27C44.1348 104.5 43.9707 104.826 43.9707 105.248C43.9707 105.615 44.082 105.887 44.3047 106.062C44.5273 106.238 44.8223 106.326 45.1895 106.326C45.7598 106.326 46.2266 106.168 46.5898 105.852C46.9531 105.535 47.1348 105.061 47.1348 104.428V103.836ZM52.1738 106.32C52.334 106.32 52.498 106.307 52.666 106.279C52.834 106.252 52.9707 106.219 53.0762 106.18V106.936C52.9629 106.986 52.8047 107.029 52.6016 107.064C52.4023 107.1 52.207 107.117 52.0156 107.117C51.6758 107.117 51.3672 107.059 51.0898 106.941C50.8125 106.82 50.5898 106.617 50.4219 106.332C50.2578 106.047 50.1758 105.652 50.1758 105.148V101.34H49.2617V100.865L50.1816 100.484L50.5684 99.0898H51.1543V100.578H53.0352V101.34H51.1543V105.119C51.1543 105.521 51.2461 105.822 51.4297 106.021C51.6172 106.221 51.8652 106.32 52.1738 106.32ZM55.3496 100.578V107H54.377V100.578H55.3496ZM54.875 98.1758C55.0352 98.1758 55.1719 98.2285 55.2852 98.334C55.4023 98.4355 55.4609 98.5957 55.4609 98.8145C55.4609 99.0293 55.4023 99.1895 55.2852 99.2949C55.1719 99.4004 55.0352 99.4531 54.875 99.4531C54.707 99.4531 54.5664 99.4004 54.4531 99.2949C54.3438 99.1895 54.2891 99.0293 54.2891 98.8145C54.2891 98.5957 54.3438 98.4355 54.4531 98.334C54.5664 98.2285 54.707 98.1758 54.875 98.1758ZM60.4531 100.461C61.2148 100.461 61.791 100.648 62.1816 101.023C62.5723 101.395 62.7676 101.992 62.7676 102.816V107H61.8066V102.881C61.8066 102.346 61.6836 101.945 61.4375 101.68C61.1953 101.414 60.8223 101.281 60.3184 101.281C59.6074 101.281 59.1074 101.482 58.8184 101.885C58.5293 102.287 58.3848 102.871 58.3848 103.637V107H57.4121V100.578H58.1973L58.3438 101.504H58.3965C58.5332 101.277 58.707 101.088 58.918 100.936C59.1289 100.779 59.3652 100.662 59.627 100.584C59.8887 100.502 60.1641 100.461 60.4531 100.461ZM66.5645 109.883C65.7207 109.883 65.0703 109.725 64.6133 109.408C64.1562 109.096 63.9277 108.656 63.9277 108.09C63.9277 107.688 64.0547 107.344 64.3086 107.059C64.5664 106.773 64.9219 106.584 65.375 106.49C65.207 106.412 65.0625 106.295 64.9414 106.139C64.8242 105.982 64.7656 105.803 64.7656 105.6C64.7656 105.365 64.8301 105.16 64.959 104.984C65.0918 104.805 65.293 104.633 65.5625 104.469C65.2266 104.332 64.9531 104.102 64.7422 103.777C64.5352 103.449 64.4316 103.068 64.4316 102.635C64.4316 102.174 64.5273 101.781 64.7188 101.457C64.9102 101.129 65.1875 100.879 65.5508 100.707C65.9141 100.535 66.3535 100.449 66.8691 100.449C66.9824 100.449 67.0957 100.455 67.209 100.467C67.3262 100.475 67.4375 100.488 67.543 100.508C67.6484 100.523 67.7402 100.543 67.8184 100.566H70.0215V101.193L68.8379 101.34C68.9551 101.492 69.0527 101.676 69.1309 101.891C69.209 102.105 69.248 102.344 69.248 102.605C69.248 103.246 69.0312 103.756 68.5977 104.135C68.1641 104.51 67.5684 104.697 66.8105 104.697C66.6309 104.697 66.4473 104.682 66.2598 104.65C66.0684 104.756 65.9219 104.873 65.8203 105.002C65.7227 105.131 65.6738 105.279 65.6738 105.447C65.6738 105.572 65.7109 105.672 65.7852 105.746C65.8633 105.82 65.9746 105.875 66.1191 105.91C66.2637 105.941 66.4375 105.957 66.6406 105.957H67.7715C68.4707 105.957 69.0059 106.104 69.377 106.396C69.752 106.689 69.9395 107.117 69.9395 107.68C69.9395 108.391 69.6504 108.936 69.0723 109.314C68.4941 109.693 67.6582 109.883 66.5645 109.883ZM66.5938 109.121C67.125 109.121 67.5645 109.066 67.9121 108.957C68.2637 108.852 68.5254 108.697 68.6973 108.494C68.873 108.295 68.9609 108.057 68.9609 107.779C68.9609 107.521 68.9023 107.326 68.7852 107.193C68.668 107.064 68.4961 106.979 68.2695 106.936C68.043 106.889 67.7656 106.865 67.4375 106.865H66.3242C66.0352 106.865 65.7832 106.91 65.5684 107C65.3535 107.09 65.1875 107.223 65.0703 107.398C64.957 107.574 64.9004 107.793 64.9004 108.055C64.9004 108.402 65.0469 108.666 65.3398 108.846C65.6328 109.029 66.0508 109.121 66.5938 109.121ZM66.8457 103.988C67.3105 103.988 67.6602 103.871 67.8945 103.637C68.1289 103.402 68.2461 103.061 68.2461 102.611C68.2461 102.131 68.127 101.771 67.8887 101.533C67.6504 101.291 67.2988 101.17 66.834 101.17C66.3887 101.17 66.0449 101.295 65.8027 101.545C65.5645 101.791 65.4453 102.152 65.4453 102.629C65.4453 103.066 65.5664 103.402 65.8086 103.637C66.0508 103.871 66.3965 103.988 66.8457 103.988Z" fill="#3C6046"/>
<path d="M250.975 102.635C250.975 103.6 250.799 104.406 250.447 105.055C250.096 105.699 249.586 106.186 248.918 106.514C248.254 106.838 247.447 107 246.498 107H244.172V98.4336H246.756C247.627 98.4336 248.377 98.5938 249.006 98.9141C249.635 99.2305 250.119 99.7012 250.459 100.326C250.803 100.947 250.975 101.717 250.975 102.635ZM249.926 102.67C249.926 101.9 249.797 101.266 249.539 100.766C249.285 100.266 248.91 99.8945 248.414 99.6523C247.922 99.4062 247.318 99.2832 246.604 99.2832H245.168V106.145H246.381C247.561 106.145 248.445 105.854 249.035 105.271C249.629 104.689 249.926 103.822 249.926 102.67ZM258.035 100.578V107H257.238L257.098 106.098H257.045C256.912 106.32 256.74 106.508 256.529 106.66C256.318 106.812 256.08 106.926 255.814 107C255.553 107.078 255.273 107.117 254.977 107.117C254.469 107.117 254.043 107.035 253.699 106.871C253.355 106.707 253.096 106.453 252.92 106.109C252.748 105.766 252.662 105.324 252.662 104.785V100.578H253.646V104.715C253.646 105.25 253.768 105.65 254.01 105.916C254.252 106.178 254.621 106.309 255.117 106.309C255.594 106.309 255.973 106.219 256.254 106.039C256.539 105.859 256.744 105.596 256.869 105.248C256.994 104.896 257.057 104.467 257.057 103.959V100.578H258.035ZM263.01 100.461C263.139 100.461 263.273 100.469 263.414 100.484C263.555 100.496 263.68 100.514 263.789 100.537L263.666 101.439C263.561 101.412 263.443 101.391 263.314 101.375C263.186 101.359 263.064 101.352 262.951 101.352C262.693 101.352 262.449 101.404 262.219 101.51C261.992 101.611 261.793 101.76 261.621 101.955C261.449 102.146 261.314 102.379 261.217 102.652C261.119 102.922 261.07 103.223 261.07 103.555V107H260.092V100.578H260.9L261.006 101.762H261.047C261.18 101.523 261.34 101.307 261.527 101.111C261.715 100.912 261.932 100.754 262.178 100.637C262.428 100.52 262.705 100.461 263.01 100.461ZM267.404 100.473C268.17 100.473 268.738 100.645 269.109 100.988C269.48 101.332 269.666 101.881 269.666 102.635V107H268.957L268.77 106.051H268.723C268.543 106.285 268.355 106.482 268.16 106.643C267.965 106.799 267.738 106.918 267.48 107C267.227 107.078 266.914 107.117 266.543 107.117C266.152 107.117 265.805 107.049 265.5 106.912C265.199 106.775 264.961 106.568 264.785 106.291C264.613 106.014 264.527 105.662 264.527 105.236C264.527 104.596 264.781 104.104 265.289 103.76C265.797 103.416 266.57 103.229 267.609 103.197L268.717 103.15V102.758C268.717 102.203 268.598 101.814 268.359 101.592C268.121 101.369 267.785 101.258 267.352 101.258C267.016 101.258 266.695 101.307 266.391 101.404C266.086 101.502 265.797 101.617 265.523 101.75L265.225 101.012C265.514 100.863 265.846 100.736 266.221 100.631C266.596 100.525 266.99 100.473 267.404 100.473ZM268.705 103.836L267.727 103.877C266.926 103.908 266.361 104.039 266.033 104.27C265.705 104.5 265.541 104.826 265.541 105.248C265.541 105.615 265.652 105.887 265.875 106.062C266.098 106.238 266.393 106.326 266.76 106.326C267.33 106.326 267.797 106.168 268.16 105.852C268.523 105.535 268.705 105.061 268.705 104.428V103.836ZM275.824 105.242C275.824 105.652 275.721 105.998 275.514 106.279C275.311 106.557 275.018 106.766 274.635 106.906C274.256 107.047 273.803 107.117 273.275 107.117C272.826 107.117 272.438 107.082 272.109 107.012C271.781 106.941 271.494 106.842 271.248 106.713V105.816C271.51 105.945 271.822 106.062 272.186 106.168C272.549 106.273 272.92 106.326 273.299 106.326C273.854 106.326 274.256 106.236 274.506 106.057C274.756 105.877 274.881 105.633 274.881 105.324C274.881 105.148 274.83 104.994 274.729 104.861C274.631 104.725 274.465 104.594 274.23 104.469C273.996 104.34 273.672 104.199 273.258 104.047C272.848 103.891 272.492 103.736 272.191 103.584C271.895 103.428 271.664 103.238 271.5 103.016C271.34 102.793 271.26 102.504 271.26 102.148C271.26 101.605 271.479 101.189 271.916 100.9C272.357 100.607 272.936 100.461 273.65 100.461C274.037 100.461 274.398 100.5 274.734 100.578C275.074 100.652 275.391 100.754 275.684 100.883L275.355 101.662C275.09 101.549 274.807 101.453 274.506 101.375C274.205 101.297 273.898 101.258 273.586 101.258C273.137 101.258 272.791 101.332 272.549 101.48C272.311 101.629 272.191 101.832 272.191 102.09C272.191 102.289 272.246 102.453 272.355 102.582C272.469 102.711 272.648 102.832 272.895 102.945C273.141 103.059 273.465 103.191 273.867 103.344C274.27 103.492 274.617 103.646 274.91 103.807C275.203 103.963 275.428 104.154 275.584 104.381C275.744 104.604 275.824 104.891 275.824 105.242ZM278.361 100.578V107H277.389V100.578H278.361ZM277.887 98.1758C278.047 98.1758 278.184 98.2285 278.297 98.334C278.414 98.4355 278.473 98.5957 278.473 98.8145C278.473 99.0293 278.414 99.1895 278.297 99.2949C278.184 99.4004 278.047 99.4531 277.887 99.4531C277.719 99.4531 277.578 99.4004 277.465 99.2949C277.355 99.1895 277.301 99.0293 277.301 98.8145C277.301 98.5957 277.355 98.4355 277.465 98.334C277.578 98.2285 277.719 98.1758 277.887 98.1758ZM285.943 100.473C286.709 100.473 287.277 100.645 287.648 100.988C288.02 101.332 288.205 101.881 288.205 102.635V107H287.496L287.309 106.051H287.262C287.082 106.285 286.895 106.482 286.699 106.643C286.504 106.799 286.277 106.918 286.02 107C285.766 107.078 285.453 107.117 285.082 107.117C284.691 107.117 284.344 107.049 284.039 106.912C283.738 106.775 283.5 106.568 283.324 106.291C283.152 106.014 283.066 105.662 283.066 105.236C283.066 104.596 283.32 104.104 283.828 103.76C284.336 103.416 285.109 103.229 286.148 103.197L287.256 103.15V102.758C287.256 102.203 287.137 101.814 286.898 101.592C286.66 101.369 286.324 101.258 285.891 101.258C285.555 101.258 285.234 101.307 284.93 101.404C284.625 101.502 284.336 101.617 284.062 101.75L283.764 101.012C284.053 100.863 284.385 100.736 284.76 100.631C285.135 100.525 285.529 100.473 285.943 100.473ZM287.244 103.836L286.266 103.877C285.465 103.908 284.9 104.039 284.572 104.27C284.244 104.5 284.08 104.826 284.08 105.248C284.08 105.615 284.191 105.887 284.414 106.062C284.637 106.238 284.932 106.326 285.299 106.326C285.869 106.326 286.336 106.168 286.699 105.852C287.062 105.535 287.244 105.061 287.244 104.428V103.836ZM291.176 97.8828V102.617C291.176 102.773 291.17 102.965 291.158 103.191C291.146 103.414 291.137 103.611 291.129 103.783H291.17C291.252 103.682 291.371 103.531 291.527 103.332C291.688 103.133 291.822 102.973 291.932 102.852L294.064 100.578H295.207L292.623 103.32L295.395 107H294.223L291.955 103.959L291.176 104.674V107H290.209V97.8828H291.176ZM298.588 106.32C298.748 106.32 298.912 106.307 299.08 106.279C299.248 106.252 299.385 106.219 299.49 106.18V106.936C299.377 106.986 299.219 107.029 299.016 107.064C298.816 107.1 298.621 107.117 298.43 107.117C298.09 107.117 297.781 107.059 297.504 106.941C297.227 106.82 297.004 106.617 296.836 106.332C296.672 106.047 296.59 105.652 296.59 105.148V101.34H295.676V100.865L296.596 100.484L296.982 99.0898H297.568V100.578H299.449V101.34H297.568V105.119C297.568 105.521 297.66 105.822 297.844 106.021C298.031 106.221 298.279 106.32 298.588 106.32ZM301.764 100.578V107H300.791V100.578H301.764ZM301.289 98.1758C301.449 98.1758 301.586 98.2285 301.699 98.334C301.816 98.4355 301.875 98.5957 301.875 98.8145C301.875 99.0293 301.816 99.1895 301.699 99.2949C301.586 99.4004 301.449 99.4531 301.289 99.4531C301.121 99.4531 300.98 99.4004 300.867 99.2949C300.758 99.1895 300.703 99.0293 300.703 98.8145C300.703 98.5957 300.758 98.4355 300.867 98.334C300.98 98.2285 301.121 98.1758 301.289 98.1758ZM306.686 101.34H305.086V107H304.113V101.34H302.977V100.871L304.113 100.549V100.121C304.113 99.582 304.193 99.1445 304.354 98.8086C304.514 98.4688 304.746 98.2188 305.051 98.0586C305.355 97.8984 305.727 97.8184 306.164 97.8184C306.41 97.8184 306.635 97.8398 306.838 97.8828C307.045 97.9258 307.227 97.9746 307.383 98.0293L307.131 98.7969C306.998 98.7539 306.848 98.7148 306.68 98.6797C306.516 98.6406 306.348 98.6211 306.176 98.6211C305.805 98.6211 305.529 98.7422 305.35 98.9844C305.174 99.2227 305.086 99.5977 305.086 100.109V100.578H306.686V101.34Z" fill="#3C6046"/>
<path d="M242.936 50.2559C242.74 50.2559 242.568 50.2422 242.42 50.2148C242.271 50.1875 242.145 50.1504 242.039 50.1035V49.2539C242.164 49.293 242.299 49.3223 242.443 49.3418C242.588 49.3652 242.744 49.377 242.912 49.377C243.131 49.377 243.332 49.334 243.516 49.248C243.699 49.1621 243.846 49.0156 243.955 48.8086C244.064 48.6016 244.119 48.3164 244.119 47.9531V39.4336H245.121V47.877C245.121 48.4121 245.031 48.8555 244.852 49.207C244.676 49.5586 244.424 49.8203 244.096 49.9922C243.771 50.168 243.385 50.2559 242.936 50.2559ZM249.65 41.4727C250.416 41.4727 250.984 41.6445 251.355 41.9883C251.727 42.332 251.912 42.8809 251.912 43.6348V48H251.203L251.016 47.0508H250.969C250.789 47.2852 250.602 47.4824 250.406 47.6426C250.211 47.7988 249.984 47.918 249.727 48C249.473 48.0781 249.16 48.1172 248.789 48.1172C248.398 48.1172 248.051 48.0488 247.746 47.9121C247.445 47.7754 247.207 47.5684 247.031 47.291C246.859 47.0137 246.773 46.6621 246.773 46.2363C246.773 45.5957 247.027 45.1035 247.535 44.7598C248.043 44.416 248.816 44.2285 249.855 44.1973L250.963 44.1504V43.7578C250.963 43.2031 250.844 42.8145 250.605 42.5918C250.367 42.3691 250.031 42.2578 249.598 42.2578C249.262 42.2578 248.941 42.3066 248.637 42.4043C248.332 42.502 248.043 42.6172 247.77 42.75L247.471 42.0117C247.76 41.8633 248.092 41.7363 248.467 41.6309C248.842 41.5254 249.236 41.4727 249.65 41.4727ZM250.951 44.8359L249.973 44.877C249.172 44.9082 248.607 45.0391 248.279 45.2695C247.951 45.5 247.787 45.8262 247.787 46.248C247.787 46.6152 247.898 46.8867 248.121 47.0625C248.344 47.2383 248.639 47.3262 249.006 47.3262C249.576 47.3262 250.043 47.168 250.406 46.8516C250.77 46.5352 250.951 46.0605 250.951 45.4277V44.8359ZM256.834 41.4609C256.963 41.4609 257.098 41.4688 257.238 41.4844C257.379 41.4961 257.504 41.5137 257.613 41.5371L257.49 42.4395C257.385 42.4121 257.268 42.3906 257.139 42.375C257.01 42.3594 256.889 42.3516 256.775 42.3516C256.518 42.3516 256.273 42.4043 256.043 42.5098C255.816 42.6113 255.617 42.7598 255.445 42.9551C255.273 43.1465 255.139 43.3789 255.041 43.6523C254.943 43.9219 254.895 44.2227 254.895 44.5547V48H253.916V41.5781H254.725L254.83 42.7617H254.871C255.004 42.5234 255.164 42.3066 255.352 42.1113C255.539 41.9121 255.756 41.7539 256.002 41.6367C256.252 41.5195 256.529 41.4609 256.834 41.4609ZM261.229 41.4727C261.994 41.4727 262.562 41.6445 262.934 41.9883C263.305 42.332 263.49 42.8809 263.49 43.6348V48H262.781L262.594 47.0508H262.547C262.367 47.2852 262.18 47.4824 261.984 47.6426C261.789 47.7988 261.562 47.918 261.305 48C261.051 48.0781 260.738 48.1172 260.367 48.1172C259.977 48.1172 259.629 48.0488 259.324 47.9121C259.023 47.7754 258.785 47.5684 258.609 47.291C258.438 47.0137 258.352 46.6621 258.352 46.2363C258.352 45.5957 258.605 45.1035 259.113 44.7598C259.621 44.416 260.395 44.2285 261.434 44.1973L262.541 44.1504V43.7578C262.541 43.2031 262.422 42.8145 262.184 42.5918C261.945 42.3691 261.609 42.2578 261.176 42.2578C260.84 42.2578 260.52 42.3066 260.215 42.4043C259.91 42.502 259.621 42.6172 259.348 42.75L259.049 42.0117C259.338 41.8633 259.67 41.7363 260.045 41.6309C260.42 41.5254 260.814 41.4727 261.229 41.4727ZM262.529 44.8359L261.551 44.877C260.75 44.9082 260.186 45.0391 259.857 45.2695C259.529 45.5 259.365 45.8262 259.365 46.248C259.365 46.6152 259.477 46.8867 259.699 47.0625C259.922 47.2383 260.217 47.3262 260.584 47.3262C261.154 47.3262 261.621 47.168 261.984 46.8516C262.348 46.5352 262.529 46.0605 262.529 45.4277V44.8359ZM266.461 38.8828V43.6172C266.461 43.7734 266.455 43.9648 266.443 44.1914C266.432 44.4141 266.422 44.6113 266.414 44.7832H266.455C266.537 44.6816 266.656 44.5312 266.812 44.332C266.973 44.1328 267.107 43.9727 267.217 43.8516L269.35 41.5781H270.492L267.908 44.3203L270.68 48H269.508L267.24 44.959L266.461 45.6738V48H265.494V38.8828H266.461ZM277.201 48.1172C276.389 48.1172 275.744 47.8398 275.268 47.2852C274.795 46.7305 274.559 45.9062 274.559 44.8125C274.559 43.707 274.801 42.873 275.285 42.3105C275.77 41.7441 276.414 41.4609 277.219 41.4609C277.559 41.4609 277.855 41.5059 278.109 41.5957C278.363 41.6855 278.582 41.8066 278.766 41.959C278.949 42.1074 279.104 42.2773 279.229 42.4688H279.299C279.283 42.3477 279.268 42.1816 279.252 41.9707C279.236 41.7598 279.229 41.5879 279.229 41.4551V38.8828H280.201V48H279.416L279.27 47.0859H279.229C279.107 47.2773 278.953 47.4512 278.766 47.6074C278.582 47.7637 278.361 47.8887 278.104 47.9824C277.85 48.0723 277.549 48.1172 277.201 48.1172ZM277.354 47.3086C278.041 47.3086 278.527 47.1133 278.812 46.7227C279.098 46.332 279.24 45.752 279.24 44.9824V44.8066C279.24 43.9902 279.104 43.3633 278.83 42.9258C278.561 42.4883 278.068 42.2695 277.354 42.2695C276.756 42.2695 276.309 42.5 276.012 42.9609C275.715 43.418 275.566 44.043 275.566 44.8359C275.566 45.625 275.713 46.2344 276.006 46.6641C276.303 47.0938 276.752 47.3086 277.354 47.3086ZM283.236 41.5781V48H282.264V41.5781H283.236ZM282.762 39.1758C282.922 39.1758 283.059 39.2285 283.172 39.334C283.289 39.4355 283.348 39.5957 283.348 39.8145C283.348 40.0293 283.289 40.1895 283.172 40.2949C283.059 40.4004 282.922 40.4531 282.762 40.4531C282.594 40.4531 282.453 40.4004 282.34 40.2949C282.23 40.1895 282.176 40.0293 282.176 39.8145C282.176 39.5957 282.23 39.4355 282.34 39.334C282.453 39.2285 282.594 39.1758 282.762 39.1758ZM287.373 47.3203C287.533 47.3203 287.697 47.3066 287.865 47.2793C288.033 47.252 288.17 47.2188 288.275 47.1797V47.9355C288.162 47.9863 288.004 48.0293 287.801 48.0645C287.602 48.0996 287.406 48.1172 287.215 48.1172C286.875 48.1172 286.566 48.0586 286.289 47.9414C286.012 47.8203 285.789 47.6172 285.621 47.332C285.457 47.0469 285.375 46.6523 285.375 46.1484V42.3398H284.461V41.8652L285.381 41.4844L285.768 40.0898H286.354V41.5781H288.234V42.3398H286.354V46.1191C286.354 46.5215 286.445 46.8223 286.629 47.0215C286.816 47.2207 287.064 47.3203 287.373 47.3203ZM292.049 41.4609C292.596 41.4609 293.064 41.582 293.455 41.8242C293.846 42.0664 294.145 42.4062 294.352 42.8438C294.559 43.2773 294.662 43.7852 294.662 44.3672V44.9707H290.227C290.238 45.7246 290.426 46.2988 290.789 46.6934C291.152 47.0879 291.664 47.2852 292.324 47.2852C292.73 47.2852 293.09 47.248 293.402 47.1738C293.715 47.0996 294.039 46.9902 294.375 46.8457V47.7012C294.051 47.8457 293.729 47.9512 293.408 48.0176C293.092 48.084 292.717 48.1172 292.283 48.1172C291.666 48.1172 291.127 47.9922 290.666 47.7422C290.209 47.4883 289.854 47.1172 289.6 46.6289C289.346 46.1406 289.219 45.543 289.219 44.8359C289.219 44.1445 289.334 43.5469 289.564 43.043C289.799 42.5352 290.127 42.1445 290.549 41.8711C290.975 41.5977 291.475 41.4609 292.049 41.4609ZM292.037 42.2578C291.518 42.2578 291.104 42.4277 290.795 42.7676C290.486 43.1074 290.303 43.582 290.244 44.1914H293.643C293.639 43.8086 293.578 43.4727 293.461 43.1836C293.348 42.8906 293.174 42.6641 292.939 42.5039C292.705 42.3398 292.404 42.2578 292.037 42.2578ZM303.287 41.4609C303.994 41.4609 304.527 41.6465 304.887 42.0176C305.246 42.3848 305.426 42.9766 305.426 43.793V48H304.465V43.8398C304.465 43.3203 304.352 42.9316 304.125 42.6738C303.902 42.4121 303.57 42.2812 303.129 42.2812C302.508 42.2812 302.057 42.4609 301.775 42.8203C301.494 43.1797 301.354 43.709 301.354 44.4082V48H300.387V43.8398C300.387 43.4922 300.336 43.2031 300.234 42.9727C300.137 42.7422 299.988 42.5703 299.789 42.457C299.594 42.3398 299.346 42.2812 299.045 42.2812C298.619 42.2812 298.277 42.3691 298.02 42.5449C297.762 42.7207 297.574 42.9824 297.457 43.3301C297.344 43.6738 297.287 44.0977 297.287 44.6016V48H296.314V41.5781H297.1L297.246 42.4863H297.299C297.428 42.2637 297.59 42.0762 297.785 41.9238C297.98 41.7715 298.199 41.6562 298.441 41.5781C298.684 41.5 298.941 41.4609 299.215 41.4609C299.703 41.4609 300.111 41.5527 300.439 41.7363C300.771 41.916 301.012 42.1914 301.16 42.5625H301.213C301.424 42.1914 301.713 41.916 302.08 41.7363C302.447 41.5527 302.85 41.4609 303.287 41.4609ZM310.441 41.4609C311.242 41.4609 311.881 41.7363 312.357 42.2871C312.834 42.8379 313.072 43.666 313.072 44.7715C313.072 45.502 312.963 46.1152 312.744 46.6113C312.525 47.1074 312.217 47.4824 311.818 47.7363C311.424 47.9902 310.957 48.1172 310.418 48.1172C310.078 48.1172 309.779 48.0723 309.521 47.9824C309.264 47.8926 309.043 47.7715 308.859 47.6191C308.676 47.4668 308.523 47.3008 308.402 47.1211H308.332C308.344 47.2734 308.357 47.457 308.373 47.6719C308.393 47.8867 308.402 48.0742 308.402 48.2344V50.8711H307.424V41.5781H308.227L308.355 42.5273H308.402C308.527 42.332 308.68 42.1543 308.859 41.9941C309.039 41.8301 309.258 41.7012 309.516 41.6074C309.777 41.5098 310.086 41.4609 310.441 41.4609ZM310.271 42.2812C309.826 42.2812 309.467 42.3672 309.193 42.5391C308.924 42.7109 308.727 42.9688 308.602 43.3125C308.477 43.6523 308.41 44.0801 308.402 44.5957V44.7832C308.402 45.3262 308.461 45.7852 308.578 46.1602C308.699 46.5352 308.896 46.8203 309.17 47.0156C309.447 47.2109 309.818 47.3086 310.283 47.3086C310.682 47.3086 311.014 47.2012 311.279 46.9863C311.545 46.7715 311.742 46.4727 311.871 46.0898C312.004 45.7031 312.07 45.2598 312.07 44.7598C312.07 44.002 311.922 43.4004 311.625 42.9551C311.332 42.5059 310.881 42.2812 310.271 42.2812ZM320.074 41.5781V48H319.277L319.137 47.0977H319.084C318.951 47.3203 318.779 47.5078 318.568 47.6602C318.357 47.8125 318.119 47.9258 317.854 48C317.592 48.0781 317.312 48.1172 317.016 48.1172C316.508 48.1172 316.082 48.0352 315.738 47.8711C315.395 47.707 315.135 47.4531 314.959 47.1094C314.787 46.7656 314.701 46.3242 314.701 45.7852V41.5781H315.686V45.7148C315.686 46.25 315.807 46.6504 316.049 46.916C316.291 47.1777 316.66 47.3086 317.156 47.3086C317.633 47.3086 318.012 47.2188 318.293 47.0391C318.578 46.8594 318.783 46.5957 318.908 46.248C319.033 45.8965 319.096 45.4668 319.096 44.959V41.5781H320.074ZM323.104 38.8828V41.6074C323.104 41.7637 323.1 41.9219 323.092 42.082C323.084 42.2383 323.07 42.3828 323.051 42.5156H323.115C323.248 42.2891 323.416 42.0996 323.619 41.9473C323.826 41.791 324.061 41.6738 324.322 41.5957C324.584 41.5137 324.861 41.4727 325.154 41.4727C325.67 41.4727 326.1 41.5547 326.443 41.7188C326.791 41.8828 327.051 42.1367 327.223 42.4805C327.398 42.8242 327.486 43.2695 327.486 43.8164V48H326.525V43.8809C326.525 43.3457 326.402 42.9453 326.156 42.6797C325.914 42.4141 325.541 42.2812 325.037 42.2812C324.561 42.2812 324.18 42.373 323.895 42.5566C323.613 42.7363 323.41 43.002 323.285 43.3535C323.164 43.7051 323.104 44.1348 323.104 44.6426V48H322.131V38.8828H323.104Z" fill="#3C6046"/>
<path d="M22.4102 39.4336C23.5156 39.4336 24.3223 39.6504 24.8301 40.084C25.3418 40.5137 25.5977 41.1309 25.5977 41.9355C25.5977 42.2988 25.5371 42.6445 25.416 42.9727C25.2988 43.2969 25.1074 43.584 24.8418 43.834C24.5762 44.0801 24.2266 44.2754 23.793 44.4199C23.3633 44.5605 22.8359 44.6309 22.2109 44.6309H21.168V48H20.1719V39.4336H22.4102ZM22.3164 40.2832H21.168V43.7754H22.0996C22.6465 43.7754 23.1016 43.7168 23.4648 43.5996C23.832 43.4824 24.1074 43.293 24.291 43.0312C24.4746 42.7656 24.5664 42.4141 24.5664 41.9766C24.5664 41.4062 24.3848 40.9824 24.0215 40.7051C23.6582 40.4238 23.0898 40.2832 22.3164 40.2832ZM29.7168 41.4609C30.2637 41.4609 30.7324 41.582 31.123 41.8242C31.5137 42.0664 31.8125 42.4062 32.0195 42.8438C32.2266 43.2773 32.3301 43.7852 32.3301 44.3672V44.9707H27.8945C27.9062 45.7246 28.0938 46.2988 28.457 46.6934C28.8203 47.0879 29.332 47.2852 29.9922 47.2852C30.3984 47.2852 30.7578 47.248 31.0703 47.1738C31.3828 47.0996 31.707 46.9902 32.043 46.8457V47.7012C31.7188 47.8457 31.3965 47.9512 31.0762 48.0176C30.7598 48.084 30.3848 48.1172 29.9512 48.1172C29.334 48.1172 28.7949 47.9922 28.334 47.7422C27.877 47.4883 27.5215 47.1172 27.2676 46.6289C27.0137 46.1406 26.8867 45.543 26.8867 44.8359C26.8867 44.1445 27.002 43.5469 27.2324 43.043C27.4668 42.5352 27.7949 42.1445 28.2168 41.8711C28.6426 41.5977 29.1426 41.4609 29.7168 41.4609ZM29.7051 42.2578C29.1855 42.2578 28.7715 42.4277 28.4629 42.7676C28.1543 43.1074 27.9707 43.582 27.9121 44.1914H31.3105C31.3066 43.8086 31.2461 43.4727 31.1289 43.1836C31.0156 42.8906 30.8418 42.6641 30.6074 42.5039C30.373 42.3398 30.0723 42.2578 29.7051 42.2578ZM37.0234 41.4609C37.7852 41.4609 38.3613 41.6484 38.752 42.0234C39.1426 42.3945 39.3379 42.9922 39.3379 43.8164V48H38.377V43.8809C38.377 43.3457 38.2539 42.9453 38.0078 42.6797C37.7656 42.4141 37.3926 42.2812 36.8887 42.2812C36.1777 42.2812 35.6777 42.4824 35.3887 42.8848C35.0996 43.2871 34.9551 43.8711 34.9551 44.6367V48H33.9824V41.5781H34.7676L34.9141 42.5039H34.9668C35.1035 42.2773 35.2773 42.0879 35.4883 41.9355C35.6992 41.7793 35.9355 41.6621 36.1973 41.584C36.459 41.502 36.7344 41.4609 37.0234 41.4609ZM43.627 48.1172C42.8145 48.1172 42.1699 47.8398 41.6934 47.2852C41.2207 46.7305 40.9844 45.9062 40.9844 44.8125C40.9844 43.707 41.2266 42.873 41.7109 42.3105C42.1953 41.7441 42.8398 41.4609 43.6445 41.4609C43.9844 41.4609 44.2812 41.5059 44.5352 41.5957C44.7891 41.6855 45.0078 41.8066 45.1914 41.959C45.375 42.1074 45.5293 42.2773 45.6543 42.4688H45.7246C45.709 42.3477 45.6934 42.1816 45.6777 41.9707C45.6621 41.7598 45.6543 41.5879 45.6543 41.4551V38.8828H46.627V48H45.8418L45.6953 47.0859H45.6543C45.5332 47.2773 45.3789 47.4512 45.1914 47.6074C45.0078 47.7637 44.7871 47.8887 44.5293 47.9824C44.2754 48.0723 43.9746 48.1172 43.627 48.1172ZM43.7793 47.3086C44.4668 47.3086 44.9531 47.1133 45.2383 46.7227C45.5234 46.332 45.666 45.752 45.666 44.9824V44.8066C45.666 43.9902 45.5293 43.3633 45.2559 42.9258C44.9863 42.4883 44.4941 42.2695 43.7793 42.2695C43.1816 42.2695 42.7344 42.5 42.4375 42.9609C42.1406 43.418 41.9922 44.043 41.9922 44.8359C41.9922 45.625 42.1387 46.2344 42.4316 46.6641C42.7285 47.0938 43.1777 47.3086 43.7793 47.3086ZM51.0918 41.4727C51.8574 41.4727 52.4258 41.6445 52.7969 41.9883C53.168 42.332 53.3535 42.8809 53.3535 43.6348V48H52.6445L52.457 47.0508H52.4102C52.2305 47.2852 52.043 47.4824 51.8477 47.6426C51.6523 47.7988 51.4258 47.918 51.168 48C50.9141 48.0781 50.6016 48.1172 50.2305 48.1172C49.8398 48.1172 49.4922 48.0488 49.1875 47.9121C48.8867 47.7754 48.6484 47.5684 48.4727 47.291C48.3008 47.0137 48.2148 46.6621 48.2148 46.2363C48.2148 45.5957 48.4688 45.1035 48.9766 44.7598C49.4844 44.416 50.2578 44.2285 51.2969 44.1973L52.4043 44.1504V43.7578C52.4043 43.2031 52.2852 42.8145 52.0469 42.5918C51.8086 42.3691 51.4727 42.2578 51.0391 42.2578C50.7031 42.2578 50.3828 42.3066 50.0781 42.4043C49.7734 42.502 49.4844 42.6172 49.2109 42.75L48.9121 42.0117C49.2012 41.8633 49.5332 41.7363 49.9082 41.6309C50.2832 41.5254 50.6777 41.4727 51.0918 41.4727ZM52.3926 44.8359L51.4141 44.877C50.6133 44.9082 50.0488 45.0391 49.7207 45.2695C49.3926 45.5 49.2285 45.8262 49.2285 46.248C49.2285 46.6152 49.3398 46.8867 49.5625 47.0625C49.7852 47.2383 50.0801 47.3262 50.4473 47.3262C51.0176 47.3262 51.4844 47.168 51.8477 46.8516C52.2109 46.5352 52.3926 46.0605 52.3926 45.4277V44.8359ZM58.375 41.4609C59.1758 41.4609 59.8145 41.7363 60.291 42.2871C60.7676 42.8379 61.0059 43.666 61.0059 44.7715C61.0059 45.502 60.8965 46.1152 60.6777 46.6113C60.459 47.1074 60.1504 47.4824 59.752 47.7363C59.3574 47.9902 58.8906 48.1172 58.3516 48.1172C58.0117 48.1172 57.7129 48.0723 57.4551 47.9824C57.1973 47.8926 56.9766 47.7715 56.793 47.6191C56.6094 47.4668 56.457 47.3008 56.3359 47.1211H56.2656C56.2773 47.2734 56.291 47.457 56.3066 47.6719C56.3262 47.8867 56.3359 48.0742 56.3359 48.2344V50.8711H55.3574V41.5781H56.1602L56.2891 42.5273H56.3359C56.4609 42.332 56.6133 42.1543 56.793 41.9941C56.9727 41.8301 57.1914 41.7012 57.4492 41.6074C57.7109 41.5098 58.0195 41.4609 58.375 41.4609ZM58.2051 42.2812C57.7598 42.2812 57.4004 42.3672 57.127 42.5391C56.8574 42.7109 56.6602 42.9688 56.5352 43.3125C56.4102 43.6523 56.3438 44.0801 56.3359 44.5957V44.7832C56.3359 45.3262 56.3945 45.7852 56.5117 46.1602C56.6328 46.5352 56.8301 46.8203 57.1035 47.0156C57.3809 47.2109 57.752 47.3086 58.2168 47.3086C58.6152 47.3086 58.9473 47.2012 59.2129 46.9863C59.4785 46.7715 59.6758 46.4727 59.8047 46.0898C59.9375 45.7031 60.0039 45.2598 60.0039 44.7598C60.0039 44.002 59.8555 43.4004 59.5586 42.9551C59.2656 42.5059 58.8145 42.2812 58.2051 42.2812ZM65.1074 41.4727C65.873 41.4727 66.4414 41.6445 66.8125 41.9883C67.1836 42.332 67.3691 42.8809 67.3691 43.6348V48H66.6602L66.4727 47.0508H66.4258C66.2461 47.2852 66.0586 47.4824 65.8633 47.6426C65.668 47.7988 65.4414 47.918 65.1836 48C64.9297 48.0781 64.6172 48.1172 64.2461 48.1172C63.8555 48.1172 63.5078 48.0488 63.2031 47.9121C62.9023 47.7754 62.6641 47.5684 62.4883 47.291C62.3164 47.0137 62.2305 46.6621 62.2305 46.2363C62.2305 45.5957 62.4844 45.1035 62.9922 44.7598C63.5 44.416 64.2734 44.2285 65.3125 44.1973L66.4199 44.1504V43.7578C66.4199 43.2031 66.3008 42.8145 66.0625 42.5918C65.8242 42.3691 65.4883 42.2578 65.0547 42.2578C64.7188 42.2578 64.3984 42.3066 64.0938 42.4043C63.7891 42.502 63.5 42.6172 63.2266 42.75L62.9277 42.0117C63.2168 41.8633 63.5488 41.7363 63.9238 41.6309C64.2988 41.5254 64.6934 41.4727 65.1074 41.4727ZM66.4082 44.8359L65.4297 44.877C64.6289 44.9082 64.0645 45.0391 63.7363 45.2695C63.4082 45.5 63.2441 45.8262 63.2441 46.248C63.2441 46.6152 63.3555 46.8867 63.5781 47.0625C63.8008 47.2383 64.0957 47.3262 64.4629 47.3262C65.0332 47.3262 65.5 47.168 65.8633 46.8516C66.2266 46.5352 66.4082 46.0605 66.4082 45.4277V44.8359ZM71.4473 47.3203C71.6074 47.3203 71.7715 47.3066 71.9395 47.2793C72.1074 47.252 72.2441 47.2188 72.3496 47.1797V47.9355C72.2363 47.9863 72.0781 48.0293 71.875 48.0645C71.6758 48.0996 71.4805 48.1172 71.2891 48.1172C70.9492 48.1172 70.6406 48.0586 70.3633 47.9414C70.0859 47.8203 69.8633 47.6172 69.6953 47.332C69.5312 47.0469 69.4492 46.6523 69.4492 46.1484V42.3398H68.5352V41.8652L69.4551 41.4844L69.8418 40.0898H70.4277V41.5781H72.3086V42.3398H70.4277V46.1191C70.4277 46.5215 70.5195 46.8223 70.7031 47.0215C70.8906 47.2207 71.1387 47.3203 71.4473 47.3203ZM76.0527 41.4727C76.8184 41.4727 77.3867 41.6445 77.7578 41.9883C78.1289 42.332 78.3145 42.8809 78.3145 43.6348V48H77.6055L77.418 47.0508H77.3711C77.1914 47.2852 77.0039 47.4824 76.8086 47.6426C76.6133 47.7988 76.3867 47.918 76.1289 48C75.875 48.0781 75.5625 48.1172 75.1914 48.1172C74.8008 48.1172 74.4531 48.0488 74.1484 47.9121C73.8477 47.7754 73.6094 47.5684 73.4336 47.291C73.2617 47.0137 73.1758 46.6621 73.1758 46.2363C73.1758 45.5957 73.4297 45.1035 73.9375 44.7598C74.4453 44.416 75.2188 44.2285 76.2578 44.1973L77.3652 44.1504V43.7578C77.3652 43.2031 77.2461 42.8145 77.0078 42.5918C76.7695 42.3691 76.4336 42.2578 76 42.2578C75.6641 42.2578 75.3438 42.3066 75.0391 42.4043C74.7344 42.502 74.4453 42.6172 74.1719 42.75L73.873 42.0117C74.1621 41.8633 74.4941 41.7363 74.8691 41.6309C75.2441 41.5254 75.6387 41.4727 76.0527 41.4727ZM77.3535 44.8359L76.375 44.877C75.5742 44.9082 75.0098 45.0391 74.6816 45.2695C74.3535 45.5 74.1895 45.8262 74.1895 46.248C74.1895 46.6152 74.3008 46.8867 74.5234 47.0625C74.7461 47.2383 75.041 47.3262 75.4082 47.3262C75.9785 47.3262 76.4453 47.168 76.8086 46.8516C77.1719 46.5352 77.3535 46.0605 77.3535 45.4277V44.8359ZM83.3594 41.4609C84.1211 41.4609 84.6973 41.6484 85.0879 42.0234C85.4785 42.3945 85.6738 42.9922 85.6738 43.8164V48H84.7129V43.8809C84.7129 43.3457 84.5898 42.9453 84.3438 42.6797C84.1016 42.4141 83.7285 42.2812 83.2246 42.2812C82.5137 42.2812 82.0137 42.4824 81.7246 42.8848C81.4355 43.2871 81.291 43.8711 81.291 44.6367V48H80.3184V41.5781H81.1035L81.25 42.5039H81.3027C81.4395 42.2773 81.6133 42.0879 81.8242 41.9355C82.0352 41.7793 82.2715 41.6621 82.5332 41.584C82.7949 41.502 83.0703 41.4609 83.3594 41.4609Z" fill="#3C6046"/>
<path d="M23.6484 57.5781C24.5859 57.5781 25.3594 57.6953 25.9688 57.9297C26.5833 58.1589 27.0417 58.5104 27.3438 58.9844C27.6458 59.4583 27.7969 60.0625 27.7969 60.7969C27.7969 61.401 27.6875 61.9062 27.4688 62.3125C27.25 62.7135 26.9635 63.0391 26.6094 63.2891C26.2552 63.5391 25.8776 63.7318 25.4766 63.8672L28.6094 69H27.0625L24.2656 64.2344H21.8906V69H20.5625V57.5781H23.6484ZM23.5703 58.7266H21.8906V63.1094H23.7031C24.6354 63.1094 25.3203 62.9193 25.7578 62.5391C26.2005 62.1589 26.4219 61.599 26.4219 60.8594C26.4219 60.0833 26.1875 59.5339 25.7188 59.2109C25.2552 58.888 24.5391 58.7266 23.5703 58.7266ZM34.2656 60.2812C35.3333 60.2812 36.1849 60.6484 36.8203 61.3828C37.4557 62.1172 37.7734 63.2214 37.7734 64.6953C37.7734 65.6693 37.6276 66.487 37.3359 67.1484C37.0443 67.8099 36.6328 68.3099 36.1016 68.6484C35.5755 68.987 34.9531 69.1562 34.2344 69.1562C33.7812 69.1562 33.3828 69.0964 33.0391 68.9766C32.6953 68.8568 32.401 68.6953 32.1562 68.4922C31.9115 68.2891 31.7083 68.0677 31.5469 67.8281H31.4531C31.4688 68.0312 31.487 68.276 31.5078 68.5625C31.5339 68.849 31.5469 69.099 31.5469 69.3125V72.8281H30.2422V60.4375H31.3125L31.4844 61.7031H31.5469C31.7135 61.4427 31.9167 61.2057 32.1562 60.9922C32.3958 60.7734 32.6875 60.6016 33.0312 60.4766C33.3802 60.3464 33.7917 60.2812 34.2656 60.2812ZM34.0391 61.375C33.4453 61.375 32.9661 61.4896 32.6016 61.7188C32.2422 61.9479 31.9792 62.2917 31.8125 62.75C31.6458 63.2031 31.5573 63.7734 31.5469 64.4609V64.7109C31.5469 65.4349 31.625 66.0469 31.7812 66.5469C31.9427 67.0469 32.2057 67.4271 32.5703 67.6875C32.9401 67.9479 33.4349 68.0781 34.0547 68.0781C34.5859 68.0781 35.0286 67.9349 35.3828 67.6484C35.737 67.362 36 66.9635 36.1719 66.4531C36.349 65.9375 36.4375 65.3464 36.4375 64.6797C36.4375 63.6693 36.2396 62.8672 35.8438 62.2734C35.4531 61.6745 34.8516 61.375 34.0391 61.375ZM46.5234 60.2422C46.5234 60.7526 46.4245 61.1953 46.2266 61.5703C46.0286 61.9453 45.7526 62.2526 45.3984 62.4922C45.0443 62.7266 44.6276 62.8906 44.1484 62.9844V63.0469C45.0547 63.1615 45.7344 63.4531 46.1875 63.9219C46.6458 64.3906 46.875 65.0052 46.875 65.7656C46.875 66.4271 46.7188 67.013 46.4062 67.5234C46.099 68.0339 45.625 68.4349 44.9844 68.7266C44.349 69.013 43.5339 69.1562 42.5391 69.1562C41.9349 69.1562 41.375 69.1068 40.8594 69.0078C40.349 68.9141 39.8594 68.7552 39.3906 68.5312V67.3125C39.8646 67.5469 40.3802 67.7318 40.9375 67.8672C41.4948 67.9974 42.0339 68.0625 42.5547 68.0625C43.5964 68.0625 44.349 67.8568 44.8125 67.4453C45.276 67.0286 45.5078 66.4609 45.5078 65.7422C45.5078 65.2474 45.3776 64.849 45.1172 64.5469C44.862 64.2396 44.4922 64.0156 44.0078 63.875C43.5286 63.7292 42.9505 63.6562 42.2734 63.6562H41.1328V62.5469H42.2812C42.901 62.5469 43.4271 62.4557 43.8594 62.2734C44.2917 62.0911 44.6198 61.8359 44.8438 61.5078C45.0729 61.1745 45.1875 60.7812 45.1875 60.3281C45.1875 59.75 44.9948 59.3047 44.6094 58.9922C44.224 58.6745 43.7005 58.5156 43.0391 58.5156C42.6328 58.5156 42.263 58.5573 41.9297 58.6406C41.5964 58.724 41.2839 58.8385 40.9922 58.9844C40.7005 59.1302 40.4089 59.2995 40.1172 59.4922L39.4609 58.6016C39.8776 58.2786 40.3854 58 40.9844 57.7656C41.5833 57.5312 42.263 57.4141 43.0234 57.4141C44.1901 57.4141 45.0651 57.6797 45.6484 58.2109C46.2318 58.7422 46.5234 59.4193 46.5234 60.2422ZM56.1641 63.2734C56.1641 64.2005 56.0938 65.0286 55.9531 65.7578C55.8125 66.487 55.5911 67.1042 55.2891 67.6094C54.987 68.1146 54.5964 68.5 54.1172 68.7656C53.638 69.026 53.0625 69.1562 52.3906 69.1562C51.5417 69.1562 50.8385 68.9245 50.2812 68.4609C49.7292 67.9974 49.3151 67.3281 49.0391 66.4531C48.7682 65.5729 48.6328 64.513 48.6328 63.2734C48.6328 62.0547 48.7552 61.0078 49 60.1328C49.25 59.2526 49.651 58.5781 50.2031 58.1094C50.7552 57.6354 51.4844 57.3984 52.3906 57.3984C53.25 57.3984 53.9583 57.6328 54.5156 58.1016C55.0729 58.5651 55.487 59.237 55.7578 60.1172C56.0286 60.9922 56.1641 62.0443 56.1641 63.2734ZM49.9375 63.2734C49.9375 64.3359 50.0182 65.2214 50.1797 65.9297C50.3411 66.638 50.6016 67.1693 50.9609 67.5234C51.3255 67.8724 51.8021 68.0469 52.3906 68.0469C52.9792 68.0469 53.4531 67.8724 53.8125 67.5234C54.1771 67.1745 54.4401 66.6458 54.6016 65.9375C54.7682 65.2292 54.8516 64.3411 54.8516 63.2734C54.8516 62.2266 54.7708 61.3516 54.6094 60.6484C54.4479 59.9401 54.1875 59.4089 53.8281 59.0547C53.4688 58.6953 52.9896 58.5156 52.3906 58.5156C51.7917 58.5156 51.3125 58.6953 50.9531 59.0547C50.5938 59.4089 50.3333 59.9401 50.1719 60.6484C50.0156 61.3516 49.9375 62.2266 49.9375 63.2734ZM65.3203 63.2734C65.3203 64.2005 65.25 65.0286 65.1094 65.7578C64.9688 66.487 64.7474 67.1042 64.4453 67.6094C64.1432 68.1146 63.7526 68.5 63.2734 68.7656C62.7943 69.026 62.2188 69.1562 61.5469 69.1562C60.6979 69.1562 59.9948 68.9245 59.4375 68.4609C58.8854 67.9974 58.4714 67.3281 58.1953 66.4531C57.9245 65.5729 57.7891 64.513 57.7891 63.2734C57.7891 62.0547 57.9115 61.0078 58.1562 60.1328C58.4062 59.2526 58.8073 58.5781 59.3594 58.1094C59.9115 57.6354 60.6406 57.3984 61.5469 57.3984C62.4062 57.3984 63.1146 57.6328 63.6719 58.1016C64.2292 58.5651 64.6432 59.237 64.9141 60.1172C65.1849 60.9922 65.3203 62.0443 65.3203 63.2734ZM59.0938 63.2734C59.0938 64.3359 59.1745 65.2214 59.3359 65.9297C59.4974 66.638 59.7578 67.1693 60.1172 67.5234C60.4818 67.8724 60.9583 68.0469 61.5469 68.0469C62.1354 68.0469 62.6094 67.8724 62.9688 67.5234C63.3333 67.1745 63.5964 66.6458 63.7578 65.9375C63.9245 65.2292 64.0078 64.3411 64.0078 63.2734C64.0078 62.2266 63.9271 61.3516 63.7656 60.6484C63.6042 59.9401 63.3438 59.4089 62.9844 59.0547C62.625 58.6953 62.1458 58.5156 61.5469 58.5156C60.9479 58.5156 60.4688 58.6953 60.1094 59.0547C59.75 59.4089 59.4896 59.9401 59.3281 60.6484C59.1719 61.3516 59.0938 62.2266 59.0938 63.2734ZM67.3125 68.1875C67.3125 67.8229 67.401 67.5651 67.5781 67.4141C67.7552 67.2578 67.9714 67.1797 68.2266 67.1797C68.4922 67.1797 68.7161 67.2578 68.8984 67.4141C69.0807 67.5651 69.1719 67.8229 69.1719 68.1875C69.1719 68.5469 69.0807 68.8099 68.8984 68.9766C68.7161 69.138 68.4922 69.2188 68.2266 69.2188C67.9714 69.2188 67.7552 69.138 67.5781 68.9766C67.401 68.8099 67.3125 68.5469 67.3125 68.1875ZM78.6797 63.2734C78.6797 64.2005 78.6094 65.0286 78.4688 65.7578C78.3281 66.487 78.1068 67.1042 77.8047 67.6094C77.5026 68.1146 77.112 68.5 76.6328 68.7656C76.1536 69.026 75.5781 69.1562 74.9062 69.1562C74.0573 69.1562 73.3542 68.9245 72.7969 68.4609C72.2448 67.9974 71.8307 67.3281 71.5547 66.4531C71.2839 65.5729 71.1484 64.513 71.1484 63.2734C71.1484 62.0547 71.2708 61.0078 71.5156 60.1328C71.7656 59.2526 72.1667 58.5781 72.7188 58.1094C73.2708 57.6354 74 57.3984 74.9062 57.3984C75.7656 57.3984 76.474 57.6328 77.0312 58.1016C77.5885 58.5651 78.0026 59.237 78.2734 60.1172C78.5443 60.9922 78.6797 62.0443 78.6797 63.2734ZM72.4531 63.2734C72.4531 64.3359 72.5339 65.2214 72.6953 65.9297C72.8568 66.638 73.1172 67.1693 73.4766 67.5234C73.8411 67.8724 74.3177 68.0469 74.9062 68.0469C75.4948 68.0469 75.9688 67.8724 76.3281 67.5234C76.6927 67.1745 76.9557 66.6458 77.1172 65.9375C77.2839 65.2292 77.3672 64.3411 77.3672 63.2734C77.3672 62.2266 77.2865 61.3516 77.125 60.6484C76.9635 59.9401 76.7031 59.4089 76.3438 59.0547C75.9844 58.6953 75.5052 58.5156 74.9062 58.5156C74.3073 58.5156 73.8281 58.6953 73.4688 59.0547C73.1094 59.4089 72.849 59.9401 72.6875 60.6484C72.5312 61.3516 72.4531 62.2266 72.4531 63.2734ZM87.8359 63.2734C87.8359 64.2005 87.7656 65.0286 87.625 65.7578C87.4844 66.487 87.263 67.1042 86.9609 67.6094C86.6589 68.1146 86.2682 68.5 85.7891 68.7656C85.3099 69.026 84.7344 69.1562 84.0625 69.1562C83.2135 69.1562 82.5104 68.9245 81.9531 68.4609C81.401 67.9974 80.987 67.3281 80.7109 66.4531C80.4401 65.5729 80.3047 64.513 80.3047 63.2734C80.3047 62.0547 80.4271 61.0078 80.6719 60.1328C80.9219 59.2526 81.3229 58.5781 81.875 58.1094C82.4271 57.6354 83.1562 57.3984 84.0625 57.3984C84.9219 57.3984 85.6302 57.6328 86.1875 58.1016C86.7448 58.5651 87.1589 59.237 87.4297 60.1172C87.7005 60.9922 87.8359 62.0443 87.8359 63.2734ZM81.6094 63.2734C81.6094 64.3359 81.6901 65.2214 81.8516 65.9297C82.013 66.638 82.2734 67.1693 82.6328 67.5234C82.9974 67.8724 83.474 68.0469 84.0625 68.0469C84.651 68.0469 85.125 67.8724 85.4844 67.5234C85.849 67.1745 86.112 66.6458 86.2734 65.9375C86.4401 65.2292 86.5234 64.3411 86.5234 63.2734C86.5234 62.2266 86.4427 61.3516 86.2812 60.6484C86.1198 59.9401 85.8594 59.4089 85.5 59.0547C85.1406 58.6953 84.6615 58.5156 84.0625 58.5156C83.4635 58.5156 82.9844 58.6953 82.625 59.0547C82.2656 59.4089 82.0052 59.9401 81.8438 60.6484C81.6875 61.3516 81.6094 62.2266 81.6094 63.2734ZM96.9922 63.2734C96.9922 64.2005 96.9219 65.0286 96.7812 65.7578C96.6406 66.487 96.4193 67.1042 96.1172 67.6094C95.8151 68.1146 95.4245 68.5 94.9453 68.7656C94.4661 69.026 93.8906 69.1562 93.2188 69.1562C92.3698 69.1562 91.6667 68.9245 91.1094 68.4609C90.5573 67.9974 90.1432 67.3281 89.8672 66.4531C89.5964 65.5729 89.4609 64.513 89.4609 63.2734C89.4609 62.0547 89.5833 61.0078 89.8281 60.1328C90.0781 59.2526 90.4792 58.5781 91.0312 58.1094C91.5833 57.6354 92.3125 57.3984 93.2188 57.3984C94.0781 57.3984 94.7865 57.6328 95.3438 58.1016C95.901 58.5651 96.3151 59.237 96.5859 60.1172C96.8568 60.9922 96.9922 62.0443 96.9922 63.2734ZM90.7656 63.2734C90.7656 64.3359 90.8464 65.2214 91.0078 65.9297C91.1693 66.638 91.4297 67.1693 91.7891 67.5234C92.1536 67.8724 92.6302 68.0469 93.2188 68.0469C93.8073 68.0469 94.2812 67.8724 94.6406 67.5234C95.0052 67.1745 95.2682 66.6458 95.4297 65.9375C95.5964 65.2292 95.6797 64.3411 95.6797 63.2734C95.6797 62.2266 95.599 61.3516 95.4375 60.6484C95.276 59.9401 95.0156 59.4089 94.6562 59.0547C94.2969 58.6953 93.8177 58.5156 93.2188 58.5156C92.6198 58.5156 92.1406 58.6953 91.7812 59.0547C91.4219 59.4089 91.1615 59.9401 91 60.6484C90.8438 61.3516 90.7656 62.2266 90.7656 63.2734Z" fill="#A7A7A7"/>
<path d="M167.617 69H166.352V60.9062C166.352 60.599 166.352 60.3359 166.352 60.1172C166.357 59.8932 166.362 59.6901 166.367 59.5078C166.378 59.3203 166.391 59.1302 166.406 58.9375C166.245 59.1042 166.094 59.2474 165.953 59.3672C165.812 59.4818 165.638 59.625 165.43 59.7969L164.125 60.8438L163.445 59.9609L166.539 57.5781H167.617V69ZM179.492 63.2734C179.492 64.2005 179.422 65.0286 179.281 65.7578C179.141 66.487 178.919 67.1042 178.617 67.6094C178.315 68.1146 177.924 68.5 177.445 68.7656C176.966 69.026 176.391 69.1562 175.719 69.1562C174.87 69.1562 174.167 68.9245 173.609 68.4609C173.057 67.9974 172.643 67.3281 172.367 66.4531C172.096 65.5729 171.961 64.513 171.961 63.2734C171.961 62.0547 172.083 61.0078 172.328 60.1328C172.578 59.2526 172.979 58.5781 173.531 58.1094C174.083 57.6354 174.812 57.3984 175.719 57.3984C176.578 57.3984 177.286 57.6328 177.844 58.1016C178.401 58.5651 178.815 59.237 179.086 60.1172C179.357 60.9922 179.492 62.0443 179.492 63.2734ZM173.266 63.2734C173.266 64.3359 173.346 65.2214 173.508 65.9297C173.669 66.638 173.93 67.1693 174.289 67.5234C174.654 67.8724 175.13 68.0469 175.719 68.0469C176.307 68.0469 176.781 67.8724 177.141 67.5234C177.505 67.1745 177.768 66.6458 177.93 65.9375C178.096 65.2292 178.18 64.3411 178.18 63.2734C178.18 62.2266 178.099 61.3516 177.938 60.6484C177.776 59.9401 177.516 59.4089 177.156 59.0547C176.797 58.6953 176.318 58.5156 175.719 58.5156C175.12 58.5156 174.641 58.6953 174.281 59.0547C173.922 59.4089 173.661 59.9401 173.5 60.6484C173.344 61.3516 173.266 62.2266 173.266 63.2734Z" fill="#A7A7A7"/>
<path d="M175.844 125.352H174.133V128H172.867V125.352H167.344V124.258L172.781 116.516H174.133V124.18H175.844V125.352ZM172.867 124.18V120.445C172.867 120.159 172.87 119.901 172.875 119.672C172.88 119.438 172.888 119.221 172.898 119.023C172.909 118.82 172.917 118.628 172.922 118.445C172.932 118.263 172.94 118.083 172.945 117.906H172.883C172.784 118.115 172.669 118.336 172.539 118.57C172.414 118.799 172.286 119.005 172.156 119.188L168.633 124.18H172.867Z" fill="#A7A7A7"/>
<path d="M230.906 123.117C230.906 122.43 230.953 121.758 231.047 121.102C231.146 120.445 231.31 119.836 231.539 119.273C231.768 118.706 232.081 118.208 232.477 117.781C232.872 117.354 233.365 117.021 233.953 116.781C234.547 116.536 235.258 116.414 236.086 116.414C236.32 116.414 236.573 116.427 236.844 116.453C237.115 116.474 237.339 116.51 237.516 116.562V117.68C237.323 117.612 237.102 117.562 236.852 117.531C236.607 117.5 236.359 117.484 236.109 117.484C235.141 117.484 234.378 117.695 233.82 118.117C233.268 118.539 232.87 119.112 232.625 119.836C232.38 120.555 232.24 121.365 232.203 122.266H232.289C232.451 122.005 232.656 121.771 232.906 121.562C233.156 121.349 233.458 121.18 233.812 121.055C234.172 120.93 234.589 120.867 235.062 120.867C235.729 120.867 236.31 121.003 236.805 121.273C237.305 121.544 237.69 121.938 237.961 122.453C238.237 122.969 238.375 123.594 238.375 124.328C238.375 125.115 238.229 125.794 237.938 126.367C237.646 126.94 237.229 127.383 236.688 127.695C236.151 128.003 235.51 128.156 234.766 128.156C234.208 128.156 233.695 128.049 233.227 127.836C232.758 127.622 232.349 127.305 232 126.883C231.656 126.461 231.388 125.938 231.195 125.312C231.003 124.682 230.906 123.951 230.906 123.117ZM234.75 127.062C235.458 127.062 236.026 126.836 236.453 126.383C236.88 125.93 237.094 125.245 237.094 124.328C237.094 123.578 236.904 122.984 236.523 122.547C236.143 122.109 235.57 121.891 234.805 121.891C234.284 121.891 233.831 122 233.445 122.219C233.06 122.432 232.76 122.703 232.547 123.031C232.333 123.359 232.227 123.693 232.227 124.031C232.227 124.375 232.276 124.724 232.375 125.078C232.479 125.432 232.635 125.76 232.844 126.062C233.052 126.365 233.315 126.607 233.633 126.789C233.951 126.971 234.323 127.062 234.75 127.062ZM243.648 131.844C243.383 131.844 243.151 131.823 242.953 131.781C242.755 131.745 242.583 131.701 242.438 131.648V130.594C242.599 130.646 242.763 130.685 242.93 130.711C243.096 130.742 243.284 130.758 243.492 130.758C243.846 130.758 244.133 130.659 244.352 130.461C244.57 130.263 244.68 129.904 244.68 129.383V119.438H245.977V129.352C245.977 129.872 245.893 130.318 245.727 130.688C245.56 131.062 245.305 131.349 244.961 131.547C244.617 131.745 244.18 131.844 243.648 131.844ZM244.562 117.086C244.562 116.794 244.635 116.581 244.781 116.445C244.932 116.305 245.12 116.234 245.344 116.234C245.557 116.234 245.74 116.305 245.891 116.445C246.047 116.581 246.125 116.794 246.125 117.086C246.125 117.372 246.047 117.586 245.891 117.727C245.74 117.867 245.557 117.938 245.344 117.938C245.12 117.938 244.932 117.867 244.781 117.727C244.635 117.586 244.562 117.372 244.562 117.086ZM251.93 119.297C252.951 119.297 253.708 119.526 254.203 119.984C254.698 120.443 254.945 121.174 254.945 122.18V128H254L253.75 126.734H253.688C253.448 127.047 253.198 127.31 252.938 127.523C252.677 127.732 252.375 127.891 252.031 128C251.693 128.104 251.276 128.156 250.781 128.156C250.26 128.156 249.797 128.065 249.391 127.883C248.99 127.701 248.672 127.424 248.438 127.055C248.208 126.685 248.094 126.216 248.094 125.648C248.094 124.794 248.432 124.138 249.109 123.68C249.786 123.221 250.818 122.971 252.203 122.93L253.68 122.867V122.344C253.68 121.604 253.521 121.086 253.203 120.789C252.885 120.492 252.438 120.344 251.859 120.344C251.411 120.344 250.984 120.409 250.578 120.539C250.172 120.669 249.786 120.823 249.422 121L249.023 120.016C249.409 119.818 249.852 119.648 250.352 119.508C250.852 119.367 251.378 119.297 251.93 119.297ZM253.664 123.781L252.359 123.836C251.292 123.878 250.539 124.052 250.102 124.359C249.664 124.667 249.445 125.102 249.445 125.664C249.445 126.154 249.594 126.516 249.891 126.75C250.188 126.984 250.581 127.102 251.07 127.102C251.831 127.102 252.453 126.891 252.938 126.469C253.422 126.047 253.664 125.414 253.664 124.57V123.781ZM266.914 119.281C267.857 119.281 268.568 119.529 269.047 120.023C269.526 120.513 269.766 121.302 269.766 122.391V128H268.484V122.453C268.484 121.76 268.333 121.242 268.031 120.898C267.734 120.549 267.292 120.375 266.703 120.375C265.875 120.375 265.273 120.615 264.898 121.094C264.523 121.573 264.336 122.279 264.336 123.211V128H263.047V122.453C263.047 121.99 262.979 121.604 262.844 121.297C262.714 120.99 262.516 120.76 262.25 120.609C261.99 120.453 261.659 120.375 261.258 120.375C260.69 120.375 260.234 120.492 259.891 120.727C259.547 120.961 259.297 121.31 259.141 121.773C258.99 122.232 258.914 122.797 258.914 123.469V128H257.617V119.438H258.664L258.859 120.648H258.93C259.102 120.352 259.318 120.102 259.578 119.898C259.839 119.695 260.13 119.542 260.453 119.438C260.776 119.333 261.12 119.281 261.484 119.281C262.135 119.281 262.68 119.404 263.117 119.648C263.56 119.888 263.88 120.255 264.078 120.75H264.148C264.43 120.255 264.815 119.888 265.305 119.648C265.794 119.404 266.331 119.281 266.914 119.281ZM283.492 128H276.008V126.914L279.062 123.812C279.63 123.24 280.107 122.729 280.492 122.281C280.883 121.833 281.18 121.393 281.383 120.961C281.586 120.523 281.688 120.044 281.688 119.523C281.688 118.878 281.495 118.385 281.109 118.047C280.729 117.703 280.227 117.531 279.602 117.531C279.055 117.531 278.57 117.625 278.148 117.812C277.727 118 277.294 118.266 276.852 118.609L276.156 117.734C276.458 117.479 276.786 117.253 277.141 117.055C277.5 116.857 277.883 116.701 278.289 116.586C278.701 116.471 279.138 116.414 279.602 116.414C280.305 116.414 280.911 116.536 281.422 116.781C281.932 117.026 282.326 117.375 282.602 117.828C282.883 118.281 283.023 118.82 283.023 119.445C283.023 120.049 282.904 120.612 282.664 121.133C282.424 121.648 282.089 122.161 281.656 122.672C281.224 123.177 280.719 123.714 280.141 124.281L277.656 126.758V126.812H283.492V128ZM288.773 121.016C289.549 121.016 290.224 121.148 290.797 121.414C291.37 121.674 291.812 122.055 292.125 122.555C292.443 123.055 292.602 123.661 292.602 124.375C292.602 125.156 292.432 125.831 292.094 126.398C291.755 126.961 291.268 127.396 290.633 127.703C289.997 128.005 289.237 128.156 288.352 128.156C287.758 128.156 287.206 128.104 286.695 128C286.185 127.896 285.755 127.74 285.406 127.531V126.297C285.786 126.526 286.247 126.708 286.789 126.844C287.331 126.979 287.857 127.047 288.367 127.047C288.945 127.047 289.451 126.956 289.883 126.773C290.32 126.586 290.659 126.305 290.898 125.93C291.143 125.549 291.266 125.073 291.266 124.5C291.266 123.74 291.031 123.154 290.562 122.742C290.099 122.326 289.365 122.117 288.359 122.117C288.036 122.117 287.682 122.143 287.297 122.195C286.911 122.247 286.594 122.305 286.344 122.367L285.688 121.938L286.125 116.578H291.805V117.766H287.234L286.945 121.211C287.143 121.169 287.398 121.128 287.711 121.086C288.023 121.039 288.378 121.016 288.773 121.016ZM308.352 119.281C309.294 119.281 310.005 119.529 310.484 120.023C310.964 120.513 311.203 121.302 311.203 122.391V128H309.922V122.453C309.922 121.76 309.771 121.242 309.469 120.898C309.172 120.549 308.729 120.375 308.141 120.375C307.312 120.375 306.711 120.615 306.336 121.094C305.961 121.573 305.773 122.279 305.773 123.211V128H304.484V122.453C304.484 121.99 304.417 121.604 304.281 121.297C304.151 120.99 303.953 120.76 303.688 120.609C303.427 120.453 303.096 120.375 302.695 120.375C302.128 120.375 301.672 120.492 301.328 120.727C300.984 120.961 300.734 121.31 300.578 121.773C300.427 122.232 300.352 122.797 300.352 123.469V128H299.055V119.438H300.102L300.297 120.648H300.367C300.539 120.352 300.755 120.102 301.016 119.898C301.276 119.695 301.568 119.542 301.891 119.438C302.214 119.333 302.557 119.281 302.922 119.281C303.573 119.281 304.117 119.404 304.555 119.648C304.997 119.888 305.318 120.255 305.516 120.75H305.586C305.867 120.255 306.253 119.888 306.742 119.648C307.232 119.404 307.768 119.281 308.352 119.281ZM315.164 119.438V128H313.867V119.438H315.164ZM314.531 116.234C314.745 116.234 314.927 116.305 315.078 116.445C315.234 116.581 315.312 116.794 315.312 117.086C315.312 117.372 315.234 117.586 315.078 117.727C314.927 117.867 314.745 117.938 314.531 117.938C314.307 117.938 314.12 117.867 313.969 117.727C313.823 117.586 313.75 117.372 313.75 117.086C313.75 116.794 313.823 116.581 313.969 116.445C314.12 116.305 314.307 116.234 314.531 116.234ZM321.969 119.281C322.984 119.281 323.753 119.531 324.273 120.031C324.794 120.526 325.055 121.323 325.055 122.422V128H323.773V122.508C323.773 121.794 323.609 121.26 323.281 120.906C322.958 120.552 322.461 120.375 321.789 120.375C320.841 120.375 320.174 120.643 319.789 121.18C319.404 121.716 319.211 122.495 319.211 123.516V128H317.914V119.438H318.961L319.156 120.672H319.227C319.409 120.37 319.641 120.117 319.922 119.914C320.203 119.706 320.518 119.549 320.867 119.445C321.216 119.336 321.583 119.281 321.969 119.281Z" fill="#A7A7A7"/>
<path d="M266.273 69H258.789V67.9141L261.844 64.8125C262.411 64.2396 262.888 63.7292 263.273 63.2812C263.664 62.8333 263.961 62.3932 264.164 61.9609C264.367 61.5234 264.469 61.0443 264.469 60.5234C264.469 59.8776 264.276 59.3854 263.891 59.0469C263.51 58.7031 263.008 58.5312 262.383 58.5312C261.836 58.5312 261.352 58.625 260.93 58.8125C260.508 59 260.076 59.2656 259.633 59.6094L258.938 58.7344C259.24 58.4792 259.568 58.2526 259.922 58.0547C260.281 57.8568 260.664 57.7005 261.07 57.5859C261.482 57.4714 261.919 57.4141 262.383 57.4141C263.086 57.4141 263.693 57.5365 264.203 57.7812C264.714 58.026 265.107 58.375 265.383 58.8281C265.664 59.2812 265.805 59.8203 265.805 60.4453C265.805 61.0495 265.685 61.612 265.445 62.1328C265.206 62.6484 264.87 63.1615 264.438 63.6719C264.005 64.1771 263.5 64.7135 262.922 65.2812L260.438 67.7578V67.8125H266.273V69ZM272.773 69H271.508V60.9062C271.508 60.599 271.508 60.3359 271.508 60.1172C271.513 59.8932 271.518 59.6901 271.523 59.5078C271.534 59.3203 271.547 59.1302 271.562 58.9375C271.401 59.1042 271.25 59.2474 271.109 59.3672C270.969 59.4818 270.794 59.625 270.586 59.7969L269.281 60.8438L268.602 59.9609L271.695 57.5781H272.773V69ZM277.484 68.1875C277.484 67.8229 277.573 67.5651 277.75 67.4141C277.927 67.2578 278.143 67.1797 278.398 67.1797C278.664 67.1797 278.888 67.2578 279.07 67.4141C279.253 67.5651 279.344 67.8229 279.344 68.1875C279.344 68.5469 279.253 68.8099 279.07 68.9766C278.888 69.138 278.664 69.2188 278.398 69.2188C278.143 69.2188 277.927 69.138 277.75 68.9766C277.573 68.8099 277.484 68.5469 277.484 68.1875ZM289.359 66.3516H287.648V69H286.383V66.3516H280.859V65.2578L286.297 57.5156H287.648V65.1797H289.359V66.3516ZM286.383 65.1797V61.4453C286.383 61.1589 286.385 60.901 286.391 60.6719C286.396 60.4375 286.404 60.2214 286.414 60.0234C286.424 59.8203 286.432 59.6276 286.438 59.4453C286.448 59.263 286.456 59.0833 286.461 58.9062H286.398C286.299 59.1146 286.185 59.3359 286.055 59.5703C285.93 59.7995 285.802 60.0052 285.672 60.1875L282.148 65.1797H286.383ZM292.328 56.8438V63.1562C292.328 63.3646 292.32 63.6198 292.305 63.9219C292.289 64.2188 292.276 64.4818 292.266 64.7109H292.32C292.43 64.5755 292.589 64.375 292.797 64.1094C293.01 63.8438 293.19 63.6302 293.336 63.4688L296.18 60.4375H297.703L294.258 64.0938L297.953 69H296.391L293.367 64.9453L292.328 65.8984V69H291.039V56.8438H292.328ZM308.742 60.2812C309.685 60.2812 310.396 60.5286 310.875 61.0234C311.354 61.513 311.594 62.3021 311.594 63.3906V69H310.312V63.4531C310.312 62.7604 310.161 62.2422 309.859 61.8984C309.562 61.5495 309.12 61.375 308.531 61.375C307.703 61.375 307.102 61.6146 306.727 62.0938C306.352 62.5729 306.164 63.2786 306.164 64.2109V69H304.875V63.4531C304.875 62.9896 304.807 62.6042 304.672 62.2969C304.542 61.9896 304.344 61.7604 304.078 61.6094C303.818 61.4531 303.487 61.375 303.086 61.375C302.518 61.375 302.062 61.4922 301.719 61.7266C301.375 61.9609 301.125 62.3099 300.969 62.7734C300.818 63.2318 300.742 63.7969 300.742 64.4688V69H299.445V60.4375H300.492L300.688 61.6484H300.758C300.93 61.3516 301.146 61.1016 301.406 60.8984C301.667 60.6953 301.958 60.5417 302.281 60.4375C302.604 60.3333 302.948 60.2812 303.312 60.2812C303.964 60.2812 304.508 60.4036 304.945 60.6484C305.388 60.888 305.708 61.2552 305.906 61.75H305.977C306.258 61.2552 306.643 60.888 307.133 60.6484C307.622 60.4036 308.159 60.2812 308.742 60.2812Z" fill="#A7A7A7"/>
<path d="M43.8438 125.352H42.1328V128H40.8672V125.352H35.3438V124.258L40.7812 116.516H42.1328V124.18H43.8438V125.352ZM40.8672 124.18V120.445C40.8672 120.159 40.8698 119.901 40.875 119.672C40.8802 119.438 40.888 119.221 40.8984 119.023C40.9089 118.82 40.9167 118.628 40.9219 118.445C40.9323 118.263 40.9401 118.083 40.9453 117.906H40.8828C40.7839 118.115 40.6693 118.336 40.5391 118.57C40.4141 118.799 40.2865 119.005 40.1562 119.188L36.6328 124.18H40.8672ZM45.3281 127.188C45.3281 126.823 45.4167 126.565 45.5938 126.414C45.7708 126.258 45.987 126.18 46.2422 126.18C46.5078 126.18 46.7318 126.258 46.9141 126.414C47.0964 126.565 47.1875 126.823 47.1875 127.188C47.1875 127.547 47.0964 127.81 46.9141 127.977C46.7318 128.138 46.5078 128.219 46.2422 128.219C45.987 128.219 45.7708 128.138 45.5938 127.977C45.4167 127.81 45.3281 127.547 45.3281 127.188ZM49.2656 123.117C49.2656 122.43 49.3125 121.758 49.4062 121.102C49.5052 120.445 49.6693 119.836 49.8984 119.273C50.1276 118.706 50.4401 118.208 50.8359 117.781C51.2318 117.354 51.724 117.021 52.3125 116.781C52.9062 116.536 53.6172 116.414 54.4453 116.414C54.6797 116.414 54.9323 116.427 55.2031 116.453C55.474 116.474 55.6979 116.51 55.875 116.562V117.68C55.6823 117.612 55.4609 117.562 55.2109 117.531C54.9661 117.5 54.7188 117.484 54.4688 117.484C53.5 117.484 52.737 117.695 52.1797 118.117C51.6276 118.539 51.2292 119.112 50.9844 119.836C50.7396 120.555 50.599 121.365 50.5625 122.266H50.6484C50.8099 122.005 51.0156 121.771 51.2656 121.562C51.5156 121.349 51.8177 121.18 52.1719 121.055C52.5312 120.93 52.9479 120.867 53.4219 120.867C54.0885 120.867 54.6693 121.003 55.1641 121.273C55.6641 121.544 56.0495 121.938 56.3203 122.453C56.5964 122.969 56.7344 123.594 56.7344 124.328C56.7344 125.115 56.5885 125.794 56.2969 126.367C56.0052 126.94 55.5885 127.383 55.0469 127.695C54.5104 128.003 53.8698 128.156 53.125 128.156C52.5677 128.156 52.0547 128.049 51.5859 127.836C51.1172 127.622 50.7083 127.305 50.3594 126.883C50.0156 126.461 49.7474 125.938 49.5547 125.312C49.362 124.682 49.2656 123.951 49.2656 123.117ZM53.1094 127.062C53.8177 127.062 54.3854 126.836 54.8125 126.383C55.2396 125.93 55.4531 125.245 55.4531 124.328C55.4531 123.578 55.263 122.984 54.8828 122.547C54.5026 122.109 53.9297 121.891 53.1641 121.891C52.6432 121.891 52.1901 122 51.8047 122.219C51.4193 122.432 51.1198 122.703 50.9062 123.031C50.6927 123.359 50.5859 123.693 50.5859 124.031C50.5859 124.375 50.6354 124.724 50.7344 125.078C50.8385 125.432 50.9948 125.76 51.2031 126.062C51.4115 126.365 51.6745 126.607 51.9922 126.789C52.3099 126.971 52.6823 127.062 53.1094 127.062Z" fill="#A7A7A7"/>
<path d="M65.9692 116.305C65.8811 116.118 65.6992 116 65.5 116C65.3008 116 65.1189 116.118 65.0308 116.305L63.6146 119.308L60.448 119.789C60.2509 119.819 60.0872 119.963 60.0256 120.162C59.9641 120.36 60.0154 120.577 60.158 120.723L62.4494 123.06L61.9085 126.36C61.8748 126.565 61.9555 126.773 62.1167 126.895C62.2778 127.018 62.4914 127.034 62.6677 126.937L65.5 125.379L68.3323 126.937C68.5086 127.034 68.7222 127.018 68.8833 126.895C69.0445 126.773 69.1252 126.565 69.0915 126.36L68.5506 123.06L70.842 120.723C70.9846 120.577 71.0359 120.36 70.9744 120.162C70.9128 119.963 70.7491 119.819 70.552 119.789L67.3854 119.308L65.9692 116.305Z" fill="#FAD965"/>
<defs>
<filter id="filter0_d_1083_1218" x="0" y="0" width="344" height="154" filterUnits="userSpaceOnUse" color-interpolation-filters="sRGB">
<feFlood flood-opacity="0" result="BackgroundImageFix"/>
<feColorMatrix in="SourceAlpha" type="matrix" values="0 0 0 0 0 0 0 0 0 0 0 0 0 0 0 0 0 0 127 0" result="hardAlpha"/>
<feOffset dy="4"/>
<feGaussianBlur stdDeviation="2"/>
<feComposite in2="hardAlpha" operator="out"/>
<feColorMatrix type="matrix" values="0 0 0 0 0 0 0 0 0 0 0 0 0 0 0 0 0 0 0.25 0"/>
<feBlend mode="normal" in2="BackgroundImageFix" result="effect1_dropShadow_1083_1218"/>
<feBlend mode="normal" in="SourceGraphic" in2="effect1_dropShadow_1083_1218" result="shape"/>
</filter>
</defs>
</svg>
