<svg width="124" height="108" viewBox="0 0 124 108" fill="none" xmlns="http://www.w3.org/2000/svg">
<g filter="url(#filter0_d_657_759)">
<rect x="4" width="116" height="100" rx="20" fill="#FCFDFE"/>
</g>
<path d="M20.0568 16.2727H21.3182L24.2841 23.517H24.3864L27.3523 16.2727H28.6136V25H27.625V18.3693H27.5398L24.8125 25H23.858L21.1307 18.3693H21.0455V25H20.0568V16.2727ZM30.7326 25V16.2727H35.9996V17.2102H31.7894V20.1591H35.7269V21.0966H31.7894V24.0625H36.0678V25H30.7326ZM44.8249 16.2727V25H43.8022L39.0465 18.1477H38.9613V25H37.9045V16.2727H38.9272L43.6999 23.142H43.7852V16.2727H44.8249ZM52.6669 16.2727H53.7237V22.0511C53.7237 22.6477 53.5831 23.1804 53.3018 23.6491C53.0234 24.1151 52.63 24.483 52.1214 24.7528C51.6129 25.0199 51.0163 25.1534 50.3317 25.1534C49.647 25.1534 49.0504 25.0199 48.5419 24.7528C48.0334 24.483 47.6385 24.1151 47.3572 23.6491C47.0788 23.1804 46.9396 22.6477 46.9396 22.0511V16.2727H47.9964V21.9659C47.9964 22.392 48.0902 22.7713 48.2777 23.1037C48.4652 23.4332 48.7322 23.6932 49.0788 23.8835C49.4283 24.071 49.8459 24.1648 50.3317 24.1648C50.8175 24.1648 51.2351 24.071 51.5845 23.8835C51.9339 23.6932 52.201 23.4332 52.3857 23.1037C52.5732 22.7713 52.6669 22.392 52.6669 21.9659V16.2727Z" fill="#2B4535"/>
<path d="M22.8864 32.6364C22.8523 32.3485 22.714 32.125 22.4716 31.9659C22.2292 31.8068 21.9318 31.7273 21.5795 31.7273C21.322 31.7273 21.0966 31.7689 20.9034 31.8523C20.7121 31.9356 20.5625 32.0502 20.4545 32.196C20.3485 32.3419 20.2955 32.5076 20.2955 32.6932C20.2955 32.8485 20.3324 32.982 20.4062 33.0938C20.482 33.2036 20.5786 33.2955 20.696 33.3693C20.8134 33.4413 20.9366 33.5009 21.0653 33.5483C21.1941 33.5937 21.3125 33.6307 21.4205 33.6591L22.0114 33.8182C22.1629 33.858 22.3314 33.9129 22.517 33.983C22.7045 34.053 22.8835 34.1487 23.054 34.2699C23.2263 34.3892 23.3684 34.5426 23.4801 34.7301C23.5919 34.9176 23.6477 35.1477 23.6477 35.4205C23.6477 35.7348 23.5653 36.0189 23.4006 36.2727C23.2377 36.5265 22.9991 36.7282 22.6847 36.8778C22.3722 37.0275 21.9924 37.1023 21.5455 37.1023C21.1288 37.1023 20.768 37.035 20.4631 36.9006C20.16 36.7661 19.9214 36.5786 19.7472 36.3381C19.5748 36.0975 19.4773 35.8182 19.4545 35.5H20.1818C20.2008 35.7197 20.2746 35.9015 20.4034 36.0455C20.5341 36.1875 20.6989 36.2936 20.8977 36.3636C21.0985 36.4318 21.3144 36.4659 21.5455 36.4659C21.8144 36.4659 22.0559 36.4223 22.2699 36.3352C22.4839 36.2462 22.6534 36.1231 22.7784 35.9659C22.9034 35.8068 22.9659 35.6212 22.9659 35.4091C22.9659 35.2159 22.9119 35.0587 22.804 34.9375C22.696 34.8163 22.554 34.7178 22.3778 34.642C22.2017 34.5663 22.0114 34.5 21.8068 34.4432L21.0909 34.2386C20.6364 34.108 20.2765 33.9214 20.0114 33.679C19.7462 33.4366 19.6136 33.1193 19.6136 32.7273C19.6136 32.4015 19.7017 32.1174 19.8778 31.875C20.0559 31.6307 20.2945 31.4413 20.5938 31.3068C20.8949 31.1705 21.2311 31.1023 21.6023 31.1023C21.9773 31.1023 22.3106 31.1695 22.6023 31.304C22.8939 31.4366 23.125 31.6184 23.2955 31.8494C23.4678 32.0805 23.5587 32.3428 23.5682 32.6364H22.8864ZM26.5447 37.0909C26.1243 37.0909 25.7616 36.9981 25.4567 36.8125C25.1536 36.625 24.9197 36.3636 24.755 36.0284C24.5921 35.6913 24.5107 35.2992 24.5107 34.8523C24.5107 34.4053 24.5921 34.0114 24.755 33.6705C24.9197 33.3277 25.1489 33.0606 25.4425 32.8693C25.7379 32.6761 26.0826 32.5795 26.4766 32.5795C26.7038 32.5795 26.9283 32.6174 27.1499 32.6932C27.3714 32.7689 27.5732 32.892 27.755 33.0625C27.9368 33.2311 28.0817 33.4545 28.1896 33.733C28.2976 34.0114 28.3516 34.3542 28.3516 34.7614V35.0455H24.9879V34.4659H27.6697C27.6697 34.2197 27.6205 34 27.522 33.8068C27.4254 33.6136 27.2872 33.4612 27.1072 33.3494C26.9292 33.2377 26.719 33.1818 26.4766 33.1818C26.2095 33.1818 25.9785 33.2481 25.7834 33.3807C25.5902 33.5114 25.4415 33.6818 25.3374 33.892C25.2332 34.1023 25.1811 34.3277 25.1811 34.5682V34.9545C25.1811 35.2841 25.2379 35.5634 25.3516 35.7926C25.4671 36.0199 25.6271 36.1932 25.8317 36.3125C26.0362 36.4299 26.2739 36.4886 26.5447 36.4886C26.7209 36.4886 26.88 36.464 27.022 36.4148C27.166 36.3636 27.29 36.2879 27.3942 36.1875C27.4983 36.0852 27.5788 35.9583 27.6357 35.8068L28.2834 35.9886C28.2152 36.2083 28.1006 36.4015 27.9396 36.5682C27.7786 36.733 27.5798 36.8617 27.343 36.9545C27.1063 37.0455 26.8402 37.0909 26.5447 37.0909ZM29.4624 37V31.1818H30.1328V33.3295H30.1896C30.2389 33.2538 30.3071 33.1572 30.3942 33.0398C30.4832 32.9205 30.6101 32.8144 30.7749 32.7216C30.9415 32.6269 31.1669 32.5795 31.451 32.5795C31.8184 32.5795 32.1423 32.6714 32.4226 32.8551C32.7029 33.0388 32.9216 33.2992 33.0788 33.6364C33.236 33.9735 33.3146 34.3712 33.3146 34.8295C33.3146 35.2917 33.236 35.6922 33.0788 36.0312C32.9216 36.3684 32.7038 36.6297 32.4254 36.8153C32.147 36.9991 31.826 37.0909 31.4624 37.0909C31.1821 37.0909 30.9576 37.0445 30.7891 36.9517C30.6205 36.857 30.4908 36.75 30.3999 36.6307C30.3089 36.5095 30.2389 36.4091 30.1896 36.3295H30.1101V37H29.4624ZM30.1214 34.8182C30.1214 35.1477 30.1697 35.4384 30.2663 35.6903C30.3629 35.9403 30.504 36.1364 30.6896 36.2784C30.8752 36.4186 31.1025 36.4886 31.3714 36.4886C31.6518 36.4886 31.8857 36.4148 32.0732 36.267C32.2625 36.1174 32.4046 35.9167 32.4993 35.6648C32.5959 35.411 32.6442 35.1288 32.6442 34.8182C32.6442 34.5114 32.5968 34.2348 32.5021 33.9886C32.4093 33.7405 32.2682 33.5445 32.0788 33.4006C31.8913 33.2547 31.6555 33.1818 31.3714 33.1818C31.0987 33.1818 30.8696 33.2509 30.6839 33.3892C30.4983 33.5256 30.3582 33.7169 30.2635 33.9631C30.1688 34.2074 30.1214 34.4924 30.1214 34.8182ZM35.0107 31.1818V37H34.3402V31.1818H35.0107ZM37.5227 37.1023C37.2462 37.1023 36.9953 37.0502 36.7699 36.946C36.5445 36.84 36.3655 36.6875 36.233 36.4886C36.1004 36.2879 36.0341 36.0455 36.0341 35.7614C36.0341 35.5114 36.0833 35.3087 36.1818 35.1534C36.2803 34.9962 36.4119 34.8731 36.5767 34.7841C36.7415 34.6951 36.9233 34.6288 37.1222 34.5852C37.3229 34.5398 37.5246 34.5038 37.7273 34.4773C37.9924 34.4432 38.2074 34.4176 38.3722 34.4006C38.5388 34.3816 38.66 34.3504 38.7358 34.3068C38.8134 34.2633 38.8523 34.1875 38.8523 34.0795V34.0568C38.8523 33.7765 38.7756 33.5587 38.6222 33.4034C38.4706 33.2481 38.2405 33.1705 37.9318 33.1705C37.6117 33.1705 37.3608 33.2405 37.179 33.3807C36.9972 33.5208 36.8693 33.6705 36.7955 33.8295L36.1591 33.6023C36.2727 33.3371 36.4242 33.1307 36.6136 32.983C36.8049 32.8333 37.0133 32.7292 37.2386 32.6705C37.4659 32.6098 37.6894 32.5795 37.9091 32.5795C38.0492 32.5795 38.2102 32.5966 38.392 32.6307C38.5758 32.6629 38.7528 32.7301 38.9233 32.8324C39.0956 32.9347 39.2386 33.089 39.3523 33.2955C39.4659 33.5019 39.5227 33.7784 39.5227 34.125V37H38.8523V36.4091H38.8182C38.7727 36.5038 38.697 36.6051 38.5909 36.7131C38.4848 36.821 38.3438 36.9129 38.1676 36.9886C37.9915 37.0644 37.7765 37.1023 37.5227 37.1023ZM37.625 36.5C37.8902 36.5 38.1136 36.4479 38.2955 36.3438C38.4792 36.2396 38.6174 36.1051 38.7102 35.9403C38.8049 35.7756 38.8523 35.6023 38.8523 35.4205V34.8068C38.8239 34.8409 38.7614 34.8722 38.6648 34.9006C38.5701 34.9271 38.4602 34.9508 38.3352 34.9716C38.2121 34.9905 38.0919 35.0076 37.9744 35.0227C37.8589 35.036 37.7652 35.0473 37.6932 35.0568C37.5189 35.0795 37.3561 35.1165 37.2045 35.1676C37.0549 35.2169 36.9337 35.2917 36.8409 35.392C36.75 35.4905 36.7045 35.625 36.7045 35.7955C36.7045 36.0284 36.7907 36.2045 36.9631 36.3239C37.1373 36.4413 37.358 36.5 37.625 36.5ZM41.3714 35.4091L41.3601 34.5795H41.4964L43.4055 32.6364H44.2351L42.201 34.6932H42.1442L41.3714 35.4091ZM40.7464 37V31.1818H41.4169V37H40.7464ZM43.5192 37L41.8146 34.8409L42.2919 34.375L44.3714 37H43.5192ZM19.7045 50V44.1818H21.7386C22.1439 44.1818 22.4782 44.2519 22.7415 44.392C23.0047 44.5303 23.2008 44.7169 23.3295 44.9517C23.4583 45.1847 23.5227 45.4432 23.5227 45.7273C23.5227 45.9773 23.4782 46.1837 23.3892 46.3466C23.3021 46.5095 23.1866 46.6383 23.0426 46.733C22.9006 46.8277 22.7462 46.8977 22.5795 46.9432V47C22.7576 47.0114 22.9366 47.0739 23.1165 47.1875C23.2964 47.3011 23.447 47.464 23.5682 47.6761C23.6894 47.8883 23.75 48.1477 23.75 48.4545C23.75 48.7462 23.6837 49.0085 23.5511 49.2415C23.4186 49.4744 23.2093 49.6591 22.9233 49.7955C22.6373 49.9318 22.2652 50 21.8068 50H19.7045ZM20.4091 49.375H21.8068C22.267 49.375 22.5938 49.286 22.7869 49.108C22.982 48.928 23.0795 48.7102 23.0795 48.4545C23.0795 48.2576 23.0294 48.0758 22.929 47.9091C22.8286 47.7405 22.6856 47.6061 22.5 47.5057C22.3144 47.4034 22.0947 47.3523 21.8409 47.3523H20.4091V49.375ZM20.4091 46.7386H21.7159C21.928 46.7386 22.1193 46.697 22.2898 46.6136C22.4621 46.5303 22.5985 46.4129 22.6989 46.2614C22.8011 46.1098 22.8523 45.9318 22.8523 45.7273C22.8523 45.4716 22.7633 45.2547 22.5852 45.0767C22.4072 44.8968 22.125 44.8068 21.7386 44.8068H20.4091V46.7386ZM27.5668 48.2159V45.6364H28.2372V50H27.5668V49.2614H27.5213C27.419 49.483 27.2599 49.6714 27.044 49.8267C26.8281 49.9801 26.5554 50.0568 26.2259 50.0568C25.9531 50.0568 25.7107 49.9972 25.4986 49.8778C25.2865 49.7566 25.1198 49.5748 24.9986 49.3324C24.8774 49.0881 24.8168 48.7803 24.8168 48.4091V45.6364H25.4872V48.3636C25.4872 48.6818 25.5762 48.9356 25.7543 49.125C25.9342 49.3144 26.1634 49.4091 26.4418 49.4091C26.6084 49.4091 26.7779 49.3665 26.9503 49.2812C27.1245 49.196 27.2704 49.0653 27.3878 48.8892C27.5071 48.7131 27.5668 48.4886 27.5668 48.2159ZM29.4652 50V45.6364H30.1129V46.2955H30.1584C30.2379 46.0795 30.3819 45.9044 30.5902 45.7699C30.7985 45.6354 31.0334 45.5682 31.2947 45.5682C31.344 45.5682 31.4055 45.5691 31.4794 45.571C31.5533 45.5729 31.6091 45.5758 31.647 45.5795V46.2614C31.6243 46.2557 31.5722 46.2472 31.4908 46.2358C31.4112 46.2225 31.3269 46.2159 31.2379 46.2159C31.0258 46.2159 30.8364 46.2604 30.6697 46.3494C30.505 46.4366 30.3743 46.5578 30.2777 46.7131C30.183 46.8665 30.1357 47.0417 30.1357 47.2386V50H29.4652ZM32.5327 50V44.1818H33.2031V46.3295H33.2599C33.3092 46.2538 33.3774 46.1572 33.4645 46.0398C33.5535 45.9205 33.6804 45.8144 33.8452 45.7216C34.0118 45.6269 34.2372 45.5795 34.5213 45.5795C34.8887 45.5795 35.2126 45.6714 35.4929 45.8551C35.7732 46.0388 35.992 46.2992 36.1491 46.6364C36.3063 46.9735 36.3849 47.3712 36.3849 47.8295C36.3849 48.2917 36.3063 48.6922 36.1491 49.0312C35.992 49.3684 35.7741 49.6297 35.4957 49.8153C35.2173 49.9991 34.8963 50.0909 34.5327 50.0909C34.2524 50.0909 34.0279 50.0445 33.8594 49.9517C33.6908 49.857 33.5611 49.75 33.4702 49.6307C33.3793 49.5095 33.3092 49.4091 33.2599 49.3295H33.1804V50H32.5327ZM33.1918 47.8182C33.1918 48.1477 33.2401 48.4384 33.3366 48.6903C33.4332 48.9403 33.5743 49.1364 33.7599 49.2784C33.9455 49.4186 34.1728 49.4886 34.4418 49.4886C34.7221 49.4886 34.956 49.4148 35.1435 49.267C35.3329 49.1174 35.4749 48.9167 35.5696 48.6648C35.6662 48.411 35.7145 48.1288 35.7145 47.8182C35.7145 47.5114 35.6671 47.2348 35.5724 46.9886C35.4796 46.7405 35.3385 46.5445 35.1491 46.4006C34.9616 46.2547 34.7259 46.1818 34.4418 46.1818C34.169 46.1818 33.9399 46.2509 33.7543 46.3892C33.5687 46.5256 33.4285 46.7169 33.3338 46.9631C33.2391 47.2074 33.1918 47.4924 33.1918 47.8182ZM40.1605 48.2159V45.6364H40.831V50H40.1605V49.2614H40.1151C40.0128 49.483 39.8537 49.6714 39.6378 49.8267C39.4219 49.9801 39.1491 50.0568 38.8196 50.0568C38.5469 50.0568 38.3045 49.9972 38.0923 49.8778C37.8802 49.7566 37.7135 49.5748 37.5923 49.3324C37.4711 49.0881 37.4105 48.7803 37.4105 48.4091V45.6364H38.081V48.3636C38.081 48.6818 38.17 48.9356 38.348 49.125C38.5279 49.3144 38.7571 49.4091 39.0355 49.4091C39.2022 49.4091 39.3717 49.3665 39.544 49.2812C39.7183 49.196 39.8641 49.0653 39.9815 48.8892C40.1009 48.7131 40.1605 48.4886 40.1605 48.2159ZM42.0589 50V45.6364H42.7067V46.2955H42.7521C42.8317 46.0795 42.9756 45.9044 43.1839 45.7699C43.3923 45.6354 43.6271 45.5682 43.8885 45.5682C43.9377 45.5682 43.9993 45.5691 44.0732 45.571C44.147 45.5729 44.2029 45.5758 44.2408 45.5795V46.2614C44.218 46.2557 44.166 46.2472 44.0845 46.2358C44.005 46.2225 43.9207 46.2159 43.8317 46.2159C43.6196 46.2159 43.4302 46.2604 43.2635 46.3494C43.0987 46.4366 42.968 46.5578 42.8714 46.7131C42.7768 46.8665 42.7294 47.0417 42.7294 47.2386V50H42.0589ZM19.9432 63H19.2045L21.3409 57.1818H22.0682L24.2045 63H23.4659L21.7273 58.1023H21.6818L19.9432 63ZM20.2159 60.7273H23.1932V61.3523H20.2159V60.7273ZM24.9048 64.6364C24.7912 64.6364 24.6899 64.6269 24.6009 64.608C24.5118 64.5909 24.4503 64.5739 24.4162 64.5568L24.5866 63.9659C24.7495 64.0076 24.8935 64.0227 25.0185 64.0114C25.1435 64 25.2543 63.9441 25.3509 63.8438C25.4493 63.7453 25.5393 63.5852 25.6207 63.3636L25.7457 63.0227L24.1321 58.6364H24.8594L26.0639 62.1136H26.1094L27.3139 58.6364H28.0412L26.1889 63.6364C26.1056 63.8617 26.0024 64.0483 25.8793 64.196C25.7562 64.3456 25.6132 64.4564 25.4503 64.5284C25.2893 64.6004 25.1075 64.6364 24.9048 64.6364ZM30.0774 63.1023C29.8009 63.1023 29.55 63.0502 29.3246 62.946C29.0992 62.84 28.9202 62.6875 28.7876 62.4886C28.6551 62.2879 28.5888 62.0455 28.5888 61.7614C28.5888 61.5114 28.638 61.3087 28.7365 61.1534C28.835 60.9962 28.9666 60.8731 29.1314 60.7841C29.2962 60.6951 29.478 60.6288 29.6768 60.5852C29.8776 60.5398 30.0793 60.5038 30.282 60.4773C30.5471 60.4432 30.7621 60.4176 30.9268 60.4006C31.0935 60.3816 31.2147 60.3504 31.2905 60.3068C31.3681 60.2633 31.407 60.1875 31.407 60.0795V60.0568C31.407 59.7765 31.3303 59.5587 31.1768 59.4034C31.0253 59.2481 30.7952 59.1705 30.4865 59.1705C30.1664 59.1705 29.9155 59.2405 29.7337 59.3807C29.5518 59.5208 29.424 59.6705 29.3501 59.8295L28.7138 59.6023C28.8274 59.3371 28.9789 59.1307 29.1683 58.983C29.3596 58.8333 29.5679 58.7292 29.7933 58.6705C30.0206 58.6098 30.2441 58.5795 30.4638 58.5795C30.6039 58.5795 30.7649 58.5966 30.9467 58.6307C31.1304 58.6629 31.3075 58.7301 31.478 58.8324C31.6503 58.9347 31.7933 59.089 31.907 59.2955C32.0206 59.5019 32.0774 59.7784 32.0774 60.125V63H31.407V62.4091H31.3729C31.3274 62.5038 31.2517 62.6051 31.1456 62.7131C31.0395 62.821 30.8984 62.9129 30.7223 62.9886C30.5462 63.0644 30.3312 63.1023 30.0774 63.1023ZM30.1797 62.5C30.4448 62.5 30.6683 62.4479 30.8501 62.3438C31.0339 62.2396 31.1721 62.1051 31.2649 61.9403C31.3596 61.7756 31.407 61.6023 31.407 61.4205V60.8068C31.3786 60.8409 31.3161 60.8722 31.2195 60.9006C31.1248 60.9271 31.0149 60.9508 30.8899 60.9716C30.7668 60.9905 30.6465 61.0076 30.5291 61.0227C30.4136 61.036 30.3198 61.0473 30.2479 61.0568C30.0736 61.0795 29.9107 61.1165 29.7592 61.1676C29.6096 61.2169 29.4884 61.2917 29.3956 61.392C29.3047 61.4905 29.2592 61.625 29.2592 61.7955C29.2592 62.0284 29.3454 62.2045 29.5178 62.3239C29.692 62.4413 29.9126 62.5 30.1797 62.5ZM35.0625 64.7273C34.7386 64.7273 34.4602 64.6856 34.2273 64.6023C33.9943 64.5208 33.8002 64.4129 33.6449 64.2784C33.4915 64.1458 33.3693 64.0038 33.2784 63.8523L33.8125 63.4773C33.8731 63.5568 33.9498 63.6477 34.0426 63.75C34.1354 63.8542 34.2623 63.9441 34.4233 64.0199C34.5862 64.0975 34.7992 64.1364 35.0625 64.1364C35.4148 64.1364 35.7055 64.0511 35.9347 63.8807C36.1638 63.7102 36.2784 63.4432 36.2784 63.0795V62.1932H36.2216C36.1723 62.2727 36.1023 62.3712 36.0114 62.4886C35.9223 62.6042 35.7936 62.7074 35.625 62.7983C35.4583 62.8873 35.233 62.9318 34.9489 62.9318C34.5966 62.9318 34.2803 62.8485 34 62.6818C33.7216 62.5152 33.5009 62.2727 33.3381 61.9545C33.1771 61.6364 33.0966 61.25 33.0966 60.7955C33.0966 60.3485 33.1752 59.9593 33.3324 59.6278C33.4896 59.2945 33.7083 59.0369 33.9886 58.8551C34.2689 58.6714 34.5928 58.5795 34.9602 58.5795C35.2443 58.5795 35.4697 58.6269 35.6364 58.7216C35.8049 58.8144 35.9337 58.9205 36.0227 59.0398C36.1136 59.1572 36.1837 59.2538 36.233 59.3295H36.3011V58.6364H36.9489V63.125C36.9489 63.5 36.8636 63.8049 36.6932 64.0398C36.5246 64.2765 36.2973 64.4498 36.0114 64.5597C35.7273 64.6714 35.411 64.7273 35.0625 64.7273ZM35.0398 62.3295C35.3087 62.3295 35.536 62.268 35.7216 62.1449C35.9072 62.0218 36.0483 61.8447 36.1449 61.6136C36.2415 61.3826 36.2898 61.1061 36.2898 60.7841C36.2898 60.4697 36.2424 60.1922 36.1477 59.9517C36.053 59.7112 35.9129 59.5227 35.7273 59.3864C35.5417 59.25 35.3125 59.1818 35.0398 59.1818C34.7557 59.1818 34.5189 59.2538 34.3295 59.3977C34.142 59.5417 34.0009 59.7348 33.9062 59.9773C33.8134 60.2197 33.767 60.4886 33.767 60.7841C33.767 61.0871 33.8144 61.3551 33.9091 61.5881C34.0057 61.8191 34.1477 62.0009 34.3352 62.1335C34.5246 62.2642 34.7595 62.3295 35.0398 62.3295ZM40.517 57.1818H41.358L43.3352 62.0114H43.4034L45.3807 57.1818H46.2216V63H45.5625V58.5795H45.5057L43.6875 63H43.0511L41.233 58.5795H41.1761V63H40.517V57.1818ZM49.3161 63.0909C48.9221 63.0909 48.5765 62.9972 48.2791 62.8097C47.9837 62.6222 47.7526 62.3598 47.5859 62.0227C47.4212 61.6856 47.3388 61.2917 47.3388 60.8409C47.3388 60.3864 47.4212 59.9896 47.5859 59.6506C47.7526 59.3116 47.9837 59.0483 48.2791 58.8608C48.5765 58.6733 48.9221 58.5795 49.3161 58.5795C49.71 58.5795 50.0547 58.6733 50.3501 58.8608C50.6475 59.0483 50.8786 59.3116 51.0433 59.6506C51.21 59.9896 51.2933 60.3864 51.2933 60.8409C51.2933 61.2917 51.21 61.6856 51.0433 62.0227C50.8786 62.3598 50.6475 62.6222 50.3501 62.8097C50.0547 62.9972 49.71 63.0909 49.3161 63.0909ZM49.3161 62.4886C49.6153 62.4886 49.8615 62.4119 50.0547 62.2585C50.2479 62.1051 50.3909 61.9034 50.4837 61.6534C50.5765 61.4034 50.6229 61.1326 50.6229 60.8409C50.6229 60.5492 50.5765 60.2775 50.4837 60.0256C50.3909 59.7737 50.2479 59.5701 50.0547 59.4148C49.8615 59.2595 49.6153 59.1818 49.3161 59.1818C49.0168 59.1818 48.7706 59.2595 48.5774 59.4148C48.3842 59.5701 48.2412 59.7737 48.1484 60.0256C48.0556 60.2775 48.0092 60.5492 48.0092 60.8409C48.0092 61.1326 48.0556 61.4034 48.1484 61.6534C48.2412 61.9034 48.3842 62.1051 48.5774 62.2585C48.7706 62.4119 49.0168 62.4886 49.3161 62.4886ZM52.3168 63V58.6364H52.9645V59.2955H53.0099C53.0895 59.0795 53.2334 58.9044 53.4418 58.7699C53.6501 58.6354 53.8849 58.5682 54.1463 58.5682C54.1955 58.5682 54.2571 58.5691 54.331 58.571C54.4048 58.5729 54.4607 58.5758 54.4986 58.5795V59.2614C54.4759 59.2557 54.4238 59.2472 54.3423 59.2358C54.2628 59.2225 54.1785 59.2159 54.0895 59.2159C53.8774 59.2159 53.688 59.2604 53.5213 59.3494C53.3565 59.4366 53.2259 59.5578 53.1293 59.7131C53.0346 59.8665 52.9872 60.0417 52.9872 60.2386V63H52.3168ZM56.9901 63.0909C56.5696 63.0909 56.2069 62.9981 55.902 62.8125C55.599 62.625 55.3651 62.3636 55.2003 62.0284C55.0374 61.6913 54.956 61.2992 54.956 60.8523C54.956 60.4053 55.0374 60.0114 55.2003 59.6705C55.3651 59.3277 55.5942 59.0606 55.8878 58.8693C56.1832 58.6761 56.5279 58.5795 56.9219 58.5795C57.1491 58.5795 57.3736 58.6174 57.5952 58.6932C57.8168 58.7689 58.0185 58.892 58.2003 59.0625C58.3821 59.2311 58.527 59.4545 58.6349 59.733C58.7429 60.0114 58.7969 60.3542 58.7969 60.7614V61.0455H55.4332V60.4659H58.1151C58.1151 60.2197 58.0658 60 57.9673 59.8068C57.8707 59.6136 57.7325 59.4612 57.5526 59.3494C57.3745 59.2377 57.1643 59.1818 56.9219 59.1818C56.6548 59.1818 56.4238 59.2481 56.2287 59.3807C56.0355 59.5114 55.8868 59.6818 55.7827 59.892C55.6785 60.1023 55.6264 60.3277 55.6264 60.5682V60.9545C55.6264 61.2841 55.6832 61.5634 55.7969 61.7926C55.9124 62.0199 56.0724 62.1932 56.277 62.3125C56.4815 62.4299 56.7192 62.4886 56.9901 62.4886C57.1662 62.4886 57.3253 62.464 57.4673 62.4148C57.6113 62.3636 57.7353 62.2879 57.8395 62.1875C57.9437 62.0852 58.0241 61.9583 58.081 61.8068L58.7287 61.9886C58.6605 62.2083 58.5459 62.4015 58.3849 62.5682C58.224 62.733 58.0251 62.8617 57.7884 62.9545C57.5516 63.0455 57.2855 63.0909 56.9901 63.0909ZM60.4872 60.375V63H59.8168V58.6364H60.4645V59.3182H60.5213C60.6236 59.0966 60.7789 58.9186 60.9872 58.7841C61.1955 58.6477 61.4645 58.5795 61.794 58.5795C62.0895 58.5795 62.348 58.6402 62.5696 58.7614C62.7912 58.8807 62.9635 59.0625 63.0866 59.3068C63.2098 59.5492 63.2713 59.8561 63.2713 60.2273V63H62.6009V60.2727C62.6009 59.9299 62.5118 59.6629 62.3338 59.4716C62.1558 59.2784 61.9115 59.1818 61.6009 59.1818C61.3868 59.1818 61.1955 59.2282 61.027 59.321C60.8603 59.4138 60.7287 59.5492 60.6321 59.7273C60.5355 59.9053 60.4872 60.1212 60.4872 60.375ZM66.2578 64.7273C65.9339 64.7273 65.6555 64.6856 65.4226 64.6023C65.1896 64.5208 64.9955 64.4129 64.8402 64.2784C64.6868 64.1458 64.5646 64.0038 64.4737 63.8523L65.0078 63.4773C65.0684 63.5568 65.1451 63.6477 65.2379 63.75C65.3307 63.8542 65.4576 63.9441 65.6186 64.0199C65.7815 64.0975 65.9946 64.1364 66.2578 64.1364C66.6101 64.1364 66.9008 64.0511 67.13 63.8807C67.3591 63.7102 67.4737 63.4432 67.4737 63.0795V62.1932H67.4169C67.3677 62.2727 67.2976 62.3712 67.2067 62.4886C67.1177 62.6042 66.9889 62.7074 66.8203 62.7983C66.6536 62.8873 66.4283 62.9318 66.1442 62.9318C65.7919 62.9318 65.4756 62.8485 65.1953 62.6818C64.9169 62.5152 64.6963 62.2727 64.5334 61.9545C64.3724 61.6364 64.2919 61.25 64.2919 60.7955C64.2919 60.3485 64.3705 59.9593 64.5277 59.6278C64.6849 59.2945 64.9036 59.0369 65.1839 58.8551C65.4643 58.6714 65.7881 58.5795 66.1555 58.5795C66.4396 58.5795 66.665 58.6269 66.8317 58.7216C67.0002 58.8144 67.129 58.9205 67.218 59.0398C67.3089 59.1572 67.379 59.2538 67.4283 59.3295H67.4964V58.6364H68.1442V63.125C68.1442 63.5 68.0589 63.8049 67.8885 64.0398C67.7199 64.2765 67.4927 64.4498 67.2067 64.5597C66.9226 64.6714 66.6063 64.7273 66.2578 64.7273ZM66.2351 62.3295C66.504 62.3295 66.7313 62.268 66.9169 62.1449C67.1025 62.0218 67.2436 61.8447 67.3402 61.6136C67.4368 61.3826 67.4851 61.1061 67.4851 60.7841C67.4851 60.4697 67.4377 60.1922 67.343 59.9517C67.2483 59.7112 67.1082 59.5227 66.9226 59.3864C66.737 59.25 66.5078 59.1818 66.2351 59.1818C65.951 59.1818 65.7143 59.2538 65.5249 59.3977C65.3374 59.5417 65.1963 59.7348 65.1016 59.9773C65.0088 60.2197 64.9624 60.4886 64.9624 60.7841C64.9624 61.0871 65.0097 61.3551 65.1044 61.5881C65.201 61.8191 65.343 62.0009 65.5305 62.1335C65.7199 62.2642 65.9548 62.3295 66.2351 62.3295ZM19.7045 70.1818H20.5455L22.5227 75.0114H22.5909L24.5682 70.1818H25.4091V76H24.75V71.5795H24.6932L22.875 76H22.2386L20.4205 71.5795H20.3636V76H19.7045V70.1818ZM28.0149 76.1023C27.7384 76.1023 27.4875 76.0502 27.2621 75.946C27.0367 75.84 26.8577 75.6875 26.7251 75.4886C26.5926 75.2879 26.5263 75.0455 26.5263 74.7614C26.5263 74.5114 26.5755 74.3087 26.674 74.1534C26.7725 73.9962 26.9041 73.8731 27.0689 73.7841C27.2337 73.6951 27.4155 73.6288 27.6143 73.5852C27.8151 73.5398 28.0168 73.5038 28.2195 73.4773C28.4846 73.4432 28.6996 73.4176 28.8643 73.4006C29.031 73.3816 29.1522 73.3504 29.228 73.3068C29.3056 73.2633 29.3445 73.1875 29.3445 73.0795V73.0568C29.3445 72.7765 29.2678 72.5587 29.1143 72.4034C28.9628 72.2481 28.7327 72.1705 28.424 72.1705C28.1039 72.1705 27.853 72.2405 27.6712 72.3807C27.4893 72.5208 27.3615 72.6705 27.2876 72.8295L26.6513 72.6023C26.7649 72.3371 26.9164 72.1307 27.1058 71.983C27.2971 71.8333 27.5054 71.7292 27.7308 71.6705C27.9581 71.6098 28.1816 71.5795 28.4013 71.5795C28.5414 71.5795 28.7024 71.5966 28.8842 71.6307C29.0679 71.6629 29.245 71.7301 29.4155 71.8324C29.5878 71.9347 29.7308 72.089 29.8445 72.2955C29.9581 72.5019 30.0149 72.7784 30.0149 73.125V76H29.3445V75.4091H29.3104C29.2649 75.5038 29.1892 75.6051 29.0831 75.7131C28.977 75.821 28.8359 75.9129 28.6598 75.9886C28.4837 76.0644 28.2687 76.1023 28.0149 76.1023ZM28.1172 75.5C28.3823 75.5 28.6058 75.4479 28.7876 75.3438C28.9714 75.2396 29.1096 75.1051 29.2024 74.9403C29.2971 74.7756 29.3445 74.6023 29.3445 74.4205V73.8068C29.3161 73.8409 29.2536 73.8722 29.157 73.9006C29.0623 73.9271 28.9524 73.9508 28.8274 73.9716C28.7043 73.9905 28.584 74.0076 28.4666 74.0227C28.3511 74.036 28.2573 74.0473 28.1854 74.0568C28.0111 74.0795 27.8482 74.1165 27.6967 74.1676C27.5471 74.2169 27.4259 74.2917 27.3331 74.392C27.2422 74.4905 27.1967 74.625 27.1967 74.7955C27.1967 75.0284 27.2829 75.2045 27.4553 75.3239C27.6295 75.4413 27.8501 75.5 28.1172 75.5ZM34.3295 72.6136L33.7273 72.7841C33.6894 72.6837 33.6335 72.5862 33.5597 72.4915C33.4877 72.3949 33.3892 72.3153 33.2642 72.2528C33.1392 72.1903 32.9792 72.1591 32.7841 72.1591C32.517 72.1591 32.2945 72.2206 32.1165 72.3438C31.9403 72.465 31.8523 72.6193 31.8523 72.8068C31.8523 72.9735 31.9129 73.1051 32.0341 73.2017C32.1553 73.2983 32.3447 73.3788 32.6023 73.4432L33.25 73.6023C33.6402 73.697 33.9309 73.8419 34.1222 74.0369C34.3134 74.2301 34.4091 74.4792 34.4091 74.7841C34.4091 75.0341 34.3371 75.2576 34.1932 75.4545C34.0511 75.6515 33.8523 75.8068 33.5966 75.9205C33.3409 76.0341 33.0436 76.0909 32.7045 76.0909C32.2595 76.0909 31.8911 75.9943 31.5994 75.8011C31.3078 75.608 31.1231 75.3258 31.0455 74.9545L31.6818 74.7955C31.7424 75.0303 31.857 75.2064 32.0256 75.3239C32.196 75.4413 32.4186 75.5 32.6932 75.5C33.0057 75.5 33.2538 75.4337 33.4375 75.3011C33.6231 75.1667 33.7159 75.0057 33.7159 74.8182C33.7159 74.6667 33.6629 74.5398 33.5568 74.4375C33.4508 74.3333 33.2879 74.2557 33.0682 74.2045L32.3409 74.0341C31.9413 73.9394 31.6477 73.7926 31.4602 73.5938C31.2746 73.393 31.1818 73.142 31.1818 72.8409C31.1818 72.5947 31.2509 72.3769 31.3892 72.1875C31.5294 71.9981 31.7197 71.8494 31.9602 71.7415C32.2027 71.6335 32.4773 71.5795 32.7841 71.5795C33.2159 71.5795 33.5549 71.6742 33.8011 71.8636C34.0492 72.053 34.2254 72.303 34.3295 72.6136ZM35.4183 76V71.6364H36.0888V76H35.4183ZM35.7592 70.9091C35.6286 70.9091 35.5159 70.8646 35.4212 70.7756C35.3284 70.6866 35.282 70.5795 35.282 70.4545C35.282 70.3295 35.3284 70.2225 35.4212 70.1335C35.5159 70.0445 35.6286 70 35.7592 70C35.8899 70 36.0017 70.0445 36.0945 70.1335C36.1892 70.2225 36.2365 70.3295 36.2365 70.4545C36.2365 70.5795 36.1892 70.6866 36.0945 70.7756C36.0017 70.8646 35.8899 70.9091 35.7592 70.9091ZM37.9872 73.375V76H37.3168V71.6364H37.9645V72.3182H38.0213C38.1236 72.0966 38.2789 71.9186 38.4872 71.7841C38.6955 71.6477 38.9645 71.5795 39.294 71.5795C39.5895 71.5795 39.848 71.6402 40.0696 71.7614C40.2912 71.8807 40.4635 72.0625 40.5866 72.3068C40.7098 72.5492 40.7713 72.8561 40.7713 73.2273V76H40.1009V73.2727C40.1009 72.9299 40.0118 72.6629 39.8338 72.4716C39.6558 72.2784 39.4115 72.1818 39.1009 72.1818C38.8868 72.1818 38.6955 72.2282 38.527 72.321C38.3603 72.4138 38.2287 72.5492 38.1321 72.7273C38.0355 72.9053 37.9872 73.1212 37.9872 73.375ZM43.2805 76.1023C43.004 76.1023 42.7531 76.0502 42.5277 75.946C42.3023 75.84 42.1233 75.6875 41.9908 75.4886C41.8582 75.2879 41.7919 75.0455 41.7919 74.7614C41.7919 74.5114 41.8411 74.3087 41.9396 74.1534C42.0381 73.9962 42.1697 73.8731 42.3345 73.7841C42.4993 73.6951 42.6811 73.6288 42.88 73.5852C43.0807 73.5398 43.2824 73.5038 43.4851 73.4773C43.7502 73.4432 43.9652 73.4176 44.13 73.4006C44.2966 73.3816 44.4179 73.3504 44.4936 73.3068C44.5713 73.2633 44.6101 73.1875 44.6101 73.0795V73.0568C44.6101 72.7765 44.5334 72.5587 44.38 72.4034C44.2285 72.2481 43.9983 72.1705 43.6896 72.1705C43.3696 72.1705 43.1186 72.2405 42.9368 72.3807C42.755 72.5208 42.6271 72.6705 42.5533 72.8295L41.9169 72.6023C42.0305 72.3371 42.1821 72.1307 42.3714 71.983C42.5627 71.8333 42.7711 71.7292 42.9964 71.6705C43.2237 71.6098 43.4472 71.5795 43.6669 71.5795C43.8071 71.5795 43.968 71.5966 44.1499 71.6307C44.3336 71.6629 44.5107 71.7301 44.6811 71.8324C44.8535 71.9347 44.9964 72.089 45.1101 72.2955C45.2237 72.5019 45.2805 72.7784 45.2805 73.125V76H44.6101V75.4091H44.576C44.5305 75.5038 44.4548 75.6051 44.3487 75.7131C44.2427 75.821 44.1016 75.9129 43.9254 75.9886C43.7493 76.0644 43.5343 76.1023 43.2805 76.1023ZM43.3828 75.5C43.648 75.5 43.8714 75.4479 44.0533 75.3438C44.237 75.2396 44.3752 75.1051 44.468 74.9403C44.5627 74.7756 44.6101 74.6023 44.6101 74.4205V73.8068C44.5817 73.8409 44.5192 73.8722 44.4226 73.9006C44.3279 73.9271 44.218 73.9508 44.093 73.9716C43.9699 73.9905 43.8497 74.0076 43.7322 74.0227C43.6167 74.036 43.523 74.0473 43.451 74.0568C43.2768 74.0795 43.1139 74.1165 42.9624 74.1676C42.8127 74.2169 42.6915 74.2917 42.5987 74.392C42.5078 74.4905 42.4624 74.625 42.4624 74.7955C42.4624 75.0284 42.5485 75.2045 42.7209 75.3239C42.8951 75.4413 43.1158 75.5 43.3828 75.5ZM47.1747 73.375V76H46.5043V71.6364H47.152V72.3182H47.2088C47.3111 72.0966 47.4664 71.9186 47.6747 71.7841C47.883 71.6477 48.152 71.5795 48.4815 71.5795C48.777 71.5795 49.0355 71.6402 49.2571 71.7614C49.4787 71.8807 49.651 72.0625 49.7741 72.3068C49.8973 72.5492 49.9588 72.8561 49.9588 73.2273V76H49.2884V73.2727C49.2884 72.9299 49.1993 72.6629 49.0213 72.4716C48.8433 72.2784 48.599 72.1818 48.2884 72.1818C48.0743 72.1818 47.883 72.2282 47.7145 72.321C47.5478 72.4138 47.4162 72.5492 47.3196 72.7273C47.223 72.9053 47.1747 73.1212 47.1747 73.375Z" fill="black"/>
<path d="M20.1023 89.0455C19.9621 89.0455 19.8419 88.9953 19.7415 88.8949C19.6411 88.7945 19.5909 88.6742 19.5909 88.5341C19.5909 88.3939 19.6411 88.2737 19.7415 88.1733C19.8419 88.0729 19.9621 88.0227 20.1023 88.0227C20.2424 88.0227 20.3627 88.0729 20.4631 88.1733C20.5634 88.2737 20.6136 88.3939 20.6136 88.5341C20.6136 88.6269 20.59 88.7121 20.5426 88.7898C20.4972 88.8674 20.4356 88.9299 20.358 88.9773C20.2822 89.0227 20.197 89.0455 20.1023 89.0455ZM22.3054 89.0455C22.1652 89.0455 22.045 88.9953 21.9446 88.8949C21.8442 88.7945 21.794 88.6742 21.794 88.5341C21.794 88.3939 21.8442 88.2737 21.9446 88.1733C22.045 88.0729 22.1652 88.0227 22.3054 88.0227C22.4455 88.0227 22.5658 88.0729 22.6662 88.1733C22.7666 88.2737 22.8168 88.3939 22.8168 88.5341C22.8168 88.6269 22.7931 88.7121 22.7457 88.7898C22.7003 88.8674 22.6387 88.9299 22.5611 88.9773C22.4853 89.0227 22.4001 89.0455 22.3054 89.0455ZM24.5085 89.0455C24.3684 89.0455 24.2481 88.9953 24.1477 88.8949C24.0473 88.7945 23.9972 88.6742 23.9972 88.5341C23.9972 88.3939 24.0473 88.2737 24.1477 88.1733C24.2481 88.0729 24.3684 88.0227 24.5085 88.0227C24.6487 88.0227 24.7689 88.0729 24.8693 88.1733C24.9697 88.2737 25.0199 88.3939 25.0199 88.5341C25.0199 88.6269 24.9962 88.7121 24.9489 88.7898C24.9034 88.8674 24.8419 88.9299 24.7642 88.9773C24.6884 89.0227 24.6032 89.0455 24.5085 89.0455Z" fill="#A7A7A7"/>
<path d="M81.3494 74.1051V73.6705L83.267 70.6364H83.5824V71.3097H83.3693L81.9205 73.6023V73.6364H84.5028V74.1051H81.3494ZM83.4034 75V73.973V73.7706V70.6364H83.9062V75H83.4034ZM85.4712 75.0341C85.3661 75.0341 85.2759 74.9964 85.2006 74.9212C85.1254 74.8459 85.0877 74.7557 85.0877 74.6506C85.0877 74.5455 85.1254 74.4553 85.2006 74.38C85.2759 74.3047 85.3661 74.267 85.4712 74.267C85.5763 74.267 85.6665 74.3047 85.7418 74.38C85.8171 74.4553 85.8548 74.5455 85.8548 74.6506C85.8548 74.7202 85.837 74.7841 85.8015 74.8423C85.7674 74.9006 85.7212 74.9474 85.663 74.983C85.6062 75.017 85.5423 75.0341 85.4712 75.0341ZM87.7612 70.6364V75H87.2328V71.1903H87.2072L86.1419 71.8977V71.3608L87.2328 70.6364H87.7612Z" fill="black"/>
<path d="M80.3494 61.1051V60.6705L82.267 57.6364H82.5824V58.3097H82.3693L80.9205 60.6023V60.6364H83.5028V61.1051H80.3494ZM82.4034 62V60.973V60.7706V57.6364H82.9062V62H82.4034ZM84.4712 62.0341C84.3661 62.0341 84.2759 61.9964 84.2006 61.9212C84.1254 61.8459 84.0877 61.7557 84.0877 61.6506C84.0877 61.5455 84.1254 61.4553 84.2006 61.38C84.2759 61.3047 84.3661 61.267 84.4712 61.267C84.5763 61.267 84.6665 61.3047 84.7418 61.38C84.8171 61.4553 84.8548 61.5455 84.8548 61.6506C84.8548 61.7202 84.837 61.7841 84.8015 61.8423C84.7674 61.9006 84.7212 61.9474 84.663 61.983C84.6062 62.017 84.5423 62.0341 84.4712 62.0341ZM85.6463 61.1051V60.6705L87.5639 57.6364H87.8793V58.3097H87.6662L86.2173 60.6023V60.6364H88.7997V61.1051H85.6463ZM87.7003 62V60.973V60.7706V57.6364H88.2031V62H87.7003Z" fill="black"/>
<path d="M80.3494 35.1051V34.6705L82.267 31.6364H82.5824V32.3097H82.3693L80.9205 34.6023V34.6364H83.5028V35.1051H80.3494ZM82.4034 36V34.973V34.7706V31.6364H82.9062V36H82.4034ZM84.4712 36.0341C84.3661 36.0341 84.2759 35.9964 84.2006 35.9212C84.1254 35.8459 84.0877 35.7557 84.0877 35.6506C84.0877 35.5455 84.1254 35.4553 84.2006 35.38C84.2759 35.3047 84.3661 35.267 84.4712 35.267C84.5763 35.267 84.6665 35.3047 84.7418 35.38C84.8171 35.4553 84.8548 35.5455 84.8548 35.6506C84.8548 35.7202 84.837 35.7841 84.8015 35.8423C84.7674 35.9006 84.7212 35.9474 84.663 35.983C84.6062 36.017 84.5423 36.0341 84.4712 36.0341ZM87.0115 36.0597C86.7189 36.0597 86.4604 36.0078 86.236 35.9041C86.013 35.799 85.839 35.6548 85.714 35.4716C85.589 35.2869 85.5272 35.0767 85.5286 34.8409C85.5272 34.6562 85.5634 34.4858 85.6373 34.3295C85.7111 34.1719 85.812 34.0405 85.9398 33.9354C86.0691 33.8288 86.2132 33.7614 86.3723 33.733V33.7074C86.1635 33.6534 85.9973 33.5362 85.8738 33.3558C85.7502 33.174 85.6891 32.9673 85.6905 32.7358C85.6891 32.5142 85.7452 32.3161 85.8588 32.1413C85.9725 31.9666 86.1287 31.8288 86.3276 31.728C86.5279 31.6271 86.7559 31.5767 87.0115 31.5767C87.2644 31.5767 87.4902 31.6271 87.6891 31.728C87.888 31.8288 88.0442 31.9666 88.1578 32.1413C88.2729 32.3161 88.3311 32.5142 88.3326 32.7358C88.3311 32.9673 88.2679 33.174 88.1429 33.3558C88.0194 33.5362 87.8553 33.6534 87.6507 33.7074V33.733C87.8084 33.7614 87.9505 33.8288 88.0769 33.9354C88.2033 34.0405 88.3042 34.1719 88.3794 34.3295C88.4547 34.4858 88.4931 34.6562 88.4945 34.8409C88.4931 35.0767 88.4292 35.2869 88.3027 35.4716C88.1777 35.6548 88.0037 35.799 87.7807 35.9041C87.5591 36.0078 87.3027 36.0597 87.0115 36.0597ZM87.0115 35.5909C87.209 35.5909 87.3794 35.5589 87.5229 35.495C87.6664 35.4311 87.7772 35.3409 87.8553 35.2244C87.9334 35.108 87.9732 34.9716 87.9746 34.8153C87.9732 34.6506 87.9306 34.505 87.8468 34.3786C87.763 34.2521 87.6486 34.1527 87.5037 34.0803C87.3603 34.0078 87.1962 33.9716 87.0115 33.9716C86.8255 33.9716 86.6593 34.0078 86.513 34.0803C86.3681 34.1527 86.2537 34.2521 86.1699 34.3786C86.0875 34.505 86.0471 34.6506 86.0485 34.8153C86.0471 34.9716 86.0847 35.108 86.1614 35.2244C86.2395 35.3409 86.351 35.4311 86.4959 35.495C86.6408 35.5589 86.8127 35.5909 87.0115 35.5909ZM87.0115 33.5199C87.1678 33.5199 87.3063 33.4886 87.427 33.4261C87.5492 33.3636 87.6451 33.2763 87.7147 33.1641C87.7843 33.0518 87.8198 32.9205 87.8212 32.7699C87.8198 32.6222 87.785 32.4936 87.7168 32.3842C87.6486 32.2734 87.5542 32.1882 87.4334 32.1286C87.3127 32.0675 87.1721 32.0369 87.0115 32.0369C86.8482 32.0369 86.7054 32.0675 86.5833 32.1286C86.4611 32.1882 86.3667 32.2734 86.2999 32.3842C86.2331 32.4936 86.2005 32.6222 86.2019 32.7699C86.2005 32.9205 86.2338 33.0518 86.302 33.1641C86.3716 33.2763 86.4675 33.3636 86.5897 33.4261C86.7118 33.4886 86.8525 33.5199 87.0115 33.5199Z" fill="black"/>
<path d="M80.3494 48.1051V47.6705L82.267 44.6364H82.5824V45.3097H82.3693L80.9205 47.6023V47.6364H83.5028V48.1051H80.3494ZM82.4034 49V47.973V47.7706V44.6364H82.9062V49H82.4034ZM84.4712 49.0341C84.3661 49.0341 84.2759 48.9964 84.2006 48.9212C84.1254 48.8459 84.0877 48.7557 84.0877 48.6506C84.0877 48.5455 84.1254 48.4553 84.2006 48.38C84.2759 48.3047 84.3661 48.267 84.4712 48.267C84.5763 48.267 84.6665 48.3047 84.7418 48.38C84.8171 48.4553 84.8548 48.5455 84.8548 48.6506C84.8548 48.7202 84.837 48.7841 84.8015 48.8423C84.7674 48.9006 84.7212 48.9474 84.663 48.983C84.6062 49.017 84.5423 49.0341 84.4712 49.0341ZM87.0451 49.0597C86.8661 49.0568 86.6871 49.0227 86.5082 48.9574C86.3292 48.892 86.1658 48.782 86.0181 48.6271C85.8704 48.4709 85.7518 48.2599 85.6623 47.9943C85.5728 47.7273 85.5281 47.392 85.5281 46.9886C85.5281 46.6023 85.5643 46.2599 85.6367 45.9616C85.7092 45.6619 85.8143 45.4098 85.9521 45.2053C86.0898 44.9993 86.256 44.843 86.4506 44.7365C86.6467 44.63 86.8675 44.5767 87.1133 44.5767C87.3576 44.5767 87.5749 44.6257 87.7653 44.7237C87.957 44.8203 88.1133 44.9553 88.234 45.1286C88.3548 45.3018 88.4329 45.5014 88.4684 45.7273H87.9485C87.9002 45.5312 87.8065 45.3686 87.6673 45.2393C87.5281 45.1101 87.3434 45.0455 87.1133 45.0455C86.7752 45.0455 86.5089 45.1925 86.3143 45.4865C86.1211 45.7805 86.0238 46.1932 86.0224 46.7244H86.0565C86.136 46.6037 86.2305 46.5007 86.3398 46.4155C86.4506 46.3288 86.5728 46.2621 86.7063 46.2152C86.8398 46.1683 86.9812 46.1449 87.1303 46.1449C87.3803 46.1449 87.609 46.2074 87.8164 46.3324C88.0238 46.456 88.19 46.6271 88.315 46.8459C88.44 47.0632 88.5025 47.3125 88.5025 47.5938C88.5025 47.8636 88.4421 48.1108 88.3214 48.3352C88.2006 48.5582 88.0309 48.7358 87.8121 48.8679C87.5948 48.9986 87.3391 49.0625 87.0451 49.0597ZM87.0451 48.5909C87.2241 48.5909 87.3846 48.5462 87.5266 48.4567C87.6701 48.3672 87.783 48.2472 87.8654 48.0966C87.9492 47.946 87.9911 47.7784 87.9911 47.5938C87.9911 47.4134 87.9506 47.2493 87.8697 47.1016C87.7901 46.9524 87.68 46.8338 87.5394 46.7457C87.4002 46.6577 87.2411 46.6136 87.0621 46.6136C86.9272 46.6136 86.8015 46.6406 86.685 46.6946C86.5685 46.7472 86.4663 46.8196 86.3782 46.9119C86.2915 47.0043 86.2234 47.1101 86.1737 47.2294C86.1239 47.3473 86.0991 47.4716 86.0991 47.6023C86.0991 47.7756 86.1396 47.9375 86.2205 48.0881C86.3029 48.2386 86.4151 48.3601 86.5572 48.4524C86.7006 48.5447 86.8633 48.5909 87.0451 48.5909Z" fill="black"/>
<path d="M93.7133 31.1387C93.6732 31.0538 93.5905 31 93.5 31C93.4095 31 93.3268 31.0538 93.2867 31.1387L92.643 32.5034L91.2037 32.7223C91.1141 32.7359 91.0396 32.8016 91.0116 32.8917C90.9837 32.9818 91.007 33.0807 91.0718 33.1468L92.1134 34.2091L91.8675 35.7091C91.8522 35.8024 91.8889 35.8968 91.9621 35.9525C92.0354 36.0082 92.1325 36.0155 92.2126 35.9714L93.5 35.2632L94.7874 35.9714C94.8675 36.0155 94.9646 36.0082 95.0379 35.9525C95.1111 35.8968 95.1478 35.8024 95.1325 35.709L94.8866 34.2091L95.9282 33.1468C95.993 33.0807 96.0163 32.9818 95.9884 32.8917C95.9604 32.8016 95.8859 32.7359 95.7963 32.7223L94.357 32.5034L93.7133 31.1387Z" fill="#FAD965"/>
<path d="M93.7133 70.1387C93.6732 70.0538 93.5905 70 93.5 70C93.4095 70 93.3268 70.0538 93.2867 70.1387L92.643 71.5034L91.2037 71.7223C91.1141 71.7359 91.0396 71.8016 91.0116 71.8917C90.9837 71.9818 91.007 72.0807 91.0718 72.1468L92.1134 73.2091L91.8675 74.7091C91.8522 74.8024 91.8889 74.8968 91.9621 74.9525C92.0354 75.0082 92.1325 75.0155 92.2126 74.9714L93.5 74.2632L94.7874 74.9714C94.8675 75.0155 94.9646 75.0082 95.0379 74.9525C95.1111 74.8968 95.1478 74.8024 95.1325 74.709L94.8866 73.2091L95.9282 72.1468C95.993 72.0807 96.0163 71.9818 95.9884 71.8917C95.9604 71.8016 95.8859 71.7359 95.7963 71.7223L94.357 71.5034L93.7133 70.1387Z" fill="#FAD965"/>
<path d="M93.7133 57.1387C93.6732 57.0538 93.5905 57 93.5 57C93.4095 57 93.3268 57.0538 93.2867 57.1387L92.643 58.5034L91.2037 58.7223C91.1141 58.7359 91.0396 58.8016 91.0116 58.8917C90.9837 58.9818 91.007 59.0807 91.0718 59.1468L92.1134 60.2091L91.8675 61.7091C91.8522 61.8024 91.8889 61.8968 91.9621 61.9525C92.0354 62.0082 92.1325 62.0155 92.2126 61.9714L93.5 61.2632L94.7874 61.9714C94.8675 62.0155 94.9646 62.0082 95.0379 61.9525C95.1111 61.8968 95.1478 61.8024 95.1325 61.709L94.8866 60.2091L95.9282 59.1468C95.993 59.0807 96.0163 58.9818 95.9884 58.8917C95.9604 58.8016 95.8859 58.7359 95.7963 58.7223L94.357 58.5034L93.7133 57.1387Z" fill="#FAD965"/>
<path d="M93.7133 44.1387C93.6732 44.0538 93.5905 44 93.5 44C93.4095 44 93.3268 44.0538 93.2867 44.1387L92.643 45.5034L91.2037 45.7223C91.1141 45.7359 91.0396 45.8016 91.0116 45.8917C90.9837 45.9818 91.007 46.0807 91.0718 46.1468L92.1134 47.2091L91.8675 48.7091C91.8522 48.8024 91.8889 48.8968 91.9621 48.9525C92.0354 49.0082 92.1325 49.0155 92.2126 48.9714L93.5 48.2632L94.7874 48.9714C94.8675 49.0155 94.9646 49.0082 95.0379 48.9525C95.1111 48.8968 95.1478 48.8024 95.1325 48.709L94.8866 47.2091L95.9282 46.1468C95.993 46.0807 96.0163 45.9818 95.9884 45.8917C95.9604 45.8016 95.8859 45.7359 95.7963 45.7223L94.357 45.5034L93.7133 44.1387Z" fill="#FAD965"/>
<path d="M104.667 19.6653H100.667V23.6653H99.3333V19.6653H95.3333V18.332H99.3333V14.332H100.667V18.332H104.667V19.6653Z" fill="#A7A7A7"/>
<defs>
<filter id="filter0_d_657_759" x="0" y="0" width="124" height="108" filterUnits="userSpaceOnUse" color-interpolation-filters="sRGB">
<feFlood flood-opacity="0" result="BackgroundImageFix"/>
<feColorMatrix in="SourceAlpha" type="matrix" values="0 0 0 0 0 0 0 0 0 0 0 0 0 0 0 0 0 0 127 0" result="hardAlpha"/>
<feOffset dy="4"/>
<feGaussianBlur stdDeviation="2"/>
<feComposite in2="hardAlpha" operator="out"/>
<feColorMatrix type="matrix" values="0 0 0 0 0 0 0 0 0 0 0 0 0 0 0 0 0 0 0.15 0"/>
<feBlend mode="normal" in2="BackgroundImageFix" result="effect1_dropShadow_657_759"/>
<feBlend mode="normal" in="SourceGraphic" in2="effect1_dropShadow_657_759" result="shape"/>
</filter>
</defs>
</svg>
