<svg width="204" height="108" viewBox="0 0 204 108" fill="none" xmlns="http://www.w3.org/2000/svg">
<g filter="url(#filter0_d_337_492)">
<rect x="4" width="196" height="100" rx="20" fill="#FCFDFE"/>
</g>
<path d="M23.9028 25V16.2727H24.9596V20.1591H29.613V16.2727H30.6698V25H29.613V21.0966H24.9596V25H23.9028ZM33.8424 16.2727V25H32.7856V16.2727H33.8424ZM40.7341 18.4545C40.683 18.0227 40.4756 17.6875 40.1119 17.4489C39.7483 17.2102 39.3023 17.0909 38.7739 17.0909C38.3875 17.0909 38.0494 17.1534 37.7597 17.2784C37.4727 17.4034 37.2483 17.5753 37.0864 17.794C36.9273 18.0128 36.8477 18.2614 36.8477 18.5398C36.8477 18.7727 36.9031 18.973 37.0139 19.1406C37.1276 19.3054 37.2724 19.4432 37.4486 19.554C37.6247 19.6619 37.8094 19.7514 38.0026 19.8224C38.1957 19.8906 38.3733 19.946 38.5352 19.9886L39.4216 20.2273C39.6489 20.2869 39.9017 20.3693 40.1801 20.4744C40.4614 20.5795 40.7298 20.723 40.9855 20.9048C41.244 21.0838 41.4571 21.3139 41.6247 21.5952C41.7923 21.8764 41.8761 22.2216 41.8761 22.6307C41.8761 23.1023 41.7526 23.5284 41.5054 23.9091C41.2611 24.2898 40.9031 24.5923 40.4315 24.8168C39.9628 25.0412 39.3932 25.1534 38.7227 25.1534C38.0977 25.1534 37.5565 25.0526 37.0991 24.8509C36.6446 24.6491 36.2866 24.3679 36.0253 24.0071C35.7668 23.6463 35.6205 23.2273 35.5864 22.75H36.6773C36.7057 23.0795 36.8165 23.3523 37.0097 23.5682C37.2057 23.7812 37.4528 23.9403 37.7511 24.0455C38.0523 24.1477 38.3761 24.1989 38.7227 24.1989C39.1261 24.1989 39.4883 24.1335 39.8094 24.0028C40.1304 23.8693 40.3847 23.6847 40.5722 23.4489C40.7597 23.2102 40.8534 22.9318 40.8534 22.6136C40.8534 22.3239 40.7724 22.0881 40.6105 21.9062C40.4486 21.7244 40.2355 21.5767 39.9713 21.4631C39.7071 21.3494 39.4216 21.25 39.1148 21.1648L38.0409 20.858C37.3591 20.6619 36.8193 20.3821 36.4216 20.0185C36.0239 19.6548 35.825 19.179 35.825 18.5909C35.825 18.1023 35.9571 17.6761 36.2213 17.3125C36.4883 16.946 36.8463 16.6619 37.2952 16.4602C37.7469 16.2557 38.2511 16.1534 38.808 16.1534C39.3705 16.1534 39.8705 16.2543 40.308 16.456C40.7455 16.6548 41.092 16.9276 41.3477 17.2741C41.6062 17.6207 41.7426 18.0142 41.7568 18.4545H40.7341ZM43.1364 17.2102V16.2727H49.6819V17.2102H46.9376V25H45.8807V17.2102H43.1364ZM58.3133 20.6364C58.3133 21.5568 58.1471 22.3523 57.8147 23.0227C57.4823 23.6932 57.0263 24.2102 56.4468 24.5739C55.8673 24.9375 55.2053 25.1193 54.461 25.1193C53.7167 25.1193 53.0548 24.9375 52.4752 24.5739C51.8957 24.2102 51.4397 23.6932 51.1073 23.0227C50.7749 22.3523 50.6087 21.5568 50.6087 20.6364C50.6087 19.7159 50.7749 18.9205 51.1073 18.25C51.4397 17.5795 51.8957 17.0625 52.4752 16.6989C53.0548 16.3352 53.7167 16.1534 54.461 16.1534C55.2053 16.1534 55.8673 16.3352 56.4468 16.6989C57.0263 17.0625 57.4823 17.5795 57.8147 18.25C58.1471 18.9205 58.3133 19.7159 58.3133 20.6364ZM57.2905 20.6364C57.2905 19.8807 57.1641 19.2429 56.9113 18.723C56.6613 18.2031 56.3218 17.8097 55.8928 17.5426C55.4667 17.2756 54.9894 17.142 54.461 17.142C53.9326 17.142 53.4539 17.2756 53.0249 17.5426C52.5988 17.8097 52.2593 18.2031 52.0065 18.723C51.7565 19.2429 51.6315 19.8807 51.6315 20.6364C51.6315 21.392 51.7565 22.0298 52.0065 22.5497C52.2593 23.0696 52.5988 23.4631 53.0249 23.7301C53.4539 23.9972 53.9326 24.1307 54.461 24.1307C54.9894 24.1307 55.4667 23.9972 55.8928 23.7301C56.3218 23.4631 56.6613 23.0696 56.9113 22.5497C57.1641 22.0298 57.2905 21.392 57.2905 20.6364ZM60.0903 25V16.2727H63.0391C63.7209 16.2727 64.2806 16.3892 64.7181 16.6222C65.1556 16.8523 65.4795 17.169 65.6897 17.5724C65.8999 17.9759 66.005 18.4347 66.005 18.9489C66.005 19.4631 65.8999 19.919 65.6897 20.3168C65.4795 20.7145 65.157 21.027 64.7224 21.2543C64.2877 21.4787 63.7323 21.5909 63.0562 21.5909H60.6698V20.6364H63.0221C63.488 20.6364 63.863 20.5682 64.1471 20.4318C64.434 20.2955 64.6414 20.1023 64.7692 19.8523C64.8999 19.5994 64.9653 19.2983 64.9653 18.9489C64.9653 18.5994 64.8999 18.294 64.7692 18.0327C64.6386 17.7713 64.4298 17.5696 64.1428 17.4276C63.8559 17.2827 63.4766 17.2102 63.005 17.2102H61.1471V25H60.0903ZM64.1982 21.0795L66.3459 25H65.1187L63.005 21.0795H64.1982ZM66.7231 16.2727H67.9333L70.3538 20.3466H70.456L72.8765 16.2727H74.0867L70.9333 21.4034V25H69.8765V21.4034L66.7231 16.2727Z" fill="#2B4535"/>
<path d="M23.4482 49V48.4886L25.3687 46.3864C25.5941 46.1402 25.7797 45.9261 25.9255 45.7443C26.0713 45.5606 26.1793 45.3883 26.2494 45.2273C26.3213 45.0644 26.3573 44.8939 26.3573 44.7159C26.3573 44.5114 26.3081 44.3343 26.2096 44.1847C26.113 44.035 25.9804 43.9195 25.8119 43.8381C25.6433 43.7566 25.4539 43.7159 25.2437 43.7159C25.0202 43.7159 24.8251 43.7623 24.6584 43.8551C24.4937 43.946 24.3658 44.0739 24.2749 44.2386C24.1859 44.4034 24.1414 44.5966 24.1414 44.8182H23.4709C23.4709 44.4773 23.5495 44.178 23.7067 43.9205C23.8639 43.6629 24.078 43.4621 24.3488 43.3182C24.6215 43.1742 24.9274 43.1023 25.2664 43.1023C25.6073 43.1023 25.9094 43.1742 26.1727 43.3182C26.4359 43.4621 26.6423 43.6562 26.792 43.9006C26.9416 44.1449 27.0164 44.4167 27.0164 44.7159C27.0164 44.9299 26.9776 45.1392 26.8999 45.3438C26.8242 45.5464 26.6916 45.7727 26.5022 46.0227C26.3147 46.2708 26.0543 46.5739 25.7209 46.9318L24.4141 48.3295V48.375H27.1187V49H23.4482ZM28.8033 44.6364L29.8488 46.4205L30.8942 44.6364H31.667L30.2579 46.8182L31.667 49H30.8942L29.8488 47.3068L28.8033 49H28.0306L29.417 46.8182L28.0306 44.6364H28.8033Z" fill="#4A6654"/>
<path d="M38.1464 44.6364C38.1123 44.3485 37.974 44.125 37.7316 43.9659C37.4892 43.8068 37.1918 43.7273 36.8396 43.7273C36.582 43.7273 36.3566 43.7689 36.1634 43.8523C35.9721 43.9356 35.8225 44.0502 35.7146 44.196C35.6085 44.3419 35.5555 44.5076 35.5555 44.6932C35.5555 44.8485 35.5924 44.982 35.6663 45.0938C35.742 45.2036 35.8386 45.2955 35.956 45.3693C36.0735 45.4413 36.1966 45.5009 36.3254 45.5483C36.4541 45.5937 36.5725 45.6307 36.6805 45.6591L37.2714 45.8182C37.4229 45.858 37.5914 45.9129 37.7771 45.983C37.9646 46.053 38.1435 46.1487 38.314 46.2699C38.4863 46.3892 38.6284 46.5426 38.7401 46.7301C38.8519 46.9176 38.9077 47.1477 38.9077 47.4205C38.9077 47.7348 38.8254 48.0189 38.6606 48.2727C38.4977 48.5265 38.2591 48.7282 37.9447 48.8778C37.6322 49.0275 37.2524 49.1023 36.8055 49.1023C36.3888 49.1023 36.028 49.035 35.7231 48.9006C35.42 48.7661 35.1814 48.5786 35.0072 48.3381C34.8348 48.0975 34.7373 47.8182 34.7146 47.5H35.4418C35.4608 47.7197 35.5346 47.9015 35.6634 48.0455C35.7941 48.1875 35.9589 48.2936 36.1577 48.3636C36.3585 48.4318 36.5744 48.4659 36.8055 48.4659C37.0744 48.4659 37.3159 48.4223 37.5299 48.3352C37.7439 48.2462 37.9134 48.1231 38.0384 47.9659C38.1634 47.8068 38.2259 47.6212 38.2259 47.4091C38.2259 47.2159 38.1719 47.0587 38.064 46.9375C37.956 46.8163 37.814 46.7178 37.6379 46.642C37.4617 46.5663 37.2714 46.5 37.0668 46.4432L36.3509 46.2386C35.8964 46.108 35.5365 45.9214 35.2714 45.679C35.0062 45.4366 34.8736 45.1193 34.8736 44.7273C34.8736 44.4015 34.9617 44.1174 35.1379 43.875C35.3159 43.6307 35.5545 43.4413 35.8538 43.3068C36.1549 43.1705 36.4911 43.1023 36.8623 43.1023C37.2373 43.1023 37.5706 43.1695 37.8623 43.304C38.1539 43.4366 38.385 43.6184 38.5555 43.8494C38.7278 44.0805 38.8187 44.3428 38.8282 44.6364H38.1464ZM41.8048 49.0909C41.3843 49.0909 41.0216 48.9981 40.7167 48.8125C40.4137 48.625 40.1798 48.3636 40.015 48.0284C39.8521 47.6913 39.7707 47.2992 39.7707 46.8523C39.7707 46.4053 39.8521 46.0114 40.015 45.6705C40.1798 45.3277 40.4089 45.0606 40.7025 44.8693C40.9979 44.6761 41.3426 44.5795 41.7366 44.5795C41.9638 44.5795 42.1883 44.6174 42.4099 44.6932C42.6315 44.7689 42.8332 44.892 43.015 45.0625C43.1968 45.2311 43.3417 45.4545 43.4496 45.733C43.5576 46.0114 43.6116 46.3542 43.6116 46.7614V47.0455H40.2479V46.4659H42.9298C42.9298 46.2197 42.8805 46 42.782 45.8068C42.6854 45.6136 42.5472 45.4612 42.3673 45.3494C42.1892 45.2377 41.979 45.1818 41.7366 45.1818C41.4695 45.1818 41.2385 45.2481 41.0434 45.3807C40.8502 45.5114 40.7015 45.6818 40.5974 45.892C40.4932 46.1023 40.4411 46.3277 40.4411 46.5682V46.9545C40.4411 47.2841 40.4979 47.5634 40.6116 47.7926C40.7271 48.0199 40.8871 48.1932 41.0917 48.3125C41.2962 48.4299 41.5339 48.4886 41.8048 48.4886C41.9809 48.4886 42.14 48.464 42.282 48.4148C42.426 48.3636 42.55 48.2879 42.6542 48.1875C42.7584 48.0852 42.8388 47.9583 42.8957 47.8068L43.5434 47.9886C43.4752 48.2083 43.3606 48.4015 43.1996 48.5682C43.0387 48.733 42.8398 48.8617 42.603 48.9545C42.3663 49.0455 42.1002 49.0909 41.8048 49.0909ZM44.7224 49V43.1818H45.3928V45.3295H45.4496C45.4989 45.2538 45.5671 45.1572 45.6542 45.0398C45.7432 44.9205 45.8701 44.8144 46.0349 44.7216C46.2015 44.6269 46.4269 44.5795 46.711 44.5795C47.0784 44.5795 47.4023 44.6714 47.6826 44.8551C47.9629 45.0388 48.1816 45.2992 48.3388 45.6364C48.496 45.9735 48.5746 46.3712 48.5746 46.8295C48.5746 47.2917 48.496 47.6922 48.3388 48.0312C48.1816 48.3684 47.9638 48.6297 47.6854 48.8153C47.407 48.9991 47.086 49.0909 46.7224 49.0909C46.4421 49.0909 46.2176 49.0445 46.0491 48.9517C45.8805 48.857 45.7508 48.75 45.6599 48.6307C45.569 48.5095 45.4989 48.4091 45.4496 48.3295H45.3701V49H44.7224ZM45.3815 46.8182C45.3815 47.1477 45.4298 47.4384 45.5263 47.6903C45.6229 47.9403 45.764 48.1364 45.9496 48.2784C46.1352 48.4186 46.3625 48.4886 46.6315 48.4886C46.9118 48.4886 47.1457 48.4148 47.3332 48.267C47.5226 48.1174 47.6646 47.9167 47.7593 47.6648C47.8559 47.411 47.9042 47.1288 47.9042 46.8182C47.9042 46.5114 47.8568 46.2348 47.7621 45.9886C47.6693 45.7405 47.5282 45.5445 47.3388 45.4006C47.1513 45.2547 46.9155 45.1818 46.6315 45.1818C46.3587 45.1818 46.1296 45.2509 45.944 45.3892C45.7584 45.5256 45.6182 45.7169 45.5235 45.9631C45.4288 46.2074 45.3815 46.4924 45.3815 46.8182ZM50.2707 43.1818V49H49.6002V43.1818H50.2707ZM52.7827 49.1023C52.5062 49.1023 52.2553 49.0502 52.0299 48.946C51.8045 48.84 51.6255 48.6875 51.493 48.4886C51.3604 48.2879 51.2941 48.0455 51.2941 47.7614C51.2941 47.5114 51.3433 47.3087 51.4418 47.1534C51.5403 46.9962 51.6719 46.8731 51.8367 46.7841C52.0015 46.6951 52.1833 46.6288 52.3822 46.5852C52.5829 46.5398 52.7846 46.5038 52.9873 46.4773C53.2524 46.4432 53.4674 46.4176 53.6322 46.4006C53.7988 46.3816 53.92 46.3504 53.9958 46.3068C54.0735 46.2633 54.1123 46.1875 54.1123 46.0795V46.0568C54.1123 45.7765 54.0356 45.5587 53.8822 45.4034C53.7307 45.2481 53.5005 45.1705 53.1918 45.1705C52.8718 45.1705 52.6208 45.2405 52.439 45.3807C52.2572 45.5208 52.1293 45.6705 52.0555 45.8295L51.4191 45.6023C51.5327 45.3371 51.6843 45.1307 51.8736 44.983C52.0649 44.8333 52.2733 44.7292 52.4986 44.6705C52.7259 44.6098 52.9494 44.5795 53.1691 44.5795C53.3093 44.5795 53.4702 44.5966 53.6521 44.6307C53.8358 44.6629 54.0129 44.7301 54.1833 44.8324C54.3557 44.9347 54.4986 45.089 54.6123 45.2955C54.7259 45.5019 54.7827 45.7784 54.7827 46.125V49H54.1123V48.4091H54.0782C54.0327 48.5038 53.957 48.6051 53.8509 48.7131C53.7449 48.821 53.6038 48.9129 53.4276 48.9886C53.2515 49.0644 53.0365 49.1023 52.7827 49.1023ZM52.885 48.5C53.1502 48.5 53.3736 48.4479 53.5555 48.3438C53.7392 48.2396 53.8774 48.1051 53.9702 47.9403C54.0649 47.7756 54.1123 47.6023 54.1123 47.4205V46.8068C54.0839 46.8409 54.0214 46.8722 53.9248 46.9006C53.8301 46.9271 53.7202 46.9508 53.5952 46.9716C53.4721 46.9905 53.3519 47.0076 53.2344 47.0227C53.1189 47.036 53.0252 47.0473 52.9532 47.0568C52.7789 47.0795 52.6161 47.1165 52.4646 47.1676C52.3149 47.2169 52.1937 47.2917 52.1009 47.392C52.01 47.4905 51.9646 47.625 51.9646 47.7955C51.9646 48.0284 52.0507 48.2045 52.2231 48.3239C52.3973 48.4413 52.618 48.5 52.885 48.5ZM56.6315 47.4091L56.6201 46.5795H56.7565L58.6655 44.6364H59.4951L57.461 46.6932H57.4042L56.6315 47.4091ZM56.0065 49V43.1818H56.6769V49H56.0065ZM58.7792 49L57.0746 46.8409L57.5519 46.375L59.6315 49H58.7792Z" fill="black"/>
<path d="M117.411 30.3068V39.875H116.843V30.3068H117.411Z" fill="#3C6046"/>
<path d="M121.154 36.8068V36.2273L123.71 32.1818H124.131V33.0795H123.847L121.915 36.1364V36.1818H125.358V36.8068H121.154ZM123.892 38V36.6307V36.3608V32.1818H124.563V38H123.892ZM128.389 38.0795C128.014 38.0795 127.679 38.0152 127.386 37.8864C127.094 37.7576 126.862 37.5786 126.69 37.3494C126.519 37.1184 126.427 36.8504 126.411 36.5455H127.127C127.143 36.733 127.207 36.8949 127.321 37.0312C127.434 37.1657 127.583 37.2699 127.767 37.3438C127.95 37.4176 128.154 37.4545 128.377 37.4545C128.627 37.4545 128.849 37.411 129.042 37.3239C129.235 37.2367 129.387 37.1155 129.497 36.9602C129.607 36.8049 129.661 36.625 129.661 36.4205C129.661 36.2064 129.608 36.018 129.502 35.8551C129.396 35.6903 129.241 35.5616 129.036 35.4688C128.832 35.3759 128.582 35.3295 128.286 35.3295H127.821V34.7045H128.286C128.518 34.7045 128.72 34.6629 128.894 34.5795C129.071 34.4962 129.208 34.3788 129.306 34.2273C129.407 34.0758 129.457 33.8977 129.457 33.6932C129.457 33.4962 129.413 33.3248 129.326 33.179C129.239 33.0331 129.116 32.9195 128.957 32.8381C128.8 32.7566 128.614 32.7159 128.4 32.7159C128.199 32.7159 128.01 32.7528 127.832 32.8267C127.656 32.8987 127.512 33.0038 127.4 33.142C127.288 33.2784 127.228 33.4432 127.218 33.6364H126.536C126.548 33.3314 126.64 33.0644 126.812 32.8352C126.984 32.6042 127.21 32.4242 127.488 32.2955C127.768 32.1667 128.076 32.1023 128.411 32.1023C128.771 32.1023 129.08 32.1752 129.338 32.321C129.595 32.465 129.793 32.6553 129.931 32.892C130.07 33.1288 130.139 33.3845 130.139 33.6591C130.139 33.9867 130.053 34.2661 129.88 34.4972C129.71 34.7282 129.478 34.8883 129.184 34.9773V35.0227C129.552 35.0833 129.839 35.2396 130.045 35.4915C130.251 35.7415 130.355 36.0511 130.355 36.4205C130.355 36.7367 130.268 37.0208 130.096 37.2727C129.926 37.5227 129.693 37.7197 129.397 37.8636C129.102 38.0076 128.766 38.0795 128.389 38.0795ZM131.38 36.8068V36.2273L133.937 32.1818H134.357V33.0795H134.073L132.142 36.1364V36.1818H135.585V36.8068H131.38ZM134.119 38V36.6307V36.3608V32.1818H134.789V38H134.119ZM138.468 38.0795C138.134 38.0795 137.834 38.0133 137.567 37.8807C137.3 37.7481 137.086 37.5663 136.925 37.3352C136.764 37.1042 136.676 36.8409 136.661 36.5455H137.343C137.369 36.8087 137.488 37.0265 137.701 37.1989C137.915 37.3693 138.17 37.4545 138.468 37.4545C138.706 37.4545 138.918 37.3987 139.104 37.2869C139.291 37.1752 139.438 37.0218 139.544 36.8267C139.652 36.6297 139.706 36.4072 139.706 36.1591C139.706 35.9053 139.65 35.679 139.539 35.4801C139.429 35.2794 139.277 35.1212 139.084 35.0057C138.891 34.8902 138.67 34.8314 138.422 34.8295C138.244 34.8277 138.061 34.8551 137.874 34.9119C137.686 34.9669 137.532 35.0379 137.411 35.125L136.752 35.0455L137.104 32.1818H140.127V32.8068H137.695L137.49 34.5227H137.524C137.644 34.428 137.793 34.3494 137.973 34.2869C138.153 34.2244 138.341 34.1932 138.536 34.1932C138.892 34.1932 139.209 34.2784 139.487 34.4489C139.768 34.6174 139.987 34.8485 140.147 35.142C140.308 35.4356 140.388 35.7708 140.388 36.1477C140.388 36.5189 140.305 36.8504 140.138 37.142C139.973 37.4318 139.746 37.661 139.456 37.8295C139.166 37.9962 138.837 38.0795 138.468 38.0795ZM141.698 38L144.301 32.8523V32.8068H141.301V32.1818H145.028V32.8409L142.437 38H141.698ZM147.894 38.0795C147.655 38.0758 147.416 38.0303 147.178 37.9432C146.939 37.8561 146.721 37.7093 146.524 37.5028C146.327 37.2945 146.169 37.0133 146.05 36.6591C145.931 36.303 145.871 35.8561 145.871 35.3182C145.871 34.803 145.919 34.3466 146.016 33.9489C146.112 33.5492 146.253 33.2131 146.436 32.9403C146.62 32.6657 146.842 32.4574 147.101 32.3153C147.362 32.1733 147.657 32.1023 147.985 32.1023C148.31 32.1023 148.6 32.1676 148.854 32.2983C149.11 32.4271 149.318 32.607 149.479 32.8381C149.64 33.0691 149.744 33.3352 149.791 33.6364H149.098C149.034 33.375 148.909 33.1581 148.723 32.9858C148.538 32.8134 148.291 32.7273 147.985 32.7273C147.534 32.7273 147.179 32.9233 146.919 33.3153C146.662 33.7074 146.532 34.2576 146.53 34.9659H146.576C146.682 34.8049 146.808 34.6676 146.953 34.554C147.101 34.4384 147.264 34.3494 147.442 34.2869C147.62 34.2244 147.808 34.1932 148.007 34.1932C148.341 34.1932 148.646 34.2765 148.922 34.4432C149.199 34.608 149.42 34.8362 149.587 35.1278C149.754 35.4176 149.837 35.75 149.837 36.125C149.837 36.4848 149.756 36.8144 149.595 37.1136C149.434 37.411 149.208 37.6477 148.916 37.8239C148.627 37.9981 148.286 38.0833 147.894 38.0795ZM147.894 37.4545C148.132 37.4545 148.346 37.3949 148.536 37.2756C148.727 37.1562 148.878 36.9962 148.987 36.7955C149.099 36.5947 149.155 36.3712 149.155 36.125C149.155 35.8845 149.101 35.6657 148.993 35.4688C148.887 35.2699 148.74 35.1117 148.553 34.9943C148.367 34.8769 148.155 34.8182 147.916 34.8182C147.737 34.8182 147.569 34.8542 147.414 34.9261C147.258 34.9962 147.122 35.0928 147.005 35.2159C146.889 35.339 146.798 35.4801 146.732 35.6392C146.665 35.7964 146.632 35.9621 146.632 36.1364C146.632 36.3674 146.686 36.5833 146.794 36.7841C146.904 36.9848 147.054 37.1468 147.243 37.2699C147.434 37.393 147.651 37.4545 147.894 37.4545ZM152.818 38.0795C152.428 38.0795 152.083 38.0104 151.784 37.8722C151.486 37.732 151.254 37.5398 151.088 37.2955C150.921 37.0492 150.839 36.7689 150.84 36.4545C150.839 36.2083 150.887 35.9811 150.985 35.7727C151.084 35.5625 151.218 35.3873 151.389 35.2472C151.561 35.1051 151.753 35.0152 151.965 34.9773V34.9432C151.687 34.8712 151.465 34.715 151.301 34.4744C151.136 34.232 151.054 33.9564 151.056 33.6477C151.054 33.3523 151.129 33.0881 151.281 32.8551C151.432 32.6222 151.641 32.4384 151.906 32.304C152.173 32.1695 152.477 32.1023 152.818 32.1023C153.155 32.1023 153.456 32.1695 153.721 32.304C153.986 32.4384 154.195 32.6222 154.346 32.8551C154.5 33.0881 154.577 33.3523 154.579 33.6477C154.577 33.9564 154.493 34.232 154.326 34.4744C154.161 34.715 153.943 34.8712 153.67 34.9432V34.9773C153.88 35.0152 154.07 35.1051 154.238 35.2472C154.407 35.3873 154.541 35.5625 154.642 35.7727C154.742 35.9811 154.793 36.2083 154.795 36.4545C154.793 36.7689 154.708 37.0492 154.539 37.2955C154.373 37.5398 154.141 37.732 153.843 37.8722C153.548 38.0104 153.206 38.0795 152.818 38.0795ZM152.818 37.4545C153.081 37.4545 153.308 37.4119 153.5 37.3267C153.691 37.2415 153.839 37.1212 153.943 36.9659C154.047 36.8106 154.1 36.6288 154.102 36.4205C154.1 36.2008 154.043 36.0066 153.931 35.8381C153.82 35.6695 153.667 35.5369 153.474 35.4403C153.283 35.3437 153.064 35.2955 152.818 35.2955C152.57 35.2955 152.348 35.3437 152.153 35.4403C151.96 35.5369 151.807 35.6695 151.696 35.8381C151.586 36.0066 151.532 36.2008 151.534 36.4205C151.532 36.6288 151.582 36.8106 151.684 36.9659C151.788 37.1212 151.937 37.2415 152.13 37.3267C152.323 37.4119 152.553 37.4545 152.818 37.4545ZM152.818 34.6932C153.026 34.6932 153.211 34.6515 153.372 34.5682C153.535 34.4848 153.662 34.3684 153.755 34.2188C153.848 34.0691 153.895 33.8939 153.897 33.6932C153.895 33.4962 153.849 33.3248 153.758 33.179C153.667 33.0312 153.541 32.9176 153.38 32.8381C153.219 32.7566 153.032 32.7159 152.818 32.7159C152.6 32.7159 152.41 32.7566 152.247 32.8381C152.084 32.9176 151.958 33.0312 151.869 33.179C151.78 33.3248 151.736 33.4962 151.738 33.6932C151.736 33.8939 151.781 34.0691 151.872 34.2188C151.964 34.3684 152.092 34.4848 152.255 34.5682C152.418 34.6515 152.606 34.6932 152.818 34.6932ZM156.066 38L158.668 32.8523V32.8068H155.668V32.1818H159.395V32.8409L156.804 38H156.066ZM162.318 38.0795C161.928 38.0795 161.583 38.0104 161.284 37.8722C160.986 37.732 160.754 37.5398 160.588 37.2955C160.421 37.0492 160.339 36.7689 160.34 36.4545C160.339 36.2083 160.387 35.9811 160.485 35.7727C160.584 35.5625 160.718 35.3873 160.889 35.2472C161.061 35.1051 161.253 35.0152 161.465 34.9773V34.9432C161.187 34.8712 160.965 34.715 160.801 34.4744C160.636 34.232 160.554 33.9564 160.556 33.6477C160.554 33.3523 160.629 33.0881 160.781 32.8551C160.932 32.6222 161.141 32.4384 161.406 32.304C161.673 32.1695 161.977 32.1023 162.318 32.1023C162.655 32.1023 162.956 32.1695 163.221 32.304C163.486 32.4384 163.695 32.6222 163.846 32.8551C164 33.0881 164.077 33.3523 164.079 33.6477C164.077 33.9564 163.993 34.232 163.826 34.4744C163.661 34.715 163.443 34.8712 163.17 34.9432V34.9773C163.38 35.0152 163.57 35.1051 163.738 35.2472C163.907 35.3873 164.041 35.5625 164.142 35.7727C164.242 35.9811 164.293 36.2083 164.295 36.4545C164.293 36.7689 164.208 37.0492 164.039 37.2955C163.873 37.5398 163.641 37.732 163.343 37.8722C163.048 38.0104 162.706 38.0795 162.318 38.0795ZM162.318 37.4545C162.581 37.4545 162.808 37.4119 163 37.3267C163.191 37.2415 163.339 37.1212 163.443 36.9659C163.547 36.8106 163.6 36.6288 163.602 36.4205C163.6 36.2008 163.543 36.0066 163.431 35.8381C163.32 35.6695 163.167 35.5369 162.974 35.4403C162.783 35.3437 162.564 35.2955 162.318 35.2955C162.07 35.2955 161.848 35.3437 161.653 35.4403C161.46 35.5369 161.307 35.6695 161.196 35.8381C161.086 36.0066 161.032 36.2008 161.034 36.4205C161.032 36.6288 161.082 36.8106 161.184 36.9659C161.288 37.1212 161.437 37.2415 161.63 37.3267C161.823 37.4119 162.053 37.4545 162.318 37.4545ZM162.318 34.6932C162.526 34.6932 162.711 34.6515 162.872 34.5682C163.035 34.4848 163.162 34.3684 163.255 34.2188C163.348 34.0691 163.395 33.8939 163.397 33.6932C163.395 33.4962 163.349 33.3248 163.258 33.179C163.167 33.0312 163.041 32.9176 162.88 32.8381C162.719 32.7566 162.532 32.7159 162.318 32.7159C162.1 32.7159 161.91 32.7566 161.747 32.8381C161.584 32.9176 161.458 33.0312 161.369 33.179C161.28 33.3248 161.236 33.4962 161.238 33.6932C161.236 33.8939 161.281 34.0691 161.372 34.2188C161.464 34.3684 161.592 34.4848 161.755 34.5682C161.918 34.6515 162.106 34.6932 162.318 34.6932Z" fill="#A7A7A7"/>
<path d="M23.5505 38V32.1818H25.5164C25.9709 32.1818 26.3441 32.2595 26.6357 32.4148C26.9274 32.5682 27.1433 32.7794 27.2834 33.0483C27.4236 33.3172 27.4937 33.6231 27.4937 33.9659C27.4937 34.3087 27.4236 34.6127 27.2834 34.8778C27.1433 35.143 26.9283 35.3513 26.6386 35.5028C26.3488 35.6525 25.9785 35.7273 25.5278 35.7273H23.9369V35.0909H25.505C25.8156 35.0909 26.0656 35.0455 26.255 34.9545C26.4463 34.8636 26.5846 34.7348 26.6698 34.5682C26.7569 34.3996 26.8005 34.1989 26.8005 33.9659C26.8005 33.733 26.7569 33.5294 26.6698 33.3551C26.5827 33.1809 26.4435 33.0464 26.2522 32.9517C26.0609 32.8551 25.8081 32.8068 25.4937 32.8068H24.255V38H23.5505ZM26.2891 35.3864L27.7209 38H26.9028L25.4937 35.3864H26.2891ZM29.8609 38.1023C29.5843 38.1023 29.3334 38.0502 29.108 37.946C28.8826 37.84 28.7037 37.6875 28.5711 37.4886C28.4385 37.2879 28.3722 37.0455 28.3722 36.7614C28.3722 36.5114 28.4215 36.3087 28.52 36.1534C28.6184 35.9962 28.7501 35.8731 28.9148 35.7841C29.0796 35.6951 29.2614 35.6288 29.4603 35.5852C29.6611 35.5398 29.8628 35.5038 30.0654 35.4773C30.3306 35.4432 30.5455 35.4176 30.7103 35.4006C30.877 35.3816 30.9982 35.3504 31.0739 35.3068C31.1516 35.2633 31.1904 35.1875 31.1904 35.0795V35.0568C31.1904 34.7765 31.1137 34.5587 30.9603 34.4034C30.8088 34.2481 30.5787 34.1705 30.27 34.1705C29.9499 34.1705 29.6989 34.2405 29.5171 34.3807C29.3353 34.5208 29.2075 34.6705 29.1336 34.8295L28.4972 34.6023C28.6109 34.3371 28.7624 34.1307 28.9518 33.983C29.1431 33.8333 29.3514 33.7292 29.5768 33.6705C29.804 33.6098 30.0275 33.5795 30.2472 33.5795C30.3874 33.5795 30.5484 33.5966 30.7302 33.6307C30.9139 33.6629 31.091 33.7301 31.2614 33.8324C31.4338 33.9347 31.5768 34.089 31.6904 34.2955C31.804 34.5019 31.8609 34.7784 31.8609 35.125V38H31.1904V37.4091H31.1563C31.1109 37.5038 31.0351 37.6051 30.929 37.7131C30.823 37.821 30.6819 37.9129 30.5057 37.9886C30.3296 38.0644 30.1147 38.1023 29.8609 38.1023ZM29.9631 37.5C30.2283 37.5 30.4518 37.4479 30.6336 37.3438C30.8173 37.2396 30.9556 37.1051 31.0484 36.9403C31.1431 36.7756 31.1904 36.6023 31.1904 36.4205V35.8068C31.162 35.8409 31.0995 35.8722 31.0029 35.9006C30.9082 35.9271 30.7984 35.9508 30.6734 35.9716C30.5503 35.9905 30.43 36.0076 30.3126 36.0227C30.197 36.036 30.1033 36.0473 30.0313 36.0568C29.8571 36.0795 29.6942 36.1165 29.5427 36.1676C29.3931 36.2169 29.2718 36.2917 29.179 36.392C29.0881 36.4905 29.0427 36.625 29.0427 36.7955C29.0427 37.0284 29.1289 37.2045 29.3012 37.3239C29.4754 37.4413 29.6961 37.5 29.9631 37.5ZM33.0846 38V33.6364H33.7323V34.3182H33.7891C33.88 34.0852 34.0268 33.9044 34.2295 33.7756C34.4321 33.6449 34.6755 33.5795 34.9596 33.5795C35.2475 33.5795 35.487 33.6449 35.6783 33.7756C35.8715 33.9044 36.0221 34.0852 36.13 34.3182H36.1755C36.2872 34.0928 36.4548 33.9138 36.6783 33.7812C36.9018 33.6468 37.1698 33.5795 37.4823 33.5795C37.8725 33.5795 38.1916 33.7017 38.4397 33.946C38.6878 34.1884 38.8119 34.5663 38.8119 35.0795V38H38.1414V35.0795C38.1414 34.7576 38.0533 34.5275 37.8772 34.3892C37.7011 34.2509 37.4937 34.1818 37.255 34.1818C36.9482 34.1818 36.7105 34.2746 36.542 34.4602C36.3734 34.6439 36.2891 34.8769 36.2891 35.1591V38H35.6073V35.0114C35.6073 34.7633 35.5268 34.5634 35.3658 34.4119C35.2048 34.2585 34.9975 34.1818 34.7437 34.1818C34.5694 34.1818 34.4066 34.2282 34.255 34.321C34.1054 34.4138 33.9842 34.5426 33.8914 34.7074C33.8005 34.8703 33.755 35.0587 33.755 35.2727V38H33.0846ZM41.3218 38.1023C41.0453 38.1023 40.7943 38.0502 40.569 37.946C40.3436 37.84 40.1646 37.6875 40.032 37.4886C39.8995 37.2879 39.8332 37.0455 39.8332 36.7614C39.8332 36.5114 39.8824 36.3087 39.9809 36.1534C40.0794 35.9962 40.211 35.8731 40.3758 35.7841C40.5405 35.6951 40.7224 35.6288 40.9212 35.5852C41.122 35.5398 41.3237 35.5038 41.5263 35.4773C41.7915 35.4432 42.0065 35.4176 42.1712 35.4006C42.3379 35.3816 42.4591 35.3504 42.5349 35.3068C42.6125 35.2633 42.6513 35.1875 42.6513 35.0795V35.0568C42.6513 34.7765 42.5746 34.5587 42.4212 34.4034C42.2697 34.2481 42.0396 34.1705 41.7309 34.1705C41.4108 34.1705 41.1599 34.2405 40.978 34.3807C40.7962 34.5208 40.6684 34.6705 40.5945 34.8295L39.9582 34.6023C40.0718 34.3371 40.2233 34.1307 40.4127 33.983C40.604 33.8333 40.8123 33.7292 41.0377 33.6705C41.265 33.6098 41.4885 33.5795 41.7082 33.5795C41.8483 33.5795 42.0093 33.5966 42.1911 33.6307C42.3748 33.6629 42.5519 33.7301 42.7224 33.8324C42.8947 33.9347 43.0377 34.089 43.1513 34.2955C43.265 34.5019 43.3218 34.7784 43.3218 35.125V38H42.6513V37.4091H42.6173C42.5718 37.5038 42.496 37.6051 42.39 37.7131C42.2839 37.821 42.1428 37.9129 41.9667 37.9886C41.7905 38.0644 41.5756 38.1023 41.3218 38.1023ZM41.4241 37.5C41.6892 37.5 41.9127 37.4479 42.0945 37.3438C42.2782 37.2396 42.4165 37.1051 42.5093 36.9403C42.604 36.7756 42.6513 36.6023 42.6513 36.4205V35.8068C42.6229 35.8409 42.5604 35.8722 42.4638 35.9006C42.3691 35.9271 42.2593 35.9508 42.1343 35.9716C42.0112 35.9905 41.8909 36.0076 41.7735 36.0227C41.658 36.036 41.5642 36.0473 41.4923 36.0568C41.318 36.0795 41.1551 36.1165 41.0036 36.1676C40.854 36.2169 40.7328 36.2917 40.64 36.392C40.5491 36.4905 40.5036 36.625 40.5036 36.7955C40.5036 37.0284 40.5898 37.2045 40.7621 37.3239C40.9364 37.4413 41.157 37.5 41.4241 37.5ZM46.8864 38V32.1818H48.9205C49.3258 32.1818 49.6601 32.2519 49.9234 32.392C50.1866 32.5303 50.3826 32.7169 50.5114 32.9517C50.6402 33.1847 50.7046 33.4432 50.7046 33.7273C50.7046 33.9773 50.6601 34.1837 50.5711 34.3466C50.484 34.5095 50.3684 34.6383 50.2245 34.733C50.0825 34.8277 49.9281 34.8977 49.7614 34.9432V35C49.9395 35.0114 50.1184 35.0739 50.2984 35.1875C50.4783 35.3011 50.6289 35.464 50.7501 35.6761C50.8713 35.8883 50.9319 36.1477 50.9319 36.4545C50.9319 36.7462 50.8656 37.0085 50.733 37.2415C50.6004 37.4744 50.3912 37.6591 50.1052 37.7955C49.8192 37.9318 49.447 38 48.9887 38H46.8864ZM47.591 37.375H48.9887C49.4489 37.375 49.7756 37.286 49.9688 37.108C50.1639 36.928 50.2614 36.7102 50.2614 36.4545C50.2614 36.2576 50.2112 36.0758 50.1109 35.9091C50.0105 35.7405 49.8675 35.6061 49.6819 35.5057C49.4963 35.4034 49.2766 35.3523 49.0228 35.3523H47.591V37.375ZM47.591 34.7386H48.8978C49.1099 34.7386 49.3012 34.697 49.4717 34.6136C49.644 34.5303 49.7804 34.4129 49.8807 34.2614C49.983 34.1098 50.0342 33.9318 50.0342 33.7273C50.0342 33.4716 49.9451 33.2547 49.7671 33.0767C49.5891 32.8968 49.3069 32.8068 48.9205 32.8068H47.591V34.7386ZM53.2827 38.1023C53.0062 38.1023 52.7553 38.0502 52.5299 37.946C52.3045 37.84 52.1255 37.6875 51.993 37.4886C51.8604 37.2879 51.7941 37.0455 51.7941 36.7614C51.7941 36.5114 51.8433 36.3087 51.9418 36.1534C52.0403 35.9962 52.1719 35.8731 52.3367 35.7841C52.5015 35.6951 52.6833 35.6288 52.8822 35.5852C53.0829 35.5398 53.2846 35.5038 53.4873 35.4773C53.7524 35.4432 53.9674 35.4176 54.1322 35.4006C54.2988 35.3816 54.42 35.3504 54.4958 35.3068C54.5735 35.2633 54.6123 35.1875 54.6123 35.0795V35.0568C54.6123 34.7765 54.5356 34.5587 54.3822 34.4034C54.2307 34.2481 54.0005 34.1705 53.6918 34.1705C53.3718 34.1705 53.1208 34.2405 52.939 34.3807C52.7572 34.5208 52.6293 34.6705 52.5555 34.8295L51.9191 34.6023C52.0327 34.3371 52.1843 34.1307 52.3736 33.983C52.5649 33.8333 52.7733 33.7292 52.9986 33.6705C53.2259 33.6098 53.4494 33.5795 53.6691 33.5795C53.8093 33.5795 53.9702 33.5966 54.1521 33.6307C54.3358 33.6629 54.5129 33.7301 54.6833 33.8324C54.8557 33.9347 54.9986 34.089 55.1123 34.2955C55.2259 34.5019 55.2827 34.7784 55.2827 35.125V38H54.6123V37.4091H54.5782C54.5327 37.5038 54.457 37.6051 54.3509 37.7131C54.2449 37.821 54.1038 37.9129 53.9276 37.9886C53.7515 38.0644 53.5365 38.1023 53.2827 38.1023ZM53.385 37.5C53.6502 37.5 53.8736 37.4479 54.0555 37.3438C54.2392 37.2396 54.3774 37.1051 54.4702 36.9403C54.5649 36.7756 54.6123 36.6023 54.6123 36.4205V35.8068C54.5839 35.8409 54.5214 35.8722 54.4248 35.9006C54.3301 35.9271 54.2202 35.9508 54.0952 35.9716C53.9721 35.9905 53.8519 36.0076 53.7344 36.0227C53.6189 36.036 53.5252 36.0473 53.4532 36.0568C53.2789 36.0795 53.1161 36.1165 52.9646 36.1676C52.8149 36.2169 52.6937 36.2917 52.6009 36.392C52.51 36.4905 52.4646 36.625 52.4646 36.7955C52.4646 37.0284 52.5507 37.2045 52.7231 37.3239C52.8973 37.4413 53.118 37.5 53.385 37.5ZM57.1769 35.375V38H56.5065V33.6364H57.1542V34.3182H57.211C57.3133 34.0966 57.4686 33.9186 57.6769 33.7841C57.8852 33.6477 58.1542 33.5795 58.4837 33.5795C58.7792 33.5795 59.0377 33.6402 59.2593 33.7614C59.4809 33.8807 59.6532 34.0625 59.7763 34.3068C59.8995 34.5492 59.961 34.8561 59.961 35.2273V38H59.2905V35.2727C59.2905 34.9299 59.2015 34.6629 59.0235 34.4716C58.8455 34.2784 58.6012 34.1818 58.2905 34.1818C58.0765 34.1818 57.8852 34.2282 57.7167 34.321C57.55 34.4138 57.4184 34.5492 57.3218 34.7273C57.2252 34.9053 57.1769 35.1212 57.1769 35.375ZM61.1861 38V33.6364H61.8566V38H61.1861ZM61.5271 32.9091C61.3964 32.9091 61.2837 32.8646 61.189 32.7756C61.0962 32.6866 61.0498 32.5795 61.0498 32.4545C61.0498 32.3295 61.0962 32.2225 61.189 32.1335C61.2837 32.0445 61.3964 32 61.5271 32C61.6577 32 61.7695 32.0445 61.8623 32.1335C61.957 32.2225 62.0043 32.3295 62.0043 32.4545C62.0043 32.5795 61.957 32.6866 61.8623 32.7756C61.7695 32.8646 61.6577 32.9091 61.5271 32.9091ZM63.755 35.375V38H63.0846V33.6364H63.7323V34.3182H63.7891C63.8914 34.0966 64.0467 33.9186 64.255 33.7841C64.4634 33.6477 64.7323 33.5795 65.0619 33.5795C65.3573 33.5795 65.6158 33.6402 65.8374 33.7614C66.059 33.8807 66.2314 34.0625 66.3545 34.3068C66.4776 34.5492 66.5391 34.8561 66.5391 35.2273V38H65.8687V35.2727C65.8687 34.9299 65.7797 34.6629 65.6016 34.4716C65.4236 34.2784 65.1793 34.1818 64.8687 34.1818C64.6547 34.1818 64.4634 34.2282 64.2948 34.321C64.1281 34.4138 63.9965 34.5492 63.8999 34.7273C63.8033 34.9053 63.755 35.1212 63.755 35.375ZM70.1052 32.1818H70.9461L72.9234 37.0114H72.9915L74.9688 32.1818H75.8097V38H75.1506V33.5795H75.0938L73.2756 38H72.6393L70.8211 33.5795H70.7643V38H70.1052V32.1818ZM78.4155 38.1023C78.139 38.1023 77.8881 38.0502 77.6627 37.946C77.4373 37.84 77.2584 37.6875 77.1258 37.4886C76.9932 37.2879 76.9269 37.0455 76.9269 36.7614C76.9269 36.5114 76.9762 36.3087 77.0746 36.1534C77.1731 35.9962 77.3048 35.8731 77.4695 35.7841C77.6343 35.6951 77.8161 35.6288 78.015 35.5852C78.2157 35.5398 78.4174 35.5038 78.6201 35.4773C78.8852 35.4432 79.1002 35.4176 79.265 35.4006C79.4316 35.3816 79.5529 35.3504 79.6286 35.3068C79.7063 35.2633 79.7451 35.1875 79.7451 35.0795V35.0568C79.7451 34.7765 79.6684 34.5587 79.515 34.4034C79.3635 34.2481 79.1334 34.1705 78.8246 34.1705C78.5046 34.1705 78.2536 34.2405 78.0718 34.3807C77.89 34.5208 77.7621 34.6705 77.6883 34.8295L77.0519 34.6023C77.1655 34.3371 77.3171 34.1307 77.5065 33.983C77.6977 33.8333 77.9061 33.7292 78.1315 33.6705C78.3587 33.6098 78.5822 33.5795 78.8019 33.5795C78.9421 33.5795 79.103 33.5966 79.2849 33.6307C79.4686 33.6629 79.6457 33.7301 79.8161 33.8324C79.9885 33.9347 80.1315 34.089 80.2451 34.2955C80.3587 34.5019 80.4155 34.7784 80.4155 35.125V38H79.7451V37.4091H79.711C79.6655 37.5038 79.5898 37.6051 79.4837 37.7131C79.3777 37.821 79.2366 37.9129 79.0604 37.9886C78.8843 38.0644 78.6693 38.1023 78.4155 38.1023ZM78.5178 37.5C78.783 37.5 79.0065 37.4479 79.1883 37.3438C79.372 37.2396 79.5102 37.1051 79.603 36.9403C79.6977 36.7756 79.7451 36.6023 79.7451 36.4205V35.8068C79.7167 35.8409 79.6542 35.8722 79.5576 35.9006C79.4629 35.9271 79.353 35.9508 79.228 35.9716C79.1049 35.9905 78.9847 36.0076 78.8673 36.0227C78.7517 36.036 78.658 36.0473 78.586 36.0568C78.4118 36.0795 78.2489 36.1165 78.0974 36.1676C77.9477 36.2169 77.8265 36.2917 77.7337 36.392C77.6428 36.4905 77.5974 36.625 77.5974 36.7955C77.5974 37.0284 77.6835 37.2045 77.8559 37.3239C78.0301 37.4413 78.2508 37.5 78.5178 37.5ZM84.3893 36.2159V33.6364H85.0597V38H84.3893V37.2614H84.3438C84.2415 37.483 84.0825 37.6714 83.8665 37.8267C83.6506 37.9801 83.3779 38.0568 83.0484 38.0568C82.7756 38.0568 82.5332 37.9972 82.3211 37.8778C82.109 37.7566 81.9423 37.5748 81.8211 37.3324C81.6999 37.0881 81.6393 36.7803 81.6393 36.4091V33.6364H82.3097V36.3636C82.3097 36.6818 82.3987 36.9356 82.5768 37.125C82.7567 37.3144 82.9859 37.4091 83.2643 37.4091C83.4309 37.4091 83.6004 37.3665 83.7728 37.2812C83.947 37.196 84.0929 37.0653 84.2103 36.8892C84.3296 36.7131 84.3893 36.4886 84.3893 36.2159ZM86.9582 32.1818V38H86.2877V32.1818H86.9582ZM89.4702 38.1023C89.1937 38.1023 88.9428 38.0502 88.7174 37.946C88.492 37.84 88.313 37.6875 88.1805 37.4886C88.0479 37.2879 87.9816 37.0455 87.9816 36.7614C87.9816 36.5114 88.0308 36.3087 88.1293 36.1534C88.2278 35.9962 88.3594 35.8731 88.5242 35.7841C88.689 35.6951 88.8708 35.6288 89.0697 35.5852C89.2704 35.5398 89.4721 35.5038 89.6748 35.4773C89.9399 35.4432 90.1549 35.4176 90.3197 35.4006C90.4863 35.3816 90.6075 35.3504 90.6833 35.3068C90.761 35.2633 90.7998 35.1875 90.7998 35.0795V35.0568C90.7998 34.7765 90.7231 34.5587 90.5697 34.4034C90.4182 34.2481 90.188 34.1705 89.8793 34.1705C89.5593 34.1705 89.3083 34.2405 89.1265 34.3807C88.9447 34.5208 88.8168 34.6705 88.743 34.8295L88.1066 34.6023C88.2202 34.3371 88.3718 34.1307 88.5611 33.983C88.7524 33.8333 88.9608 33.7292 89.1861 33.6705C89.4134 33.6098 89.6369 33.5795 89.8566 33.5795C89.9968 33.5795 90.1577 33.5966 90.3396 33.6307C90.5233 33.6629 90.7004 33.7301 90.8708 33.8324C91.0432 33.9347 91.1861 34.089 91.2998 34.2955C91.4134 34.5019 91.4702 34.7784 91.4702 35.125V38H90.7998V37.4091H90.7657C90.7202 37.5038 90.6445 37.6051 90.5384 37.7131C90.4324 37.821 90.2913 37.9129 90.1151 37.9886C89.939 38.0644 89.724 38.1023 89.4702 38.1023ZM89.5725 37.5C89.8377 37.5 90.0611 37.4479 90.243 37.3438C90.4267 37.2396 90.5649 37.1051 90.6577 36.9403C90.7524 36.7756 90.7998 36.6023 90.7998 36.4205V35.8068C90.7714 35.8409 90.7089 35.8722 90.6123 35.9006C90.5176 35.9271 90.4077 35.9508 90.2827 35.9716C90.1596 35.9905 90.0394 36.0076 89.9219 36.0227C89.8064 36.036 89.7127 36.0473 89.6407 36.0568C89.4664 36.0795 89.3036 36.1165 89.1521 36.1676C89.0024 36.2169 88.8812 36.2917 88.7884 36.392C88.6975 36.4905 88.6521 36.625 88.6521 36.7955C88.6521 37.0284 88.7382 37.2045 88.9106 37.3239C89.0848 37.4413 89.3055 37.5 89.5725 37.5Z" fill="#3C6046"/>
<path d="M23.5505 66V60.1818H24.255V65.375H26.9596V66H23.5505ZM27.9596 66V61.6364H28.63V66H27.9596ZM28.3005 60.9091C28.1698 60.9091 28.0571 60.8646 27.9624 60.7756C27.8696 60.6866 27.8232 60.5795 27.8232 60.4545C27.8232 60.3295 27.8696 60.2225 27.9624 60.1335C28.0571 60.0445 28.1698 60 28.3005 60C28.4312 60 28.5429 60.0445 28.6357 60.1335C28.7304 60.2225 28.7778 60.3295 28.7778 60.4545C28.7778 60.5795 28.7304 60.6866 28.6357 60.7756C28.5429 60.8646 28.4312 60.9091 28.3005 60.9091ZM31.6307 66.0909C31.2368 66.0909 30.8912 65.9972 30.5938 65.8097C30.2984 65.6222 30.0673 65.3598 29.9006 65.0227C29.7359 64.6856 29.6535 64.2917 29.6535 63.8409C29.6535 63.3864 29.7359 62.9896 29.9006 62.6506C30.0673 62.3116 30.2984 62.0483 30.5938 61.8608C30.8912 61.6733 31.2368 61.5795 31.6307 61.5795C32.0247 61.5795 32.3694 61.6733 32.6648 61.8608C32.9622 62.0483 33.1932 62.3116 33.358 62.6506C33.5247 62.9896 33.608 63.3864 33.608 63.8409C33.608 64.2917 33.5247 64.6856 33.358 65.0227C33.1932 65.3598 32.9622 65.6222 32.6648 65.8097C32.3694 65.9972 32.0247 66.0909 31.6307 66.0909ZM31.6307 65.4886C31.93 65.4886 32.1762 65.4119 32.3694 65.2585C32.5626 65.1051 32.7056 64.9034 32.7984 64.6534C32.8912 64.4034 32.9376 64.1326 32.9376 63.8409C32.9376 63.5492 32.8912 63.2775 32.7984 63.0256C32.7056 62.7737 32.5626 62.5701 32.3694 62.4148C32.1762 62.2595 31.93 62.1818 31.6307 62.1818C31.3315 62.1818 31.0853 62.2595 30.8921 62.4148C30.6989 62.5701 30.5559 62.7737 30.4631 63.0256C30.3703 63.2775 30.3239 63.5492 30.3239 63.8409C30.3239 64.1326 30.3703 64.4034 30.4631 64.6534C30.5559 64.9034 30.6989 65.1051 30.8921 65.2585C31.0853 65.4119 31.3315 65.4886 31.6307 65.4886ZM35.3019 63.375V66H34.6315V61.6364H35.2792V62.3182H35.336C35.4383 62.0966 35.5936 61.9186 35.8019 61.7841C36.0102 61.6477 36.2792 61.5795 36.6087 61.5795C36.9042 61.5795 37.1627 61.6402 37.3843 61.7614C37.6059 61.8807 37.7782 62.0625 37.9013 62.3068C38.0245 62.5492 38.086 62.8561 38.086 63.2273V66H37.4155V63.2727C37.4155 62.9299 37.3265 62.6629 37.1485 62.4716C36.9705 62.2784 36.7262 62.1818 36.4155 62.1818C36.2015 62.1818 36.0102 62.2282 35.8417 62.321C35.675 62.4138 35.5434 62.5492 35.4468 62.7273C35.3502 62.9053 35.3019 63.1212 35.3019 63.375ZM41.1407 66.0909C40.7202 66.0909 40.3575 65.9981 40.0526 65.8125C39.7496 65.625 39.5157 65.3636 39.3509 65.0284C39.188 64.6913 39.1066 64.2992 39.1066 63.8523C39.1066 63.4053 39.188 63.0114 39.3509 62.6705C39.5157 62.3277 39.7449 62.0606 40.0384 61.8693C40.3339 61.6761 40.6786 61.5795 41.0725 61.5795C41.2998 61.5795 41.5242 61.6174 41.7458 61.6932C41.9674 61.7689 42.1691 61.892 42.3509 62.0625C42.5327 62.2311 42.6776 62.4545 42.7856 62.733C42.8935 63.0114 42.9475 63.3542 42.9475 63.7614V64.0455H39.5839V63.4659H42.2657C42.2657 63.2197 42.2164 63 42.118 62.8068C42.0214 62.6136 41.8831 62.4612 41.7032 62.3494C41.5252 62.2377 41.3149 62.1818 41.0725 62.1818C40.8055 62.1818 40.5744 62.2481 40.3793 62.3807C40.1861 62.5114 40.0375 62.6818 39.9333 62.892C39.8291 63.1023 39.7771 63.3277 39.7771 63.5682V63.9545C39.7771 64.2841 39.8339 64.5634 39.9475 64.7926C40.063 65.0199 40.2231 65.1932 40.4276 65.3125C40.6322 65.4299 40.8699 65.4886 41.1407 65.4886C41.3168 65.4886 41.4759 65.464 41.618 65.4148C41.7619 65.3636 41.886 65.2879 41.9901 65.1875C42.0943 65.0852 42.1748 64.9583 42.2316 64.8068L42.8793 64.9886C42.8111 65.2083 42.6966 65.4015 42.5356 65.5682C42.3746 65.733 42.1757 65.8617 41.939 65.9545C41.7022 66.0455 41.4361 66.0909 41.1407 66.0909ZM44.6379 60.1818V66H43.9674V60.1818H44.6379ZM48.2067 66V60.1818H50.1727C50.6272 60.1818 51.0003 60.2595 51.292 60.4148C51.5836 60.5682 51.7995 60.7794 51.9397 61.0483C52.0798 61.3172 52.1499 61.6231 52.1499 61.9659C52.1499 62.3087 52.0798 62.6127 51.9397 62.8778C51.7995 63.143 51.5846 63.3513 51.2948 63.5028C51.005 63.6525 50.6348 63.7273 50.184 63.7273H48.5931V63.0909H50.1613C50.4719 63.0909 50.7219 63.0455 50.9113 62.9545C51.1026 62.8636 51.2408 62.7348 51.3261 62.5682C51.4132 62.3996 51.4567 62.1989 51.4567 61.9659C51.4567 61.733 51.4132 61.5294 51.3261 61.3551C51.2389 61.1809 51.0997 61.0464 50.9084 60.9517C50.7172 60.8551 50.4643 60.8068 50.1499 60.8068H48.9113V66H48.2067ZM50.9454 63.3864L52.3772 66H51.559L50.1499 63.3864H50.9454ZM54.9589 66.0909C54.5649 66.0909 54.2193 65.9972 53.9219 65.8097C53.6265 65.6222 53.3954 65.3598 53.2288 65.0227C53.064 64.6856 52.9816 64.2917 52.9816 63.8409C52.9816 63.3864 53.064 62.9896 53.2288 62.6506C53.3954 62.3116 53.6265 62.0483 53.9219 61.8608C54.2193 61.6733 54.5649 61.5795 54.9589 61.5795C55.3528 61.5795 55.6975 61.6733 55.993 61.8608C56.2903 62.0483 56.5214 62.3116 56.6861 62.6506C56.8528 62.9896 56.9361 63.3864 56.9361 63.8409C56.9361 64.2917 56.8528 64.6856 56.6861 65.0227C56.5214 65.3598 56.2903 65.6222 55.993 65.8097C55.6975 65.9972 55.3528 66.0909 54.9589 66.0909ZM54.9589 65.4886C55.2581 65.4886 55.5043 65.4119 55.6975 65.2585C55.8907 65.1051 56.0337 64.9034 56.1265 64.6534C56.2193 64.4034 56.2657 64.1326 56.2657 63.8409C56.2657 63.5492 56.2193 63.2775 56.1265 63.0256C56.0337 62.7737 55.8907 62.5701 55.6975 62.4148C55.5043 62.2595 55.2581 62.1818 54.9589 62.1818C54.6596 62.1818 54.4134 62.2595 54.2202 62.4148C54.0271 62.5701 53.8841 62.7737 53.7913 63.0256C53.6985 63.2775 53.6521 63.5492 53.6521 63.8409C53.6521 64.1326 53.6985 64.4034 53.7913 64.6534C53.8841 64.9034 54.0271 65.1051 54.2202 65.2585C54.4134 65.4119 54.6596 65.4886 54.9589 65.4886ZM58.63 63.375V66H57.9596V61.6364H58.6073V62.3182H58.6641C58.7664 62.0966 58.9217 61.9186 59.13 61.7841C59.3384 61.6477 59.6073 61.5795 59.9369 61.5795C60.2323 61.5795 60.4908 61.6402 60.7124 61.7614C60.934 61.8807 61.1064 62.0625 61.2295 62.3068C61.3526 62.5492 61.4141 62.8561 61.4141 63.2273V66H60.7437V63.2727C60.7437 62.9299 60.6547 62.6629 60.4766 62.4716C60.2986 62.2784 60.0543 62.1818 59.7437 62.1818C59.5297 62.1818 59.3384 62.2282 59.1698 62.321C59.0031 62.4138 58.8715 62.5492 58.7749 62.7273C58.6783 62.9053 58.63 63.1212 58.63 63.375ZM63.9234 66.1023C63.6468 66.1023 63.3959 66.0502 63.1705 65.946C62.9451 65.84 62.7662 65.6875 62.6336 65.4886C62.501 65.2879 62.4347 65.0455 62.4347 64.7614C62.4347 64.5114 62.484 64.3087 62.5825 64.1534C62.6809 63.9962 62.8126 63.8731 62.9773 63.7841C63.1421 63.6951 63.3239 63.6288 63.5228 63.5852C63.7236 63.5398 63.9253 63.5038 64.1279 63.4773C64.3931 63.4432 64.608 63.4176 64.7728 63.4006C64.9395 63.3816 65.0607 63.3504 65.1364 63.3068C65.2141 63.2633 65.2529 63.1875 65.2529 63.0795V63.0568C65.2529 62.7765 65.1762 62.5587 65.0228 62.4034C64.8713 62.2481 64.6412 62.1705 64.3325 62.1705C64.0124 62.1705 63.7614 62.2405 63.5796 62.3807C63.3978 62.5208 63.27 62.6705 63.1961 62.8295L62.5597 62.6023C62.6734 62.3371 62.8249 62.1307 63.0143 61.983C63.2056 61.8333 63.4139 61.7292 63.6393 61.6705C63.8665 61.6098 64.09 61.5795 64.3097 61.5795C64.4499 61.5795 64.6109 61.5966 64.7927 61.6307C64.9764 61.6629 65.1535 61.7301 65.3239 61.8324C65.4963 61.9347 65.6393 62.089 65.7529 62.2955C65.8665 62.5019 65.9234 62.7784 65.9234 63.125V66H65.2529V65.4091H65.2188C65.1734 65.5038 65.0976 65.6051 64.9915 65.7131C64.8855 65.821 64.7444 65.9129 64.5682 65.9886C64.3921 66.0644 64.1772 66.1023 63.9234 66.1023ZM64.0256 65.5C64.2908 65.5 64.5143 65.4479 64.6961 65.3438C64.8798 65.2396 65.0181 65.1051 65.1109 64.9403C65.2056 64.7756 65.2529 64.6023 65.2529 64.4205V63.8068C65.2245 63.8409 65.162 63.8722 65.0654 63.9006C64.9707 63.9271 64.8609 63.9508 64.7359 63.9716C64.6128 63.9905 64.4925 64.0076 64.3751 64.0227C64.2595 64.036 64.1658 64.0473 64.0938 64.0568C63.9196 64.0795 63.7567 64.1165 63.6052 64.1676C63.4556 64.2169 63.3343 64.2917 63.2415 64.392C63.1506 64.4905 63.1052 64.625 63.1052 64.7955C63.1052 65.0284 63.1914 65.2045 63.3637 65.3239C63.5379 65.4413 63.7586 65.5 64.0256 65.5ZM67.8175 60.1818V66H67.1471V60.1818H67.8175ZM70.6932 66.0909C70.3296 66.0909 70.0086 65.9991 69.7302 65.8153C69.4518 65.6297 69.234 65.3684 69.0768 65.0312C68.9196 64.6922 68.841 64.2917 68.841 63.8295C68.841 63.3712 68.9196 62.9735 69.0768 62.6364C69.234 62.2992 69.4527 62.0388 69.733 61.8551C70.0133 61.6714 70.3372 61.5795 70.7046 61.5795C70.9887 61.5795 71.2131 61.6269 71.3779 61.7216C71.5446 61.8144 71.6715 61.9205 71.7586 62.0398C71.8476 62.1572 71.9167 62.2538 71.966 62.3295H72.0228V60.1818H72.6932V66H72.0455V65.3295H71.966C71.9167 65.4091 71.8467 65.5095 71.7557 65.6307C71.6648 65.75 71.5351 65.857 71.3665 65.9517C71.198 66.0445 70.9736 66.0909 70.6932 66.0909ZM70.7842 65.4886C71.0531 65.4886 71.2804 65.4186 71.466 65.2784C71.6516 65.1364 71.7927 64.9403 71.8893 64.6903C71.9859 64.4384 72.0342 64.1477 72.0342 63.8182C72.0342 63.4924 71.9868 63.2074 71.8921 62.9631C71.7974 62.7169 71.6573 62.5256 71.4717 62.3892C71.2861 62.2509 71.0569 62.1818 70.7842 62.1818C70.5001 62.1818 70.2633 62.2547 70.0739 62.4006C69.8864 62.5445 69.7453 62.7405 69.6506 62.9886C69.5578 63.2348 69.5114 63.5114 69.5114 63.8182C69.5114 64.1288 69.5588 64.411 69.6535 64.6648C69.7501 64.9167 69.8921 65.1174 70.0796 65.267C70.269 65.4148 70.5039 65.4886 70.7842 65.4886ZM75.787 66.0909C75.3931 66.0909 75.0474 65.9972 74.7501 65.8097C74.4546 65.6222 74.2236 65.3598 74.0569 65.0227C73.8921 64.6856 73.8097 64.2917 73.8097 63.8409C73.8097 63.3864 73.8921 62.9896 74.0569 62.6506C74.2236 62.3116 74.4546 62.0483 74.7501 61.8608C75.0474 61.6733 75.3931 61.5795 75.787 61.5795C76.1809 61.5795 76.5256 61.6733 76.8211 61.8608C77.1184 62.0483 77.3495 62.3116 77.5143 62.6506C77.6809 62.9896 77.7643 63.3864 77.7643 63.8409C77.7643 64.2917 77.6809 64.6856 77.5143 65.0227C77.3495 65.3598 77.1184 65.6222 76.8211 65.8097C76.5256 65.9972 76.1809 66.0909 75.787 66.0909ZM75.787 65.4886C76.0862 65.4886 76.3325 65.4119 76.5256 65.2585C76.7188 65.1051 76.8618 64.9034 76.9546 64.6534C77.0474 64.4034 77.0938 64.1326 77.0938 63.8409C77.0938 63.5492 77.0474 63.2775 76.9546 63.0256C76.8618 62.7737 76.7188 62.5701 76.5256 62.4148C76.3325 62.2595 76.0862 62.1818 75.787 62.1818C75.4878 62.1818 75.2415 62.2595 75.0484 62.4148C74.8552 62.5701 74.7122 62.7737 74.6194 63.0256C74.5266 63.2775 74.4802 63.5492 74.4802 63.8409C74.4802 64.1326 74.5266 64.4034 74.6194 64.6534C74.7122 64.9034 74.8552 65.1051 75.0484 65.2585C75.2415 65.4119 75.4878 65.4886 75.787 65.4886Z" fill="#3C6046"/>
<path d="M117.411 58.3068V67.875H116.843V58.3068H117.411Z" fill="#3C6046"/>
<path d="M121.154 64.8068V64.2273L123.71 60.1818H124.131V61.0795H123.847L121.915 64.1364V64.1818H125.358V64.8068H121.154ZM123.892 66V64.6307V64.3608V60.1818H124.563V66H123.892ZM128.389 66.0795C128.014 66.0795 127.679 66.0152 127.386 65.8864C127.094 65.7576 126.862 65.5786 126.69 65.3494C126.519 65.1184 126.427 64.8504 126.411 64.5455H127.127C127.143 64.733 127.207 64.8949 127.321 65.0312C127.434 65.1657 127.583 65.2699 127.767 65.3438C127.95 65.4176 128.154 65.4545 128.377 65.4545C128.627 65.4545 128.849 65.411 129.042 65.3239C129.235 65.2367 129.387 65.1155 129.497 64.9602C129.607 64.8049 129.661 64.625 129.661 64.4205C129.661 64.2064 129.608 64.018 129.502 63.8551C129.396 63.6903 129.241 63.5616 129.036 63.4688C128.832 63.3759 128.582 63.3295 128.286 63.3295H127.821V62.7045H128.286C128.518 62.7045 128.72 62.6629 128.894 62.5795C129.071 62.4962 129.208 62.3788 129.306 62.2273C129.407 62.0758 129.457 61.8977 129.457 61.6932C129.457 61.4962 129.413 61.3248 129.326 61.179C129.239 61.0331 129.116 60.9195 128.957 60.8381C128.8 60.7566 128.614 60.7159 128.4 60.7159C128.199 60.7159 128.01 60.7528 127.832 60.8267C127.656 60.8987 127.512 61.0038 127.4 61.142C127.288 61.2784 127.228 61.4432 127.218 61.6364H126.536C126.548 61.3314 126.64 61.0644 126.812 60.8352C126.984 60.6042 127.21 60.4242 127.488 60.2955C127.768 60.1667 128.076 60.1023 128.411 60.1023C128.771 60.1023 129.08 60.1752 129.338 60.321C129.595 60.465 129.793 60.6553 129.931 60.892C130.07 61.1288 130.139 61.3845 130.139 61.6591C130.139 61.9867 130.053 62.2661 129.88 62.4972C129.71 62.7282 129.478 62.8883 129.184 62.9773V63.0227C129.552 63.0833 129.839 63.2396 130.045 63.4915C130.251 63.7415 130.355 64.0511 130.355 64.4205C130.355 64.7367 130.268 65.0208 130.096 65.2727C129.926 65.5227 129.693 65.7197 129.397 65.8636C129.102 66.0076 128.766 66.0795 128.389 66.0795ZM131.38 64.8068V64.2273L133.937 60.1818H134.357V61.0795H134.073L132.142 64.1364V64.1818H135.585V64.8068H131.38ZM134.119 66V64.6307V64.3608V60.1818H134.789V66H134.119ZM138.468 66.0795C138.134 66.0795 137.834 66.0133 137.567 65.8807C137.3 65.7481 137.086 65.5663 136.925 65.3352C136.764 65.1042 136.676 64.8409 136.661 64.5455H137.343C137.369 64.8087 137.488 65.0265 137.701 65.1989C137.915 65.3693 138.17 65.4545 138.468 65.4545C138.706 65.4545 138.918 65.3987 139.104 65.2869C139.291 65.1752 139.438 65.0218 139.544 64.8267C139.652 64.6297 139.706 64.4072 139.706 64.1591C139.706 63.9053 139.65 63.679 139.539 63.4801C139.429 63.2794 139.277 63.1212 139.084 63.0057C138.891 62.8902 138.67 62.8314 138.422 62.8295C138.244 62.8277 138.061 62.8551 137.874 62.9119C137.686 62.9669 137.532 63.0379 137.411 63.125L136.752 63.0455L137.104 60.1818H140.127V60.8068H137.695L137.49 62.5227H137.524C137.644 62.428 137.793 62.3494 137.973 62.2869C138.153 62.2244 138.341 62.1932 138.536 62.1932C138.892 62.1932 139.209 62.2784 139.487 62.4489C139.768 62.6174 139.987 62.8485 140.147 63.142C140.308 63.4356 140.388 63.7708 140.388 64.1477C140.388 64.5189 140.305 64.8504 140.138 65.142C139.973 65.4318 139.746 65.661 139.456 65.8295C139.166 65.9962 138.837 66.0795 138.468 66.0795ZM141.698 66L144.301 60.8523V60.8068H141.301V60.1818H145.028V60.8409L142.437 66H141.698ZM147.894 66.0795C147.655 66.0758 147.416 66.0303 147.178 65.9432C146.939 65.8561 146.721 65.7093 146.524 65.5028C146.327 65.2945 146.169 65.0133 146.05 64.6591C145.931 64.303 145.871 63.8561 145.871 63.3182C145.871 62.803 145.919 62.3466 146.016 61.9489C146.112 61.5492 146.253 61.2131 146.436 60.9403C146.62 60.6657 146.842 60.4574 147.101 60.3153C147.362 60.1733 147.657 60.1023 147.985 60.1023C148.31 60.1023 148.6 60.1676 148.854 60.2983C149.11 60.4271 149.318 60.607 149.479 60.8381C149.64 61.0691 149.744 61.3352 149.791 61.6364H149.098C149.034 61.375 148.909 61.1581 148.723 60.9858C148.538 60.8134 148.291 60.7273 147.985 60.7273C147.534 60.7273 147.179 60.9233 146.919 61.3153C146.662 61.7074 146.532 62.2576 146.53 62.9659H146.576C146.682 62.8049 146.808 62.6676 146.953 62.554C147.101 62.4384 147.264 62.3494 147.442 62.2869C147.62 62.2244 147.808 62.1932 148.007 62.1932C148.341 62.1932 148.646 62.2765 148.922 62.4432C149.199 62.608 149.42 62.8362 149.587 63.1278C149.754 63.4176 149.837 63.75 149.837 64.125C149.837 64.4848 149.756 64.8144 149.595 65.1136C149.434 65.411 149.208 65.6477 148.916 65.8239C148.627 65.9981 148.286 66.0833 147.894 66.0795ZM147.894 65.4545C148.132 65.4545 148.346 65.3949 148.536 65.2756C148.727 65.1562 148.878 64.9962 148.987 64.7955C149.099 64.5947 149.155 64.3712 149.155 64.125C149.155 63.8845 149.101 63.6657 148.993 63.4688C148.887 63.2699 148.74 63.1117 148.553 62.9943C148.367 62.8769 148.155 62.8182 147.916 62.8182C147.737 62.8182 147.569 62.8542 147.414 62.9261C147.258 62.9962 147.122 63.0928 147.005 63.2159C146.889 63.339 146.798 63.4801 146.732 63.6392C146.665 63.7964 146.632 63.9621 146.632 64.1364C146.632 64.3674 146.686 64.5833 146.794 64.7841C146.904 64.9848 147.054 65.1468 147.243 65.2699C147.434 65.393 147.651 65.4545 147.894 65.4545ZM152.818 66.0795C152.428 66.0795 152.083 66.0104 151.784 65.8722C151.486 65.732 151.254 65.5398 151.088 65.2955C150.921 65.0492 150.839 64.7689 150.84 64.4545C150.839 64.2083 150.887 63.9811 150.985 63.7727C151.084 63.5625 151.218 63.3873 151.389 63.2472C151.561 63.1051 151.753 63.0152 151.965 62.9773V62.9432C151.687 62.8712 151.465 62.715 151.301 62.4744C151.136 62.232 151.054 61.9564 151.056 61.6477C151.054 61.3523 151.129 61.0881 151.281 60.8551C151.432 60.6222 151.641 60.4384 151.906 60.304C152.173 60.1695 152.477 60.1023 152.818 60.1023C153.155 60.1023 153.456 60.1695 153.721 60.304C153.986 60.4384 154.195 60.6222 154.346 60.8551C154.5 61.0881 154.577 61.3523 154.579 61.6477C154.577 61.9564 154.493 62.232 154.326 62.4744C154.161 62.715 153.943 62.8712 153.67 62.9432V62.9773C153.88 63.0152 154.07 63.1051 154.238 63.2472C154.407 63.3873 154.541 63.5625 154.642 63.7727C154.742 63.9811 154.793 64.2083 154.795 64.4545C154.793 64.7689 154.708 65.0492 154.539 65.2955C154.373 65.5398 154.141 65.732 153.843 65.8722C153.548 66.0104 153.206 66.0795 152.818 66.0795ZM152.818 65.4545C153.081 65.4545 153.308 65.4119 153.5 65.3267C153.691 65.2415 153.839 65.1212 153.943 64.9659C154.047 64.8106 154.1 64.6288 154.102 64.4205C154.1 64.2008 154.043 64.0066 153.931 63.8381C153.82 63.6695 153.667 63.5369 153.474 63.4403C153.283 63.3437 153.064 63.2955 152.818 63.2955C152.57 63.2955 152.348 63.3437 152.153 63.4403C151.96 63.5369 151.807 63.6695 151.696 63.8381C151.586 64.0066 151.532 64.2008 151.534 64.4205C151.532 64.6288 151.582 64.8106 151.684 64.9659C151.788 65.1212 151.937 65.2415 152.13 65.3267C152.323 65.4119 152.553 65.4545 152.818 65.4545ZM152.818 62.6932C153.026 62.6932 153.211 62.6515 153.372 62.5682C153.535 62.4848 153.662 62.3684 153.755 62.2188C153.848 62.0691 153.895 61.8939 153.897 61.6932C153.895 61.4962 153.849 61.3248 153.758 61.179C153.667 61.0312 153.541 60.9176 153.38 60.8381C153.219 60.7566 153.032 60.7159 152.818 60.7159C152.6 60.7159 152.41 60.7566 152.247 60.8381C152.084 60.9176 151.958 61.0312 151.869 61.179C151.78 61.3248 151.736 61.4962 151.738 61.6932C151.736 61.8939 151.781 62.0691 151.872 62.2188C151.964 62.3684 152.092 62.4848 152.255 62.5682C152.418 62.6515 152.606 62.6932 152.818 62.6932ZM156.066 66L158.668 60.8523V60.8068H155.668V60.1818H159.395V60.8409L156.804 66H156.066ZM160.792 66L163.394 60.8523V60.8068H160.394V60.1818H164.122V60.8409L161.531 66H160.792Z" fill="#A7A7A7"/>
<path d="M25.4937 71.1818V77H24.7891V71.9205H24.755L23.3346 72.8636V72.1477L24.7891 71.1818H25.4937ZM27.6783 72.6364L28.7238 74.4205L29.7692 72.6364H30.542L29.1329 74.8182L30.542 77H29.7692L28.7238 75.3068L27.6783 77H26.9056L28.292 74.8182L26.9056 72.6364H27.6783ZM25.4937 81.1818V87H24.7891V81.9205H24.755L23.3346 82.8636V82.1477L24.7891 81.1818H25.4937ZM27.6783 82.6364L28.7238 84.4205L29.7692 82.6364H30.542L29.1329 84.8182L30.542 87H29.7692L28.7238 85.3068L27.6783 87H26.9056L28.292 84.8182L26.9056 82.6364H27.6783Z" fill="#4A6654"/>
<path d="M33.8396 77V71.1818H35.8736C36.2789 71.1818 36.6132 71.2519 36.8765 71.392C37.1397 71.5303 37.3358 71.7169 37.4646 71.9517C37.5933 72.1847 37.6577 72.4432 37.6577 72.7273C37.6577 72.9773 37.6132 73.1837 37.5242 73.3466C37.4371 73.5095 37.3216 73.6383 37.1776 73.733C37.0356 73.8277 36.8812 73.8977 36.7146 73.9432V74C36.8926 74.0114 37.0716 74.0739 37.2515 74.1875C37.4314 74.3011 37.582 74.464 37.7032 74.6761C37.8244 74.8883 37.885 75.1477 37.885 75.4545C37.885 75.7462 37.8187 76.0085 37.6861 76.2415C37.5536 76.4744 37.3443 76.6591 37.0583 76.7955C36.7723 76.9318 36.4002 77 35.9418 77H33.8396ZM34.5441 76.375H35.9418C36.4021 76.375 36.7288 76.286 36.9219 76.108C37.117 75.928 37.2146 75.7102 37.2146 75.4545C37.2146 75.2576 37.1644 75.0758 37.064 74.9091C36.9636 74.7405 36.8206 74.6061 36.635 74.5057C36.4494 74.4034 36.2297 74.3523 35.9759 74.3523H34.5441V76.375ZM34.5441 73.7386H35.8509C36.063 73.7386 36.2543 73.697 36.4248 73.6136C36.5971 73.5303 36.7335 73.4129 36.8339 73.2614C36.9361 73.1098 36.9873 72.9318 36.9873 72.7273C36.9873 72.4716 36.8983 72.2547 36.7202 72.0767C36.5422 71.8968 36.26 71.8068 35.8736 71.8068H34.5441V73.7386ZM41.7018 75.2159V72.6364H42.3722V77H41.7018V76.2614H41.6563C41.554 76.483 41.395 76.6714 41.179 76.8267C40.9631 76.9801 40.6904 77.0568 40.3609 77.0568C40.0881 77.0568 39.8457 76.9972 39.6336 76.8778C39.4215 76.7566 39.2548 76.5748 39.1336 76.3324C39.0124 76.0881 38.9518 75.7803 38.9518 75.4091V72.6364H39.6222V75.3636C39.6222 75.6818 39.7112 75.9356 39.8893 76.125C40.0692 76.3144 40.2984 76.4091 40.5768 76.4091C40.7434 76.4091 40.9129 76.3665 41.0853 76.2812C41.2595 76.196 41.4054 76.0653 41.5228 75.8892C41.6421 75.7131 41.7018 75.4886 41.7018 75.2159ZM43.6911 77V71.1818H44.3616V73.3295H44.4184C44.4676 73.2538 44.5358 73.1572 44.6229 73.0398C44.712 72.9205 44.8388 72.8144 45.0036 72.7216C45.1703 72.6269 45.3957 72.5795 45.6798 72.5795C46.0472 72.5795 46.371 72.6714 46.6513 72.8551C46.9316 73.0388 47.1504 73.2992 47.3076 73.6364C47.4648 73.9735 47.5434 74.3712 47.5434 74.8295C47.5434 75.2917 47.4648 75.6922 47.3076 76.0312C47.1504 76.3684 46.9326 76.6297 46.6542 76.8153C46.3758 76.9991 46.0548 77.0909 45.6911 77.0909C45.4108 77.0909 45.1864 77.0445 45.0178 76.9517C44.8493 76.857 44.7195 76.75 44.6286 76.6307C44.5377 76.5095 44.4676 76.4091 44.4184 76.3295H44.3388V77H43.6911ZM44.3502 74.8182C44.3502 75.1477 44.3985 75.4384 44.4951 75.6903C44.5917 75.9403 44.7328 76.1364 44.9184 76.2784C45.104 76.4186 45.3313 76.4886 45.6002 76.4886C45.8805 76.4886 46.1144 76.4148 46.3019 76.267C46.4913 76.1174 46.6334 75.9167 46.728 75.6648C46.8246 75.411 46.8729 75.1288 46.8729 74.8182C46.8729 74.5114 46.8256 74.2348 46.7309 73.9886C46.6381 73.7405 46.497 73.5445 46.3076 73.4006C46.1201 73.2547 45.8843 73.1818 45.6002 73.1818C45.3275 73.1818 45.0983 73.2509 44.9127 73.3892C44.7271 73.5256 44.587 73.7169 44.4923 73.9631C44.3976 74.2074 44.3502 74.4924 44.3502 74.8182ZM51.319 75.2159V72.6364H51.9894V77H51.319V76.2614H51.2735C51.1712 76.483 51.0121 76.6714 50.7962 76.8267C50.5803 76.9801 50.3076 77.0568 49.978 77.0568C49.7053 77.0568 49.4629 76.9972 49.2508 76.8778C49.0387 76.7566 48.872 76.5748 48.7508 76.3324C48.6296 76.0881 48.569 75.7803 48.569 75.4091V72.6364H49.2394V75.3636C49.2394 75.6818 49.3284 75.9356 49.5065 76.125C49.6864 76.3144 49.9155 76.4091 50.194 76.4091C50.3606 76.4091 50.5301 76.3665 50.7025 76.2812C50.8767 76.196 51.0226 76.0653 51.14 75.8892C51.2593 75.7131 51.319 75.4886 51.319 75.2159ZM53.2174 77V72.6364H53.8651V73.2955H53.9106C53.9901 73.0795 54.1341 72.9044 54.3424 72.7699C54.5507 72.6354 54.7856 72.5682 55.0469 72.5682C55.0962 72.5682 55.1577 72.5691 55.2316 72.571C55.3055 72.5729 55.3613 72.5758 55.3992 72.5795V73.2614C55.3765 73.2557 55.3244 73.2472 55.243 73.2358C55.1634 73.2225 55.0791 73.2159 54.9901 73.2159C54.778 73.2159 54.5886 73.2604 54.4219 73.3494C54.2572 73.4366 54.1265 73.5578 54.0299 73.7131C53.9352 73.8665 53.8879 74.0417 53.8879 74.2386V77H53.2174ZM37.0214 82.6364C36.9873 82.3485 36.849 82.125 36.6066 81.9659C36.3642 81.8068 36.0668 81.7273 35.7146 81.7273C35.457 81.7273 35.2316 81.7689 35.0384 81.8523C34.8471 81.9356 34.6975 82.0502 34.5896 82.196C34.4835 82.3419 34.4305 82.5076 34.4305 82.6932C34.4305 82.8485 34.4674 82.982 34.5413 83.0938C34.617 83.2036 34.7136 83.2955 34.831 83.3693C34.9485 83.4413 35.0716 83.5009 35.2004 83.5483C35.3291 83.5937 35.4475 83.6307 35.5555 83.6591L36.1464 83.8182C36.2979 83.858 36.4664 83.9129 36.6521 83.983C36.8396 84.053 37.0185 84.1487 37.189 84.2699C37.3613 84.3892 37.5034 84.5426 37.6151 84.7301C37.7269 84.9176 37.7827 85.1477 37.7827 85.4205C37.7827 85.7348 37.7004 86.0189 37.5356 86.2727C37.3727 86.5265 37.1341 86.7282 36.8197 86.8778C36.5072 87.0275 36.1274 87.1023 35.6805 87.1023C35.2638 87.1023 34.903 87.035 34.5981 86.9006C34.295 86.7661 34.0564 86.5786 33.8822 86.3381C33.7098 86.0975 33.6123 85.8182 33.5896 85.5H34.3168C34.3358 85.7197 34.4096 85.9015 34.5384 86.0455C34.6691 86.1875 34.8339 86.2936 35.0327 86.3636C35.2335 86.4318 35.4494 86.4659 35.6805 86.4659C35.9494 86.4659 36.1909 86.4223 36.4049 86.3352C36.6189 86.2462 36.7884 86.1231 36.9134 85.9659C37.0384 85.8068 37.1009 85.6212 37.1009 85.4091C37.1009 85.2159 37.0469 85.0587 36.939 84.9375C36.831 84.8163 36.689 84.7178 36.5129 84.642C36.3367 84.5663 36.1464 84.5 35.9418 84.4432L35.2259 84.2386C34.7714 84.108 34.4115 83.9214 34.1464 83.679C33.8812 83.4366 33.7486 83.1193 33.7486 82.7273C33.7486 82.4015 33.8367 82.1174 34.0129 81.875C34.1909 81.6307 34.4295 81.4413 34.7288 81.3068C35.0299 81.1705 35.3661 81.1023 35.7373 81.1023C36.1123 81.1023 36.4456 81.1695 36.7373 81.304C37.0289 81.4366 37.26 81.6184 37.4305 81.8494C37.6028 82.0805 37.6937 82.3428 37.7032 82.6364H37.0214ZM40.6798 87.0909C40.2593 87.0909 39.8966 86.9981 39.5917 86.8125C39.2887 86.625 39.0548 86.3636 38.89 86.0284C38.7271 85.6913 38.6457 85.2992 38.6457 84.8523C38.6457 84.4053 38.7271 84.0114 38.89 83.6705C39.0548 83.3277 39.2839 83.0606 39.5775 82.8693C39.8729 82.6761 40.2176 82.5795 40.6116 82.5795C40.8388 82.5795 41.0633 82.6174 41.2849 82.6932C41.5065 82.7689 41.7082 82.892 41.89 83.0625C42.0718 83.2311 42.2167 83.4545 42.3246 83.733C42.4326 84.0114 42.4866 84.3542 42.4866 84.7614V85.0455H39.1229V84.4659H41.8048C41.8048 84.2197 41.7555 84 41.657 83.8068C41.5604 83.6136 41.4222 83.4612 41.2423 83.3494C41.0642 83.2377 40.854 83.1818 40.6116 83.1818C40.3445 83.1818 40.1135 83.2481 39.9184 83.3807C39.7252 83.5114 39.5765 83.6818 39.4724 83.892C39.3682 84.1023 39.3161 84.3277 39.3161 84.5682V84.9545C39.3161 85.2841 39.3729 85.5634 39.4866 85.7926C39.6021 86.0199 39.7621 86.1932 39.9667 86.3125C40.1712 86.4299 40.4089 86.4886 40.6798 86.4886C40.8559 86.4886 41.015 86.464 41.157 86.4148C41.301 86.3636 41.425 86.2879 41.5292 86.1875C41.6334 86.0852 41.7138 85.9583 41.7707 85.8068L42.4184 85.9886C42.3502 86.2083 42.2356 86.4015 42.0746 86.5682C41.9137 86.733 41.7148 86.8617 41.478 86.9545C41.2413 87.0455 40.9752 87.0909 40.6798 87.0909ZM43.5974 87V81.1818H44.2678V83.3295H44.3246C44.3739 83.2538 44.4421 83.1572 44.5292 83.0398C44.6182 82.9205 44.7451 82.8144 44.9099 82.7216C45.0765 82.6269 45.3019 82.5795 45.586 82.5795C45.9534 82.5795 46.2773 82.6714 46.5576 82.8551C46.8379 83.0388 47.0566 83.2992 47.2138 83.6364C47.371 83.9735 47.4496 84.3712 47.4496 84.8295C47.4496 85.2917 47.371 85.6922 47.2138 86.0312C47.0566 86.3684 46.8388 86.6297 46.5604 86.8153C46.282 86.9991 45.961 87.0909 45.5974 87.0909C45.3171 87.0909 45.0926 87.0445 44.9241 86.9517C44.7555 86.857 44.6258 86.75 44.5349 86.6307C44.444 86.5095 44.3739 86.4091 44.3246 86.3295H44.2451V87H43.5974ZM44.2565 84.8182C44.2565 85.1477 44.3048 85.4384 44.4013 85.6903C44.4979 85.9403 44.639 86.1364 44.8246 86.2784C45.0102 86.4186 45.2375 86.4886 45.5065 86.4886C45.7868 86.4886 46.0207 86.4148 46.2082 86.267C46.3976 86.1174 46.5396 85.9167 46.6343 85.6648C46.7309 85.411 46.7792 85.1288 46.7792 84.8182C46.7792 84.5114 46.7318 84.2348 46.6371 83.9886C46.5443 83.7405 46.4032 83.5445 46.2138 83.4006C46.0263 83.2547 45.7905 83.1818 45.5065 83.1818C45.2337 83.1818 45.0046 83.2509 44.819 83.3892C44.6334 83.5256 44.4932 83.7169 44.3985 83.9631C44.3038 84.2074 44.2565 84.4924 44.2565 84.8182ZM49.1457 81.1818V87H48.4752V81.1818H49.1457ZM51.6577 87.1023C51.3812 87.1023 51.1303 87.0502 50.9049 86.946C50.6795 86.84 50.5005 86.6875 50.368 86.4886C50.2354 86.2879 50.1691 86.0455 50.1691 85.7614C50.1691 85.5114 50.2183 85.3087 50.3168 85.1534C50.4153 84.9962 50.5469 84.8731 50.7117 84.7841C50.8765 84.6951 51.0583 84.6288 51.2572 84.5852C51.4579 84.5398 51.6596 84.5038 51.8623 84.4773C52.1274 84.4432 52.3424 84.4176 52.5072 84.4006C52.6738 84.3816 52.795 84.3504 52.8708 84.3068C52.9485 84.2633 52.9873 84.1875 52.9873 84.0795V84.0568C52.9873 83.7765 52.9106 83.5587 52.7572 83.4034C52.6057 83.2481 52.3755 83.1705 52.0668 83.1705C51.7468 83.1705 51.4958 83.2405 51.314 83.3807C51.1322 83.5208 51.0043 83.6705 50.9305 83.8295L50.2941 83.6023C50.4077 83.3371 50.5593 83.1307 50.7486 82.983C50.9399 82.8333 51.1483 82.7292 51.3736 82.6705C51.6009 82.6098 51.8244 82.5795 52.0441 82.5795C52.1843 82.5795 52.3452 82.5966 52.5271 82.6307C52.7108 82.6629 52.8879 82.7301 53.0583 82.8324C53.2307 82.9347 53.3736 83.089 53.4873 83.2955C53.6009 83.5019 53.6577 83.7784 53.6577 84.125V87H52.9873V86.4091H52.9532C52.9077 86.5038 52.832 86.6051 52.7259 86.7131C52.6199 86.821 52.4788 86.9129 52.3026 86.9886C52.1265 87.0644 51.9115 87.1023 51.6577 87.1023ZM51.76 86.5C52.0252 86.5 52.2486 86.4479 52.4305 86.3438C52.6142 86.2396 52.7524 86.1051 52.8452 85.9403C52.9399 85.7756 52.9873 85.6023 52.9873 85.4205V84.8068C52.9589 84.8409 52.8964 84.8722 52.7998 84.9006C52.7051 84.9271 52.5952 84.9508 52.4702 84.9716C52.3471 84.9905 52.2269 85.0076 52.1094 85.0227C51.9939 85.036 51.9002 85.0473 51.8282 85.0568C51.6539 85.0795 51.4911 85.1165 51.3396 85.1676C51.1899 85.2169 51.0687 85.2917 50.9759 85.392C50.885 85.4905 50.8396 85.625 50.8396 85.7955C50.8396 86.0284 50.9257 86.2045 51.0981 86.3239C51.2723 86.4413 51.493 86.5 51.76 86.5ZM55.5065 85.4091L55.4951 84.5795H55.6315L57.5405 82.6364H58.3701L56.336 84.6932H56.2792L55.5065 85.4091ZM54.8815 87V81.1818H55.5519V87H54.8815ZM57.6542 87L55.9496 84.8409L56.4269 84.375L58.5065 87H57.6542Z" fill="black"/>
<defs>
<filter id="filter0_d_337_492" x="0" y="0" width="204" height="108" filterUnits="userSpaceOnUse" color-interpolation-filters="sRGB">
<feFlood flood-opacity="0" result="BackgroundImageFix"/>
<feColorMatrix in="SourceAlpha" type="matrix" values="0 0 0 0 0 0 0 0 0 0 0 0 0 0 0 0 0 0 127 0" result="hardAlpha"/>
<feOffset dy="4"/>
<feGaussianBlur stdDeviation="2"/>
<feComposite in2="hardAlpha" operator="out"/>
<feColorMatrix type="matrix" values="0 0 0 0 0 0 0 0 0 0 0 0 0 0 0 0 0 0 0.15 0"/>
<feBlend mode="normal" in2="BackgroundImageFix" result="effect1_dropShadow_337_492"/>
<feBlend mode="normal" in="SourceGraphic" in2="effect1_dropShadow_337_492" result="shape"/>
</filter>
</defs>
</svg>
