<svg width="332" height="188" viewBox="0 0 332 188" fill="none" xmlns="http://www.w3.org/2000/svg">
<g filter="url(#filter0_d_657_760)">
<rect x="4" width="324" height="180" rx="20" fill="#FCFDFE"/>
</g>
<line x1="16" y1="161.502" x2="316" y2="161.502" stroke="black"/>
<line x1="16" y1="131.502" x2="316" y2="131.502" stroke="#D9D9D9" stroke-dasharray="2 2"/>
<line x1="16" y1="101.502" x2="316" y2="101.502" stroke="#D9D9D9" stroke-dasharray="2 2"/>
<line x1="16" y1="71.5016" x2="316" y2="71.5016" stroke="#D9D9D9" stroke-dasharray="2 2"/>
<line x1="16" y1="41.5016" x2="316" y2="41.5016" stroke="#D9D9D9" stroke-dasharray="2 2"/>
<line x1="16.5" y1="18" x2="16.5" y2="162" stroke="black"/>
<path d="M32.957 172.504C32.8268 172.504 32.7122 172.495 32.6133 172.477C32.5143 172.458 32.4297 172.434 32.3594 172.402V171.836C32.4427 171.862 32.5326 171.882 32.6289 171.895C32.7253 171.91 32.8294 171.918 32.9414 171.918C33.0872 171.918 33.2214 171.889 33.3438 171.832C33.4661 171.775 33.5638 171.677 33.6367 171.539C33.7096 171.401 33.7461 171.211 33.7461 170.969V165.289H34.4141V170.918C34.4141 171.275 34.3542 171.57 34.2344 171.805C34.1172 172.039 33.9492 172.214 33.7305 172.328C33.5143 172.445 33.2565 172.504 32.957 172.504ZM37.4336 166.648C37.944 166.648 38.3229 166.763 38.5703 166.992C38.8177 167.221 38.9414 167.587 38.9414 168.09V171H38.4688L38.3438 170.367H38.3125C38.1927 170.523 38.0677 170.655 37.9375 170.762C37.8073 170.866 37.6562 170.945 37.4844 171C37.3151 171.052 37.1068 171.078 36.8594 171.078C36.599 171.078 36.3672 171.033 36.1641 170.941C35.9635 170.85 35.8047 170.712 35.6875 170.527C35.5729 170.342 35.5156 170.108 35.5156 169.824C35.5156 169.397 35.6849 169.069 36.0234 168.84C36.362 168.611 36.8776 168.486 37.5703 168.465L38.3086 168.434V168.172C38.3086 167.802 38.2292 167.543 38.0703 167.395C37.9115 167.246 37.6875 167.172 37.3984 167.172C37.1745 167.172 36.9609 167.204 36.7578 167.27C36.5547 167.335 36.362 167.411 36.1797 167.5L35.9805 167.008C36.1732 166.909 36.3945 166.824 36.6445 166.754C36.8945 166.684 37.1576 166.648 37.4336 166.648ZM38.3008 168.891L37.6484 168.918C37.1146 168.939 36.7383 169.026 36.5195 169.18C36.3008 169.333 36.1914 169.551 36.1914 169.832C36.1914 170.077 36.2656 170.258 36.4141 170.375C36.5625 170.492 36.7591 170.551 37.0039 170.551C37.3841 170.551 37.6953 170.445 37.9375 170.234C38.1797 170.023 38.3008 169.707 38.3008 169.285V168.891ZM42.3047 166.641C42.8125 166.641 43.1966 166.766 43.457 167.016C43.7174 167.263 43.8477 167.661 43.8477 168.211V171H43.207V168.254C43.207 167.897 43.125 167.63 42.9609 167.453C42.7995 167.276 42.5508 167.188 42.2148 167.188C41.7409 167.188 41.4076 167.322 41.2148 167.59C41.0221 167.858 40.9258 168.247 40.9258 168.758V171H40.2773V166.719H40.8008L40.8984 167.336H40.9336C41.0247 167.185 41.1406 167.059 41.2812 166.957C41.4219 166.853 41.5794 166.775 41.7539 166.723C41.9284 166.668 42.112 166.641 42.3047 166.641ZM48.7188 166.719V171H48.1875L48.0938 170.398H48.0586C47.9701 170.547 47.8555 170.672 47.7148 170.773C47.5742 170.875 47.4154 170.951 47.2383 171C47.0638 171.052 46.8776 171.078 46.6797 171.078C46.3411 171.078 46.0573 171.023 45.8281 170.914C45.599 170.805 45.4258 170.635 45.3086 170.406C45.194 170.177 45.1367 169.883 45.1367 169.523V166.719H45.793V169.477C45.793 169.833 45.8737 170.1 46.0352 170.277C46.1966 170.452 46.4427 170.539 46.7734 170.539C47.0911 170.539 47.3438 170.479 47.5312 170.359C47.7214 170.24 47.8581 170.064 47.9414 169.832C48.0247 169.598 48.0664 169.311 48.0664 168.973V166.719H48.7188ZM51.6914 166.648C52.2018 166.648 52.5807 166.763 52.8281 166.992C53.0755 167.221 53.1992 167.587 53.1992 168.09V171H52.7266L52.6016 170.367H52.5703C52.4505 170.523 52.3255 170.655 52.1953 170.762C52.0651 170.866 51.9141 170.945 51.7422 171C51.5729 171.052 51.3646 171.078 51.1172 171.078C50.8568 171.078 50.625 171.033 50.4219 170.941C50.2214 170.85 50.0625 170.712 49.9453 170.527C49.8307 170.342 49.7734 170.108 49.7734 169.824C49.7734 169.397 49.9427 169.069 50.2812 168.84C50.6198 168.611 51.1354 168.486 51.8281 168.465L52.5664 168.434V168.172C52.5664 167.802 52.487 167.543 52.3281 167.395C52.1693 167.246 51.9453 167.172 51.6562 167.172C51.4323 167.172 51.2188 167.204 51.0156 167.27C50.8125 167.335 50.6198 167.411 50.4375 167.5L50.2383 167.008C50.431 166.909 50.6523 166.824 50.9023 166.754C51.1523 166.684 51.4154 166.648 51.6914 166.648ZM52.5586 168.891L51.9062 168.918C51.3724 168.939 50.9961 169.026 50.7773 169.18C50.5586 169.333 50.4492 169.551 50.4492 169.832C50.4492 170.077 50.5234 170.258 50.6719 170.375C50.8203 170.492 51.0169 170.551 51.2617 170.551C51.6419 170.551 51.9531 170.445 52.1953 170.234C52.4375 170.023 52.5586 169.707 52.5586 169.285V168.891ZM56.4805 166.641C56.5664 166.641 56.6562 166.646 56.75 166.656C56.8438 166.664 56.9271 166.676 57 166.691L56.918 167.293C56.8477 167.275 56.7695 167.26 56.6836 167.25C56.5977 167.24 56.5169 167.234 56.4414 167.234C56.2695 167.234 56.1068 167.27 55.9531 167.34C55.8021 167.408 55.6693 167.507 55.5547 167.637C55.4401 167.764 55.3503 167.919 55.2852 168.102C55.2201 168.281 55.1875 168.482 55.1875 168.703V171H54.5352V166.719H55.0742L55.1445 167.508H55.1719C55.2604 167.349 55.3672 167.204 55.4922 167.074C55.6172 166.941 55.7617 166.836 55.9258 166.758C56.0924 166.68 56.2773 166.641 56.4805 166.641ZM58.457 166.719V171H57.8086V166.719H58.457ZM58.1406 165.117C58.2474 165.117 58.3385 165.152 58.4141 165.223C58.4922 165.29 58.5312 165.397 58.5312 165.543C58.5312 165.686 58.4922 165.793 58.4141 165.863C58.3385 165.934 58.2474 165.969 58.1406 165.969C58.0286 165.969 57.9349 165.934 57.8594 165.863C57.7865 165.793 57.75 165.686 57.75 165.543C57.75 165.397 57.7865 165.29 57.8594 165.223C57.9349 165.152 58.0286 165.117 58.1406 165.117Z" fill="black"/>
<path d="M90.4453 171H89.7812V165.289H92.9609V165.875H90.4453V167.969H92.8086V168.551H90.4453V171ZM95.4648 166.641C95.8294 166.641 96.1419 166.721 96.4023 166.883C96.6628 167.044 96.862 167.271 97 167.562C97.138 167.852 97.207 168.19 97.207 168.578V168.98H94.25C94.2578 169.483 94.3828 169.866 94.625 170.129C94.8672 170.392 95.2083 170.523 95.6484 170.523C95.9193 170.523 96.1589 170.499 96.3672 170.449C96.5755 170.4 96.7917 170.327 97.0156 170.23V170.801C96.7995 170.897 96.5846 170.967 96.3711 171.012C96.1602 171.056 95.9102 171.078 95.6211 171.078C95.2096 171.078 94.8503 170.995 94.543 170.828C94.2383 170.659 94.0013 170.411 93.832 170.086C93.6628 169.76 93.5781 169.362 93.5781 168.891C93.5781 168.43 93.6549 168.031 93.8086 167.695C93.9648 167.357 94.1836 167.096 94.4648 166.914C94.7487 166.732 95.082 166.641 95.4648 166.641ZM95.457 167.172C95.1107 167.172 94.8346 167.285 94.6289 167.512C94.4232 167.738 94.3008 168.055 94.2617 168.461H96.5273C96.5247 168.206 96.4844 167.982 96.4062 167.789C96.3307 167.594 96.2148 167.443 96.0586 167.336C95.9023 167.227 95.7018 167.172 95.457 167.172ZM98.957 164.922V166.441C98.957 166.616 98.9518 166.785 98.9414 166.949C98.9336 167.113 98.9271 167.241 98.9219 167.332H98.957C99.0742 167.139 99.2435 166.977 99.4648 166.844C99.6862 166.711 99.9688 166.645 100.312 166.645C100.849 166.645 101.276 166.831 101.594 167.203C101.914 167.573 102.074 168.124 102.074 168.855C102.074 169.337 102.001 169.743 101.855 170.074C101.71 170.405 101.504 170.655 101.238 170.824C100.973 170.993 100.659 171.078 100.297 171.078C99.9583 171.078 99.6797 171.016 99.4609 170.891C99.2448 170.763 99.0781 170.608 98.9609 170.426H98.9102L98.7773 171H98.3086V164.922H98.957ZM100.207 167.188C99.8971 167.188 99.651 167.249 99.4688 167.371C99.2865 167.491 99.1549 167.673 99.0742 167.918C98.9961 168.16 98.957 168.467 98.957 168.84V168.875C98.957 169.414 99.0469 169.827 99.2266 170.113C99.4062 170.397 99.7331 170.539 100.207 170.539C100.605 170.539 100.904 170.393 101.102 170.102C101.302 169.81 101.402 169.393 101.402 168.852C101.402 168.299 101.303 167.884 101.105 167.605C100.91 167.327 100.611 167.188 100.207 167.188ZM105.152 166.641C105.238 166.641 105.328 166.646 105.422 166.656C105.516 166.664 105.599 166.676 105.672 166.691L105.59 167.293C105.52 167.275 105.441 167.26 105.355 167.25C105.27 167.24 105.189 167.234 105.113 167.234C104.941 167.234 104.779 167.27 104.625 167.34C104.474 167.408 104.341 167.507 104.227 167.637C104.112 167.764 104.022 167.919 103.957 168.102C103.892 168.281 103.859 168.482 103.859 168.703V171H103.207V166.719H103.746L103.816 167.508H103.844C103.932 167.349 104.039 167.204 104.164 167.074C104.289 166.941 104.434 166.836 104.598 166.758C104.764 166.68 104.949 166.641 105.152 166.641ZM110.016 166.719V171H109.484L109.391 170.398H109.355C109.267 170.547 109.152 170.672 109.012 170.773C108.871 170.875 108.712 170.951 108.535 171C108.361 171.052 108.174 171.078 107.977 171.078C107.638 171.078 107.354 171.023 107.125 170.914C106.896 170.805 106.723 170.635 106.605 170.406C106.491 170.177 106.434 169.883 106.434 169.523V166.719H107.09V169.477C107.09 169.833 107.171 170.1 107.332 170.277C107.493 170.452 107.74 170.539 108.07 170.539C108.388 170.539 108.641 170.479 108.828 170.359C109.018 170.24 109.155 170.064 109.238 169.832C109.322 169.598 109.363 169.311 109.363 168.973V166.719H110.016ZM112.988 166.648C113.499 166.648 113.878 166.763 114.125 166.992C114.372 167.221 114.496 167.587 114.496 168.09V171H114.023L113.898 170.367H113.867C113.747 170.523 113.622 170.655 113.492 170.762C113.362 170.866 113.211 170.945 113.039 171C112.87 171.052 112.661 171.078 112.414 171.078C112.154 171.078 111.922 171.033 111.719 170.941C111.518 170.85 111.359 170.712 111.242 170.527C111.128 170.342 111.07 170.108 111.07 169.824C111.07 169.397 111.24 169.069 111.578 168.84C111.917 168.611 112.432 168.486 113.125 168.465L113.863 168.434V168.172C113.863 167.802 113.784 167.543 113.625 167.395C113.466 167.246 113.242 167.172 112.953 167.172C112.729 167.172 112.516 167.204 112.312 167.27C112.109 167.335 111.917 167.411 111.734 167.5L111.535 167.008C111.728 166.909 111.949 166.824 112.199 166.754C112.449 166.684 112.712 166.648 112.988 166.648ZM113.855 168.891L113.203 168.918C112.669 168.939 112.293 169.026 112.074 169.18C111.855 169.333 111.746 169.551 111.746 169.832C111.746 170.077 111.82 170.258 111.969 170.375C112.117 170.492 112.314 170.551 112.559 170.551C112.939 170.551 113.25 170.445 113.492 170.234C113.734 170.023 113.855 169.707 113.855 169.285V168.891ZM117.777 166.641C117.863 166.641 117.953 166.646 118.047 166.656C118.141 166.664 118.224 166.676 118.297 166.691L118.215 167.293C118.145 167.275 118.066 167.26 117.98 167.25C117.895 167.24 117.814 167.234 117.738 167.234C117.566 167.234 117.404 167.27 117.25 167.34C117.099 167.408 116.966 167.507 116.852 167.637C116.737 167.764 116.647 167.919 116.582 168.102C116.517 168.281 116.484 168.482 116.484 168.703V171H115.832V166.719H116.371L116.441 167.508H116.469C116.557 167.349 116.664 167.204 116.789 167.074C116.914 166.941 117.059 166.836 117.223 166.758C117.389 166.68 117.574 166.641 117.777 166.641ZM119.754 166.719V171H119.105V166.719H119.754ZM119.438 165.117C119.544 165.117 119.635 165.152 119.711 165.223C119.789 165.29 119.828 165.397 119.828 165.543C119.828 165.686 119.789 165.793 119.711 165.863C119.635 165.934 119.544 165.969 119.438 165.969C119.326 165.969 119.232 165.934 119.156 165.863C119.083 165.793 119.047 165.686 119.047 165.543C119.047 165.397 119.083 165.29 119.156 165.223C119.232 165.152 119.326 165.117 119.438 165.117Z" fill="black"/>
<path d="M152.293 171L150.375 165.945H150.344C150.354 166.052 150.363 166.182 150.371 166.336C150.379 166.49 150.385 166.658 150.391 166.84C150.396 167.02 150.398 167.203 150.398 167.391V171H149.781V165.289H150.766L152.574 170.039H152.602L154.438 165.289H155.414V171H154.758V167.344C154.758 167.174 154.76 167.005 154.766 166.836C154.771 166.664 154.777 166.503 154.785 166.352C154.793 166.198 154.801 166.065 154.809 165.953H154.777L152.836 171H152.293ZM158.48 166.648C158.991 166.648 159.37 166.763 159.617 166.992C159.865 167.221 159.988 167.587 159.988 168.09V171H159.516L159.391 170.367H159.359C159.24 170.523 159.115 170.655 158.984 170.762C158.854 170.866 158.703 170.945 158.531 171C158.362 171.052 158.154 171.078 157.906 171.078C157.646 171.078 157.414 171.033 157.211 170.941C157.01 170.85 156.852 170.712 156.734 170.527C156.62 170.342 156.562 170.108 156.562 169.824C156.562 169.397 156.732 169.069 157.07 168.84C157.409 168.611 157.924 168.486 158.617 168.465L159.355 168.434V168.172C159.355 167.802 159.276 167.543 159.117 167.395C158.958 167.246 158.734 167.172 158.445 167.172C158.221 167.172 158.008 167.204 157.805 167.27C157.602 167.335 157.409 167.411 157.227 167.5L157.027 167.008C157.22 166.909 157.441 166.824 157.691 166.754C157.941 166.684 158.204 166.648 158.48 166.648ZM159.348 168.891L158.695 168.918C158.161 168.939 157.785 169.026 157.566 169.18C157.348 169.333 157.238 169.551 157.238 169.832C157.238 170.077 157.312 170.258 157.461 170.375C157.609 170.492 157.806 170.551 158.051 170.551C158.431 170.551 158.742 170.445 158.984 170.234C159.227 170.023 159.348 169.707 159.348 169.285V168.891ZM163.27 166.641C163.355 166.641 163.445 166.646 163.539 166.656C163.633 166.664 163.716 166.676 163.789 166.691L163.707 167.293C163.637 167.275 163.559 167.26 163.473 167.25C163.387 167.24 163.306 167.234 163.23 167.234C163.059 167.234 162.896 167.27 162.742 167.34C162.591 167.408 162.458 167.507 162.344 167.637C162.229 167.764 162.139 167.919 162.074 168.102C162.009 168.281 161.977 168.482 161.977 168.703V171H161.324V166.719H161.863L161.934 167.508H161.961C162.049 167.349 162.156 167.204 162.281 167.074C162.406 166.941 162.551 166.836 162.715 166.758C162.882 166.68 163.066 166.641 163.27 166.641ZM166.246 166.641C166.611 166.641 166.923 166.721 167.184 166.883C167.444 167.044 167.643 167.271 167.781 167.562C167.919 167.852 167.988 168.19 167.988 168.578V168.98H165.031C165.039 169.483 165.164 169.866 165.406 170.129C165.648 170.392 165.99 170.523 166.43 170.523C166.701 170.523 166.94 170.499 167.148 170.449C167.357 170.4 167.573 170.327 167.797 170.23V170.801C167.581 170.897 167.366 170.967 167.152 171.012C166.941 171.056 166.691 171.078 166.402 171.078C165.991 171.078 165.632 170.995 165.324 170.828C165.02 170.659 164.783 170.411 164.613 170.086C164.444 169.76 164.359 169.362 164.359 168.891C164.359 168.43 164.436 168.031 164.59 167.695C164.746 167.357 164.965 167.096 165.246 166.914C165.53 166.732 165.863 166.641 166.246 166.641ZM166.238 167.172C165.892 167.172 165.616 167.285 165.41 167.512C165.204 167.738 165.082 168.055 165.043 168.461H167.309C167.306 168.206 167.266 167.982 167.188 167.789C167.112 167.594 166.996 167.443 166.84 167.336C166.684 167.227 166.483 167.172 166.238 167.172ZM170.473 170.547C170.579 170.547 170.689 170.538 170.801 170.52C170.913 170.501 171.004 170.479 171.074 170.453V170.957C170.999 170.991 170.893 171.02 170.758 171.043C170.625 171.066 170.495 171.078 170.367 171.078C170.141 171.078 169.935 171.039 169.75 170.961C169.565 170.88 169.417 170.745 169.305 170.555C169.195 170.365 169.141 170.102 169.141 169.766V167.227H168.531V166.91L169.145 166.656L169.402 165.727H169.793V166.719H171.047V167.227H169.793V169.746C169.793 170.014 169.854 170.215 169.977 170.348C170.102 170.48 170.267 170.547 170.473 170.547Z" fill="black"/>
<path d="M204.363 171L203.66 169.188H201.371L200.672 171H200L202.234 165.266H202.832L205.051 171H204.363ZM203.461 168.598L202.793 166.797C202.777 166.75 202.751 166.673 202.715 166.566C202.681 166.46 202.646 166.349 202.609 166.234C202.573 166.12 202.543 166.027 202.52 165.957C202.493 166.064 202.465 166.171 202.434 166.277C202.405 166.382 202.376 166.479 202.348 166.57C202.319 166.659 202.294 166.734 202.273 166.797L201.594 168.598H203.461ZM207.758 166.641C208.292 166.641 208.717 166.824 209.035 167.191C209.353 167.559 209.512 168.111 209.512 168.848C209.512 169.335 209.439 169.743 209.293 170.074C209.147 170.405 208.941 170.655 208.676 170.824C208.413 170.993 208.102 171.078 207.742 171.078C207.516 171.078 207.316 171.048 207.145 170.988C206.973 170.928 206.826 170.848 206.703 170.746C206.581 170.645 206.479 170.534 206.398 170.414H206.352C206.359 170.516 206.368 170.638 206.379 170.781C206.392 170.924 206.398 171.049 206.398 171.156V172.914H205.746V166.719H206.281L206.367 167.352H206.398C206.482 167.221 206.583 167.103 206.703 166.996C206.823 166.887 206.969 166.801 207.141 166.738C207.315 166.673 207.521 166.641 207.758 166.641ZM207.645 167.188C207.348 167.188 207.108 167.245 206.926 167.359C206.746 167.474 206.615 167.646 206.531 167.875C206.448 168.102 206.404 168.387 206.398 168.73V168.855C206.398 169.217 206.438 169.523 206.516 169.773C206.596 170.023 206.728 170.214 206.91 170.344C207.095 170.474 207.342 170.539 207.652 170.539C207.918 170.539 208.139 170.467 208.316 170.324C208.493 170.181 208.625 169.982 208.711 169.727C208.799 169.469 208.844 169.173 208.844 168.84C208.844 168.335 208.745 167.934 208.547 167.637C208.352 167.337 208.051 167.188 207.645 167.188ZM212.59 166.641C212.676 166.641 212.766 166.646 212.859 166.656C212.953 166.664 213.036 166.676 213.109 166.691L213.027 167.293C212.957 167.275 212.879 167.26 212.793 167.25C212.707 167.24 212.626 167.234 212.551 167.234C212.379 167.234 212.216 167.27 212.062 167.34C211.911 167.408 211.779 167.507 211.664 167.637C211.549 167.764 211.46 167.919 211.395 168.102C211.329 168.281 211.297 168.482 211.297 168.703V171H210.645V166.719H211.184L211.254 167.508H211.281C211.37 167.349 211.477 167.204 211.602 167.074C211.727 166.941 211.871 166.836 212.035 166.758C212.202 166.68 212.387 166.641 212.59 166.641ZM214.566 166.719V171H213.918V166.719H214.566ZM214.25 165.117C214.357 165.117 214.448 165.152 214.523 165.223C214.602 165.29 214.641 165.397 214.641 165.543C214.641 165.686 214.602 165.793 214.523 165.863C214.448 165.934 214.357 165.969 214.25 165.969C214.138 165.969 214.044 165.934 213.969 165.863C213.896 165.793 213.859 165.686 213.859 165.543C213.859 165.397 213.896 165.29 213.969 165.223C214.044 165.152 214.138 165.117 214.25 165.117ZM216.594 171H215.941V164.922H216.594V171Z" fill="black"/>
<path d="M249.293 171L247.375 165.945H247.344C247.354 166.052 247.363 166.182 247.371 166.336C247.379 166.49 247.385 166.658 247.391 166.84C247.396 167.02 247.398 167.203 247.398 167.391V171H246.781V165.289H247.766L249.574 170.039H249.602L251.438 165.289H252.414V171H251.758V167.344C251.758 167.174 251.76 167.005 251.766 166.836C251.771 166.664 251.777 166.503 251.785 166.352C251.793 166.198 251.801 166.065 251.809 165.953H251.777L249.836 171H249.293ZM255.527 166.641C255.892 166.641 256.204 166.721 256.465 166.883C256.725 167.044 256.924 167.271 257.062 167.562C257.201 167.852 257.27 168.19 257.27 168.578V168.98H254.312C254.32 169.483 254.445 169.866 254.688 170.129C254.93 170.392 255.271 170.523 255.711 170.523C255.982 170.523 256.221 170.499 256.43 170.449C256.638 170.4 256.854 170.327 257.078 170.23V170.801C256.862 170.897 256.647 170.967 256.434 171.012C256.223 171.056 255.973 171.078 255.684 171.078C255.272 171.078 254.913 170.995 254.605 170.828C254.301 170.659 254.064 170.411 253.895 170.086C253.725 169.76 253.641 169.362 253.641 168.891C253.641 168.43 253.717 168.031 253.871 167.695C254.027 167.357 254.246 167.096 254.527 166.914C254.811 166.732 255.145 166.641 255.527 166.641ZM255.52 167.172C255.173 167.172 254.897 167.285 254.691 167.512C254.486 167.738 254.363 168.055 254.324 168.461H256.59C256.587 168.206 256.547 167.982 256.469 167.789C256.393 167.594 256.277 167.443 256.121 167.336C255.965 167.227 255.764 167.172 255.52 167.172ZM259.02 166.719V171H258.371V166.719H259.02ZM258.703 165.117C258.81 165.117 258.901 165.152 258.977 165.223C259.055 165.29 259.094 165.397 259.094 165.543C259.094 165.686 259.055 165.793 258.977 165.863C258.901 165.934 258.81 165.969 258.703 165.969C258.591 165.969 258.497 165.934 258.422 165.863C258.349 165.793 258.312 165.686 258.312 165.543C258.312 165.397 258.349 165.29 258.422 165.223C258.497 165.152 258.591 165.117 258.703 165.117Z" fill="black"/>
<path d="M287.957 172.504C287.827 172.504 287.712 172.495 287.613 172.477C287.514 172.458 287.43 172.434 287.359 172.402V171.836C287.443 171.862 287.533 171.882 287.629 171.895C287.725 171.91 287.829 171.918 287.941 171.918C288.087 171.918 288.221 171.889 288.344 171.832C288.466 171.775 288.564 171.677 288.637 171.539C288.71 171.401 288.746 171.211 288.746 170.969V165.289H289.414V170.918C289.414 171.275 289.354 171.57 289.234 171.805C289.117 172.039 288.949 172.214 288.73 172.328C288.514 172.445 288.257 172.504 287.957 172.504ZM294.367 166.719V171H293.836L293.742 170.398H293.707C293.618 170.547 293.504 170.672 293.363 170.773C293.223 170.875 293.064 170.951 292.887 171C292.712 171.052 292.526 171.078 292.328 171.078C291.99 171.078 291.706 171.023 291.477 170.914C291.247 170.805 291.074 170.635 290.957 170.406C290.842 170.177 290.785 169.883 290.785 169.523V166.719H291.441V169.477C291.441 169.833 291.522 170.1 291.684 170.277C291.845 170.452 292.091 170.539 292.422 170.539C292.74 170.539 292.992 170.479 293.18 170.359C293.37 170.24 293.507 170.064 293.59 169.832C293.673 169.598 293.715 169.311 293.715 168.973V166.719H294.367ZM297.766 166.641C298.273 166.641 298.658 166.766 298.918 167.016C299.178 167.263 299.309 167.661 299.309 168.211V171H298.668V168.254C298.668 167.897 298.586 167.63 298.422 167.453C298.26 167.276 298.012 167.188 297.676 167.188C297.202 167.188 296.868 167.322 296.676 167.59C296.483 167.858 296.387 168.247 296.387 168.758V171H295.738V166.719H296.262L296.359 167.336H296.395C296.486 167.185 296.602 167.059 296.742 166.957C296.883 166.853 297.04 166.775 297.215 166.723C297.389 166.668 297.573 166.641 297.766 166.641ZM301.293 166.719V171H300.645V166.719H301.293ZM300.977 165.117C301.083 165.117 301.174 165.152 301.25 165.223C301.328 165.29 301.367 165.397 301.367 165.543C301.367 165.686 301.328 165.793 301.25 165.863C301.174 165.934 301.083 165.969 300.977 165.969C300.865 165.969 300.771 165.934 300.695 165.863C300.622 165.793 300.586 165.686 300.586 165.543C300.586 165.397 300.622 165.29 300.695 165.223C300.771 165.152 300.865 165.117 300.977 165.117Z" fill="black"/>
<defs>
<filter id="filter0_d_657_760" x="0" y="0" width="332" height="188" filterUnits="userSpaceOnUse" color-interpolation-filters="sRGB">
<feFlood flood-opacity="0" result="BackgroundImageFix"/>
<feColorMatrix in="SourceAlpha" type="matrix" values="0 0 0 0 0 0 0 0 0 0 0 0 0 0 0 0 0 0 127 0" result="hardAlpha"/>
<feOffset dy="4"/>
<feGaussianBlur stdDeviation="2"/>
<feComposite in2="hardAlpha" operator="out"/>
<feColorMatrix type="matrix" values="0 0 0 0 0 0 0 0 0 0 0 0 0 0 0 0 0 0 0.15 0"/>
<feBlend mode="normal" in2="BackgroundImageFix" result="effect1_dropShadow_657_760"/>
<feBlend mode="normal" in="SourceGraphic" in2="effect1_dropShadow_657_760" result="shape"/>
</filter>
</defs>
</svg>
