<svg width="16" height="20" viewBox="0 0 16 20" fill="none" xmlns="http://www.w3.org/2000/svg">
<path d="M8 10C8.55 10 9.021 9.804 9.413 9.412C9.805 9.02 10.0007 8.54933 10 8C10 7.45 9.804 6.979 9.412 6.587C9.02 6.195 8.54933 5.99933 8 6C7.45 6 6.979 6.196 6.587 6.588C6.195 6.98 5.99933 7.45067 6 8C6 8.55 6.196 9.021 6.588 9.413C6.98 9.805 7.45067 10.0007 8 10ZM8 19.625C7.86667 19.625 7.73333 19.6 7.6 19.55C7.46667 19.5 7.35 19.4333 7.25 19.35C4.81667 17.2 3 15.204 1.8 13.362C0.6 11.52 0 9.79933 0 8.2C0 5.7 0.804333 3.70833 2.413 2.225C4.02167 0.741667 5.884 0 8 0C10.1167 0 11.9793 0.741667 13.588 2.225C15.1967 3.70833 16.0007 5.7 16 8.2C16 9.8 15.4 11.521 14.2 13.363C13 15.205 11.1833 17.2007 8.75 19.35C8.65 19.4333 8.53333 19.5 8.4 19.55C8.26667 19.6 8.13333 19.625 8 19.625Z" fill="#3C6046"/>
</svg>
