<svg width="24" height="24" viewBox="0 0 24 24" fill="none" xmlns="http://www.w3.org/2000/svg">
<path fill-rule="evenodd" clip-rule="evenodd" d="M2.17533 0C1.92333 0 1.69867 0.174667 1.612 0.437333L0.0733334 5.11133C0.0247505 5.25914 -3.5512e-06 5.41374 3.82118e-10 5.56933V7.42867C3.82118e-10 8.48 0.767333 9.33333 1.714 9.33333C2.66067 9.33333 3.42867 8.48 3.42867 7.42867C3.42867 8.48067 4.196 9.33333 5.14267 9.33333C6.08933 9.33333 6.85733 8.48 6.85733 7.42867C6.85733 8.48067 7.62467 9.33333 8.57133 9.33333C9.518 9.33333 10.2847 8.48133 10.286 7.43C10.286 8.48133 11.0533 9.33333 12 9.33333C12.9467 9.33333 13.714 8.48 13.714 7.42867C13.714 8.48067 14.482 9.33333 15.4287 9.33333C16.3753 9.33333 17.142 8.48133 17.1427 7.43C17.1433 8.48133 17.9107 9.33333 18.8573 9.33333C19.804 9.33333 20.5713 8.48 20.5713 7.42867C20.5713 8.48067 21.3387 9.33333 22.286 9.33333C23.2327 9.33333 24 8.48 24 7.42867V5.56933C24 5.41374 23.9752 5.25914 23.9267 5.11133L22.388 0.438C22.3013 0.174667 22.0767 0 21.8247 0H2.17533Z" fill="#2B4535"/>
<path fill-rule="evenodd" clip-rule="evenodd" d="M2.66675 10.1534V15.3334H1.00008C0.911676 15.3334 0.826891 15.3685 0.764379 15.431C0.701867 15.4936 0.666748 15.5783 0.666748 15.6667V16.3334C0.666748 16.4218 0.701867 16.5066 0.764379 16.5691C0.826891 16.6316 0.911676 16.6667 1.00008 16.6667H23.0001C23.0885 16.6667 23.1733 16.6316 23.2358 16.5691C23.2983 16.5066 23.3334 16.4218 23.3334 16.3334V15.6667C23.3334 15.5783 23.2983 15.4936 23.2358 15.431C23.1733 15.3685 23.0885 15.3334 23.0001 15.3334H21.3334V10.1534C21.0543 10.0422 20.7966 9.88365 20.5714 9.68475C20.3986 9.83718 20.2065 9.96628 20.0001 10.0687V15.3334H4.00008V10.0687C3.79367 9.96628 3.60158 9.83718 3.42875 9.68475C3.20475 9.88141 2.94875 10.0414 2.66675 10.1534ZM20.0001 8.84875C20.0567 8.79208 20.1101 8.73141 20.1601 8.66675H20.0001V8.84875ZM20.9827 8.66675C21.0835 8.79733 21.2015 8.91372 21.3334 9.01275V8.66675H20.9827ZM2.66675 9.01275C2.79934 8.91449 2.91739 8.79801 3.01741 8.66675H2.66675V9.01275ZM3.84008 8.66675H4.00008V8.84875C3.94282 8.79166 3.88937 8.73086 3.84008 8.66675ZM1.66675 18.0001C1.57834 18.0001 1.49356 18.0352 1.43105 18.0977C1.36853 18.1602 1.33341 18.245 1.33341 18.3334V23.3334C1.33341 23.5102 1.40365 23.6798 1.52868 23.8048C1.6537 23.9298 1.82327 24.0001 2.00008 24.0001H22.0001C22.1769 24.0001 22.3465 23.9298 22.4715 23.8048C22.5965 23.6798 22.6667 23.5102 22.6667 23.3334V18.3334C22.6667 18.245 22.6316 18.1602 22.5691 18.0977C22.5066 18.0352 22.4218 18.0001 22.3334 18.0001H1.66675Z" fill="#2B4535"/>
<path d="M7.66659 13.3333H5.66659C5.48249 13.3333 5.33325 13.4825 5.33325 13.6666V14.9999C5.33325 15.184 5.48249 15.3333 5.66659 15.3333H7.66659C7.85068 15.3333 7.99992 15.184 7.99992 14.9999V13.6666C7.99992 13.4825 7.85068 13.3333 7.66659 13.3333Z" fill="#2B4535"/>
<path d="M9.00008 14H7.00008C6.81599 14 6.66675 14.1492 6.66675 14.3333V15C6.66675 15.1841 6.81599 15.3333 7.00008 15.3333H9.00008C9.18418 15.3333 9.33341 15.1841 9.33341 15V14.3333C9.33341 14.1492 9.18418 14 9.00008 14Z" fill="#2B4535"/>
<path d="M11 15.3333C11.5523 15.3333 12 14.8855 12 14.3333C12 13.781 11.5523 13.3333 11 13.3333C10.4477 13.3333 10 13.781 10 14.3333C10 14.8855 10.4477 15.3333 11 15.3333Z" fill="#2B4535"/>
</svg>
