<svg width="100" height="100" viewBox="0 0 100 100" fill="none" xmlns="http://www.w3.org/2000/svg">
<path d="M43 73L78.25 37.75L71.25 30.75L43 59L28.75 44.75L21.75 51.75L43 73ZM50 100C43.0833 100 36.5833 98.6867 30.5 96.06C24.4167 93.4367 19.125 89.875 14.625 85.375C10.125 80.875 6.56333 75.5833 3.94 69.5C1.31333 63.4167 0 56.9167 0 50C0 43.0833 1.31333 36.5833 3.94 30.5C6.56333 24.4167 10.125 19.125 14.625 14.625C19.125 10.125 24.4167 6.56167 30.5 3.935C36.5833 1.31167 43.0833 0 50 0C56.9167 0 63.4167 1.31167 69.5 3.935C75.5833 6.56167 80.875 10.125 85.375 14.625C89.875 19.125 93.4367 24.4167 96.06 30.5C98.6867 36.5833 100 43.0833 100 50C100 56.9167 98.6867 63.4167 96.06 69.5C93.4367 75.5833 89.875 80.875 85.375 85.375C80.875 89.875 75.5833 93.4367 69.5 96.06C63.4167 98.6867 56.9167 100 50 100Z" fill="#3C6046"/>
</svg>
