<svg width="28" height="36" viewBox="0 0 28 36" fill="none" xmlns="http://www.w3.org/2000/svg">
<path d="M14 21.3209L9.15835 24.2375C8.94446 24.3736 8.72085 24.432 8.48752 24.4125C8.25418 24.3931 8.05002 24.3153 7.87502 24.1792C7.70002 24.0431 7.56391 23.8727 7.46668 23.6682C7.36946 23.4636 7.35002 23.2354 7.40835 22.9834L8.69168 17.4709L4.40418 13.7667C4.20974 13.5917 4.08841 13.3922 4.04018 13.1682C3.99196 12.9442 4.00635 12.7256 4.08335 12.5125C4.16113 12.2986 4.2778 12.1236 4.43335 11.9875C4.58891 11.8514 4.8028 11.7639 5.07502 11.725L10.7334 11.2292L12.9209 6.03752C13.0181 5.80419 13.169 5.62919 13.3735 5.51252C13.5781 5.39586 13.7869 5.33752 14 5.33752C14.2139 5.33752 14.4227 5.39586 14.6265 5.51252C14.8303 5.62919 14.9812 5.80419 15.0792 6.03752L17.2667 11.2292L22.925 11.725C23.1972 11.7639 23.4111 11.8514 23.5667 11.9875C23.7222 12.1236 23.8389 12.2986 23.9167 12.5125C23.9945 12.7264 24.0092 12.9454 23.961 13.1694C23.9128 13.3934 23.7911 13.5925 23.5958 13.7667L19.3083 17.4709L20.5917 22.9834C20.65 23.2361 20.6306 23.4648 20.5334 23.6694C20.4361 23.8739 20.3 24.0439 20.125 24.1792C19.95 24.3153 19.7459 24.3931 19.5125 24.4125C19.2792 24.432 19.0556 24.3736 18.8417 24.2375L14 21.3209Z" fill="#FFCD4A"/>
<path d="M12.7227 33.8164H12.0352V35H10.8555V33.8164H8.41797V32.9766L10.9219 29.2891H12.0352V32.8789H12.7227V33.8164ZM10.8555 32.8789V31.9102C10.8555 31.819 10.8568 31.7109 10.8594 31.5859C10.8646 31.4609 10.8698 31.3359 10.875 31.2109C10.8802 31.0859 10.8854 30.9753 10.8906 30.8789C10.8984 30.7799 10.9036 30.7109 10.9062 30.6719H10.875C10.8255 30.7786 10.7734 30.8828 10.7188 30.9844C10.6641 31.0833 10.6003 31.1875 10.5273 31.2969L9.48047 32.8789H10.8555ZM13.3164 34.4414C13.3164 34.1966 13.3828 34.0247 13.5156 33.9258C13.651 33.8268 13.8138 33.7773 14.0039 33.7773C14.1888 33.7773 14.3477 33.8268 14.4805 33.9258C14.6159 34.0247 14.6836 34.1966 14.6836 34.4414C14.6836 34.6758 14.6159 34.8451 14.4805 34.9492C14.3477 35.0534 14.1888 35.1055 14.0039 35.1055C13.8138 35.1055 13.651 35.0534 13.5156 34.9492C13.3828 34.8451 13.3164 34.6758 13.3164 34.4414ZM16.0273 35L18.1719 30.3047H15.3555V29.2891H19.4531V30.0469L17.293 35H16.0273Z" fill="black"/>
</svg>
