<svg width="88" height="38" viewBox="0 0 88 38" fill="none" xmlns="http://www.w3.org/2000/svg">
<g filter="url(#filter0_d_337_499)">
<path d="M17.6484 22.0439C17.8047 22.0439 17.8828 21.9658 17.8828 21.8096C17.8828 21.7314 17.8633 21.6338 17.8242 21.5166C17.707 21.1943 17.6484 20.8574 17.6484 20.5059C17.6484 19.7734 18.0049 18.6602 18.7178 17.166C19.2061 16.1406 19.748 15.1934 20.3438 14.3242C20.7051 13.8066 20.8857 13.416 20.8857 13.1523C20.8857 13.0938 20.876 13.0303 20.8564 12.9619C20.8467 12.8936 20.7832 12.7764 20.666 12.6104C20.4414 12.249 20.1875 11.9365 19.9043 11.6729L19.7432 11.5117C20.4268 11.5215 21.1152 11.5996 21.8086 11.7461C22.5117 11.8828 22.9658 12.0195 23.1709 12.1562L23.2295 12.1855C23.2686 12.1855 23.2979 12.1562 23.3174 12.0977C23.3467 12.0293 23.3613 11.9463 23.3613 11.8486L23.3467 11.6729C23.2197 10.833 22.7949 10.2031 22.0723 9.7832C21.0371 9.17773 19.6162 8.875 17.8096 8.875C17.3994 8.875 16.8525 8.90918 16.1689 8.97754C15.4951 9.03613 14.8701 9.15332 14.2939 9.3291C13.7666 9.49512 13.4541 9.7002 13.3564 9.94434C13.3174 10.042 13.2979 10.1299 13.2979 10.208C13.2979 10.2764 13.3174 10.4375 13.3564 10.6914C13.5127 11.5996 13.7422 12.2344 14.0449 12.5957C14.084 12.6445 14.123 12.6787 14.1621 12.6982C14.2109 12.708 14.2891 12.7178 14.3965 12.7275C14.4648 12.7275 14.5332 12.7275 14.6016 12.7275C14.6699 12.7178 14.8164 12.6641 15.041 12.5664C15.3828 12.4297 15.6514 12.332 15.8467 12.2734L15.9639 12.2441C15.876 12.7422 15.5928 13.3672 15.1143 14.1191C14.6357 14.8711 14.0596 15.6084 13.3857 16.3311C12.7217 17.0439 12.0625 17.5957 11.4082 17.9863C10.9883 18.2402 10.6074 18.3672 10.2656 18.3672C10.0801 18.3672 9.83594 18.2939 9.5332 18.1475C9.23047 17.9912 9.06445 17.3418 9.03516 16.1992C9.03516 14.8223 9.31348 13.582 9.87012 12.4785C10.4268 11.3652 11.1494 10.3203 12.0381 9.34375C12.7217 8.55273 13.5713 7.81543 14.5869 7.13184C15.6123 6.43848 16.7158 5.96484 17.8975 5.71094C18.2979 5.62305 18.6982 5.5791 19.0986 5.5791C19.8799 5.5791 20.6562 5.74512 21.4277 6.07715C21.5742 6.14551 21.7061 6.17969 21.8232 6.17969C21.96 6.17969 22.0625 6.13086 22.1309 6.0332C22.209 5.93555 22.248 5.82812 22.248 5.71094C22.248 5.58398 22.209 5.43262 22.1309 5.25684C21.7695 4.47559 21.2275 3.72363 20.5049 3.00098C19.0596 1.55566 17.4922 0.833008 15.8027 0.833008C15.334 0.833008 14.8506 0.886719 14.3525 0.994141C12.5459 1.36523 10.8906 2.22949 9.38672 3.58691C6.71094 6.04785 5.03125 8.58691 4.34766 11.2041C4.19141 11.9072 4.11328 12.5762 4.11328 13.2109C4.11328 14.4902 4.51367 15.7549 5.31445 17.0049C5.87109 17.8252 6.65234 18.6797 7.6582 19.5684C8.48828 20.291 9.20605 20.7256 9.81152 20.8721C10.0068 20.9111 10.1924 20.9307 10.3682 20.9307C10.749 20.9307 11.1543 20.8184 11.584 20.5938C12.0234 20.3691 12.458 20.0322 12.8877 19.583C13.3174 19.124 13.6934 18.6797 14.0156 18.25L14.2793 17.9277C14.2305 18.1816 14.2061 18.4307 14.2061 18.6748C14.2061 19.417 14.4844 20.125 15.041 20.7988C15.5977 21.4727 16.4326 21.8828 17.5459 22.0293L17.6484 22.0439ZM30.2754 22.2197C30.7148 22.2197 31.3203 22.1221 32.0918 21.9268C32.8633 21.7314 33.6299 21.2529 34.3916 20.4912C35.1533 19.7295 35.5635 18.8408 35.6221 17.8252C35.6221 17.6885 35.6123 17.5713 35.5928 17.4736C35.583 17.376 35.5488 17.2344 35.4902 17.0488C35.4121 16.7949 35.3389 16.6094 35.2705 16.4922C35.2021 16.375 35.1045 16.3164 34.9775 16.3164C34.8408 16.3164 34.7529 16.4092 34.7139 16.5947C34.665 16.8389 34.4404 17.1514 34.04 17.5322C33.8252 17.7373 33.6494 17.8887 33.5127 17.9863C33.3857 18.084 33.2148 18.1816 33 18.2793C31.9844 18.7773 30.8809 19.0264 29.6895 19.0264C29.543 19.0264 29.3379 19.0166 29.0742 18.9971C28.8203 18.9775 28.5859 18.8848 28.3711 18.7188C28.2051 18.6016 28.1221 18.4258 28.1221 18.1914C28.1221 18.0938 28.1367 17.9912 28.166 17.8838C28.1758 17.874 28.2002 17.8691 28.2393 17.8691L28.4004 17.8838C29.0254 17.8838 29.8164 17.6641 30.7734 17.2246C31.7305 16.7852 32.4727 16.375 33 15.9941C33.6738 15.5059 34.2256 14.9346 34.6553 14.2803C34.9775 13.8115 35.1387 13.3965 35.1387 13.0352C35.1387 12.5762 34.9287 12.0439 34.5088 11.4385C34.1279 10.9014 33.542 10.3252 32.751 9.70996C32.2139 9.2998 31.7256 8.9873 31.2861 8.77246C30.7588 8.53809 30.2266 8.4209 29.6895 8.4209C29.2012 8.4209 28.5811 8.57227 27.8291 8.875C27.0771 9.16797 26.291 9.76855 25.4707 10.6768C24.6602 11.5752 24.0498 12.5518 23.6396 13.6064C23.3564 14.3291 23.2148 15.0029 23.2148 15.6279C23.2148 15.9209 23.2441 16.2041 23.3027 16.4775C23.6055 17.6006 24.2207 18.6504 25.1484 19.627C26.0859 20.6035 27.1211 21.3359 28.2539 21.8242C28.9277 22.0879 29.6016 22.2197 30.2754 22.2197ZM28.3711 16.9902C28.3418 16.9902 28.3223 16.9805 28.3125 16.9609C28.4688 16.4043 28.791 15.8281 29.2793 15.2324C29.7676 14.627 30.1826 14.1973 30.5244 13.9434C31.5498 13.1719 32.2432 12.7861 32.6045 12.7861C32.8193 12.7861 32.9268 12.874 32.9268 13.0498C32.9268 13.1377 32.8584 13.333 32.7217 13.6357C32.5947 13.9287 32.1943 14.3877 31.5205 15.0127C31.042 15.4521 30.5586 15.8281 30.0703 16.1406C29.5918 16.4531 29.1865 16.6826 28.8545 16.8291C28.6201 16.9365 28.459 16.9902 28.3711 16.9902ZM41.8623 22C42.1162 22 42.2432 21.9023 42.2432 21.707C42.2432 21.668 42.2334 21.6045 42.2139 21.5166C42.1943 21.4287 42.1455 21.3018 42.0674 21.1357C41.999 20.96 41.9453 20.7939 41.9062 20.6377C41.8672 20.4326 41.8477 20.2129 41.8477 19.9785C41.8477 19.5 41.9502 18.9043 42.1553 18.1914C42.3604 17.4688 42.6924 16.5215 43.1514 15.3496C43.6201 14.1387 44.1279 12.6982 44.6748 11.0283C45.4268 11.0283 45.9541 11.165 46.2568 11.4385C46.3252 11.4971 46.3936 11.5264 46.4619 11.5264C46.5107 11.5264 46.5547 11.5166 46.5938 11.4971C46.7695 11.3799 46.8818 11.126 46.9307 10.7354C46.9502 10.6377 46.96 10.54 46.96 10.4424C46.96 9.54395 46.5254 8.97754 45.6562 8.74316C45.7637 8.35254 45.8174 8.08887 45.8174 7.95215C45.8174 7.62012 45.5 7.16602 44.8652 6.58984C44.4453 6.21875 43.9961 5.89648 43.5176 5.62305C43.0391 5.33984 42.6338 5.19824 42.3018 5.19824C42.0186 5.19824 41.7451 5.37891 41.4814 5.74023L40.251 8.24512L39.7969 8.23047C39.3574 8.23047 38.8887 8.28418 38.3906 8.3916C37.8926 8.48926 37.5215 8.64551 37.2773 8.86035C37.1699 8.94824 37.0967 9.06055 37.0576 9.19727C37.0186 9.33398 36.9893 9.54395 36.9697 9.82715C36.96 10.1104 36.9551 10.3643 36.9551 10.5889C36.9551 11.585 37.1016 12.127 37.3945 12.2148C37.4629 12.2441 37.5312 12.2588 37.5996 12.2588C37.707 12.2588 37.8145 12.2344 37.9219 12.1855C38.1855 12.1074 38.4053 12.0635 38.5811 12.0537C37.6826 14.3193 37.2334 16.1846 37.2334 17.6494C37.2334 18.1279 37.3555 18.8652 37.5996 19.8613C37.8438 20.8477 39.1523 21.5508 41.5254 21.9707C41.6523 21.9902 41.7646 22 41.8623 22ZM43.2686 29.2363C43.9619 29.2363 44.7188 29.1094 45.5391 28.8555C46.9551 28.3965 48.1562 27.2246 49.1426 25.3398C49.6895 24.2852 50.1729 23.0693 50.5928 21.6924C51.0225 20.3154 51.418 18.9238 51.7793 17.5176C52.502 14.8223 53.0488 13.0156 53.4199 12.0977C53.5566 11.7461 53.625 11.4141 53.625 11.1016C53.625 10.8086 53.4688 10.4912 53.1562 10.1494C52.7266 9.7002 52.1992 9.31445 51.5742 8.99219C50.9492 8.66992 50.3438 8.45508 49.7578 8.34766L49.6406 8.33301C49.4746 8.33301 49.3184 8.41602 49.1719 8.58203C48.7129 9.01172 48.2881 10.0518 47.8975 11.7021C47.6533 12.708 47.4141 13.8115 47.1797 15.0127C46.9258 16.3604 46.6377 17.7031 46.3154 19.041C45.9932 20.3789 45.6074 21.5752 45.1582 22.6299C44.9336 23.167 44.5918 23.7773 44.1328 24.4609C43.6348 25.252 42.9805 25.877 42.1699 26.3359C41.7891 26.5508 41.374 26.6582 40.9248 26.6582C40.4268 26.6582 39.8896 26.5264 39.3135 26.2627C39.0498 26.1553 38.8496 26.1016 38.7129 26.1016C38.5469 26.1016 38.4639 26.1797 38.4639 26.3359C38.4639 26.3555 38.4785 26.4629 38.5078 26.6582C38.5371 26.8633 38.8545 27.2393 39.46 27.7861C40.0557 28.3428 40.876 28.7676 41.9209 29.0605C42.3408 29.1777 42.79 29.2363 43.2686 29.2363ZM53.6104 8.23047C53.8447 8.23047 54.0498 8.18164 54.2256 8.08398C54.3721 7.9668 54.5674 7.74219 54.8115 7.41016C55.0654 7.06836 55.3047 6.72656 55.5293 6.38477C55.7539 6.04297 55.9004 5.79883 55.9688 5.65234C56.0957 5.41797 56.1592 5.20312 56.1592 5.00781C56.1592 4.54883 55.5928 4.05078 54.46 3.51367C53.8057 3.20117 53.2051 2.97656 52.6582 2.83984C52.248 2.73242 51.9307 2.67871 51.7061 2.67871C51.6865 2.67871 51.6133 2.68359 51.4863 2.69336C51.3691 2.69336 51.2373 2.7666 51.0908 2.91309C50.8857 3.12793 50.6758 3.49902 50.4609 4.02637C50.2461 4.55371 50.0752 5.13477 49.9482 5.76953C49.9092 5.93555 49.8896 6.08203 49.8896 6.20898C49.8896 6.32617 49.9141 6.45313 49.9629 6.58984C50.0117 6.7168 50.207 6.87793 50.5488 7.07324C50.9492 7.30762 51.4082 7.53223 51.9258 7.74707C52.6777 8.06934 53.2393 8.23047 53.6104 8.23047ZM60.3047 22.1318C61.252 22.1318 62.1699 21.7949 63.0586 21.1211C63.9473 20.4375 64.7383 19.5537 65.4316 18.4697C66.1348 17.376 66.6768 16.2188 67.0576 14.998C67.3506 14.1094 67.4971 13.25 67.4971 12.4199C67.4971 12.1367 67.4531 11.6533 67.3652 10.9697C67.2773 10.2764 66.7354 9.55371 65.7393 8.80176C65.2607 8.45996 64.6943 8.16699 64.04 7.92285C63.5713 7.74707 63.1123 7.65918 62.6631 7.65918C62.2822 7.65918 61.999 7.69824 61.8135 7.77637C61.7354 7.80566 61.6426 7.85938 61.5352 7.9375C61.4375 8.00586 61.3594 8.06934 61.3008 8.12793C61.252 8.18652 61.1934 8.30859 61.125 8.49414L60.9785 8.4209C59.7285 7.8252 58.835 7.52734 58.2979 7.52734C58.1416 7.52734 57.9951 7.57129 57.8584 7.65918C57.7314 7.7373 57.5703 7.9375 57.375 8.25977C56.4863 9.54883 55.7148 10.9648 55.0605 12.5078C54.3477 14.168 53.9912 15.7207 53.9912 17.166C53.9912 20.2617 56.0811 21.917 60.2607 22.1318H60.3047ZM60.085 19.8027C59.6553 19.8027 59.4404 19.3438 59.4404 18.4258C59.4404 17.5469 59.6162 16.5947 59.9678 15.5693L60.0264 15.4082C60.4365 13.9824 60.998 12.6787 61.7109 11.4971C62.0918 10.9014 62.4971 10.457 62.9268 10.1641C63.1514 10.0078 63.3516 9.92969 63.5273 9.92969C63.7031 9.92969 63.8594 10.0078 63.9961 10.1641C64.2793 10.5645 64.4209 11.0869 64.4209 11.7314C64.4209 11.9268 64.3867 12.3125 64.3184 12.8887C64.25 13.4648 64.001 14.2705 63.5713 15.3057C63.1514 16.3408 62.6582 17.2686 62.0918 18.0889C61.5254 18.9092 60.9688 19.4561 60.4219 19.7295C60.2949 19.7783 60.1826 19.8027 60.085 19.8027ZM76.3887 21.9414C76.7988 21.9414 77.3652 21.8242 78.0879 21.5898C78.8105 21.3555 79.5918 20.8086 80.4316 19.9492C81.2812 19.0898 81.9551 18.123 82.4531 17.0488C82.9609 15.9746 83.2246 14.9541 83.2441 13.9873V13.4893C83.2344 13.3232 83.1904 13.0986 83.1123 12.8154C82.8975 12.0537 82.6094 11.3799 82.248 10.7939C82.0039 10.4033 81.6963 10.0078 81.3252 9.60742C80.9541 9.19727 80.6367 8.89941 80.373 8.71387C80.1777 8.57715 79.9727 8.50879 79.7578 8.50879C79.6309 8.50879 79.4746 8.52832 79.2891 8.56738C78.6836 8.7041 78.0684 9.03125 77.4434 9.54883C76.8184 10.0566 76.2227 10.6377 75.6562 11.292C75.0996 11.9365 74.6113 12.5322 74.1914 13.0791C73.9277 13.4111 73.7031 13.6846 73.5176 13.8994L73.8398 13.1816C74.123 12.5273 74.4404 11.8486 74.792 11.1455C75.4561 9.77832 75.9785 8.7627 76.3594 8.09863C76.6426 7.59082 77.1016 6.81934 77.7363 5.78418C77.9707 5.39355 78.1367 5.0957 78.2344 4.89062C78.3125 4.72461 78.3516 4.58301 78.3516 4.46582C78.3516 4.43652 78.3467 4.38281 78.3369 4.30469C78.3369 4.22656 78.2881 4.09473 78.1904 3.90918C77.8682 3.3623 77.3799 2.80566 76.7256 2.23926L76.3008 1.8291C75.998 1.5459 75.6611 1.4043 75.29 1.4043C75.2217 1.4043 75.0557 1.42383 74.792 1.46289C74.5381 1.50195 74.2451 1.74609 73.9131 2.19531C72.0186 4.88086 70.627 7.54688 69.7383 10.1934C68.9961 12.3711 68.625 14.2266 68.625 15.7598C68.625 16.707 68.791 17.5029 69.123 18.1475C69.5332 18.9775 70.0459 19.6416 70.6611 20.1396C71.1982 20.5693 71.6035 20.7842 71.877 20.7842C72.1113 20.7842 72.2285 20.7109 72.2285 20.5645C72.2285 20.5059 72.2139 20.4424 72.1846 20.374C72.1357 20.2471 72.1113 20.0615 72.1113 19.8174C72.1113 19.6514 72.1309 19.4902 72.1699 19.334C72.4238 18.5234 72.9658 17.5078 73.7959 16.2871C74.626 15.0664 75.5049 13.9336 76.4326 12.8887C77.3701 11.834 78.127 11.1602 78.7031 10.8672C78.8301 10.8086 78.9375 10.7793 79.0254 10.7793C79.2988 10.7793 79.4355 11.0088 79.4355 11.4678C79.4355 11.8975 79.3232 12.4932 79.0986 13.2549C78.8057 14.2314 78.3857 15.2617 77.8389 16.3457C77.3018 17.4297 76.6865 18.3623 75.9932 19.1436C75.3096 19.915 74.6162 20.3203 73.9131 20.3594C73.8154 20.3594 73.7373 20.3887 73.6787 20.4473C73.6299 20.4961 73.6055 20.5449 73.6055 20.5938C73.6055 20.6914 73.6982 20.8379 73.8838 21.0332C74.0693 21.2285 74.2598 21.3799 74.4551 21.4873C75.1094 21.79 75.7539 21.9414 76.3887 21.9414Z" fill="white"/>
</g>
<defs>
<filter id="filter0_d_337_499" x="0.113281" y="0.833008" width="87.1309" height="36.4033" filterUnits="userSpaceOnUse" color-interpolation-filters="sRGB">
<feFlood flood-opacity="0" result="BackgroundImageFix"/>
<feColorMatrix in="SourceAlpha" type="matrix" values="0 0 0 0 0 0 0 0 0 0 0 0 0 0 0 0 0 0 127 0" result="hardAlpha"/>
<feOffset dy="4"/>
<feGaussianBlur stdDeviation="2"/>
<feComposite in2="hardAlpha" operator="out"/>
<feColorMatrix type="matrix" values="0 0 0 0 0 0 0 0 0 0 0 0 0 0 0 0 0 0 0.25 0"/>
<feBlend mode="normal" in2="BackgroundImageFix" result="effect1_dropShadow_337_499"/>
<feBlend mode="normal" in="SourceGraphic" in2="effect1_dropShadow_337_499" result="shape"/>
</filter>
</defs>
</svg>
